g Exported Mesh Combined Mesh 
v 39.41906 18.89956 -78.19627
v 38.21969 20.01825 -78.19627
v 38.21969 18.89956 -78.19627
v 39.41906 20.01825 -78.19627
v 39.41906 20.01825 -78.14626
v 39.41906 18.89956 -78.19627
v 39.41906 18.89956 -78.14626
v 39.41906 20.01825 -78.19627
v 39.41906 18.89956 -78.14626
v 38.21969 18.89956 -78.19627
v 38.21969 18.89956 -78.14626
v 39.41906 18.89956 -78.19627
v 38.21969 18.89956 -78.14626
v 38.21969 20.01825 -78.19627
v 38.21969 20.01825 -78.14626
v 38.21969 18.89956 -78.19627
v 38.21969 20.01825 -78.14626
v 39.41906 20.01825 -78.19627
v 39.41906 20.01825 -78.14626
v 38.21969 20.01825 -78.19627
v 38.21969 20.01825 -78.14626
v 39.41906 18.89956 -78.14626
v 38.21969 18.89956 -78.14626
v 39.41906 20.01825 -78.14626

vn 2.384186E-07 -2.682209E-07 -1
vn 2.384186E-07 -2.682209E-07 -1
vn 2.384186E-07 -2.682209E-07 -1
vn 2.384186E-07 -2.682209E-07 -1
vn 1 5.417887E-14 2.682208E-07
vn 1 5.417887E-14 2.682208E-07
vn 1 5.417887E-14 2.682208E-07
vn 1 5.417887E-14 2.682208E-07
vn 2.980229E-08 -1 2.384186E-07
vn 2.980229E-08 -1 2.384186E-07
vn 2.980229E-08 -1 2.384186E-07
vn 2.980229E-08 -1 2.384186E-07
vn -1 -5.417887E-14 -2.682208E-07
vn -1 -5.417887E-14 -2.682208E-07
vn -1 -5.417887E-14 -2.682208E-07
vn -1 -5.417887E-14 -2.682208E-07
vn -2.980229E-08 1 -2.384186E-07
vn -2.980229E-08 1 -2.384186E-07
vn -2.980229E-08 1 -2.384186E-07
vn -2.980229E-08 1 -2.384186E-07
vn -2.384186E-07 2.682209E-07 1
vn -2.384186E-07 2.682209E-07 1
vn -2.384186E-07 2.682209E-07 1
vn -2.384186E-07 2.682209E-07 1

vt 0.0004992783 -0.9919862
vt 0.9995008 1.991986
vt 0.9995 -0.9919864
vt 0.000499934 1.991986
vt 0.000499934 1.991986
vt 0.0004992783 -0.9919862
vt 0.0004992783 -0.9919862
vt 0.000499934 1.991986
vt 0.0004992783 -0.9919862
vt 0.9995 -0.9919864
vt 0.9995 -0.9919864
vt 0.0004992783 -0.9919862
vt 0.9995 -0.9919864
vt 0.9995008 1.991986
vt 0.9995008 1.991986
vt 0.9995 -0.9919864
vt 0.9995008 1.991986
vt 0.000499934 1.991986
vt 0.000499934 1.991986
vt 0.9995008 1.991986
vt 0.9995008 1.991986
vt 0.0004992783 -0.9919862
vt 0.9995 -0.9919864
vt 0.000499934 1.991986

vt1 0 0
vt1 0 0
vt1 0 0
vt1 0 0
vt1 0 0
vt1 0 0
vt1 0 0
vt1 0 0
vt1 0 0
vt1 0 0
vt1 0 0
vt1 0 0
vt1 0 0
vt1 0 0
vt1 0 0
vt1 0 0
vt1 0 0
vt1 0 0
vt1 0 0
vt1 0 0
vt1 0 0
vt1 0 0
vt1 0 0
vt1 0 0

vt2 0 0
vt2 0 0
vt2 0 0
vt2 0 0
vt2 0 0
vt2 0 0
vt2 0 0
vt2 0 0
vt2 0 0
vt2 0 0
vt2 0 0
vt2 0 0
vt2 0 0
vt2 0 0
vt2 0 0
vt2 0 0
vt2 0 0
vt2 0 0
vt2 0 0
vt2 0 0
vt2 0 0
vt2 0 0
vt2 0 0
vt2 0 0

vc 1 1 1 1
vc 1 1 1 1
vc 1 1 1 1
vc 1 1 1 1
vc 1 1 1 1
vc 1 1 1 1
vc 1 1 1 1
vc 1 1 1 1
vc 1 1 1 1
vc 1 1 1 1
vc 1 1 1 1
vc 1 1 1 1
vc 1 1 1 1
vc 1 1 1 1
vc 1 1 1 1
vc 1 1 1 1
vc 1 1 1 1
vc 1 1 1 1
vc 1 1 1 1
vc 1 1 1 1
vc 1 1 1 1
vc 1 1 1 1
vc 1 1 1 1
vc 1 1 1 1
f 1/1/1 3/3/3 2/2/2
f 2/2/2 4/4/4 1/1/1
f 5/5/5 7/7/7 6/6/6
f 6/6/6 8/8/8 5/5/5
f 9/9/9 11/11/11 10/10/10
f 10/10/10 12/12/12 9/9/9
f 13/13/13 15/15/15 14/14/14
f 14/14/14 16/16/16 13/13/13
f 17/17/17 19/19/19 18/18/18
f 18/18/18 20/20/20 17/17/17
f 21/21/21 23/23/23 22/22/22
f 22/22/22 24/24/24 21/21/21

