g Exported Mesh Combined Mesh 
v 33.5637 29.35884 -88.26639
v 32.78699 29.35884 -88.26344
v 32.78699 29.35884 -88.26639
v 33.5637 29.35884 -88.26344
v 32.78699 29.35884 -88.26639
v 32.78699 28.54364 -88.26344
v 32.78699 28.54364 -88.26639
v 32.78699 29.35884 -88.26344
v 32.78699 28.54364 -88.26639
v 33.5637 28.54364 -88.26344
v 33.5637 28.54364 -88.26639
v 32.78699 28.54364 -88.26344
v 33.5637 28.54364 -88.26639
v 33.5637 29.35884 -88.26344
v 33.5637 29.35884 -88.26639
v 33.5637 28.54364 -88.26344
v 32.78699 28.54364 -88.26639
v 33.5637 28.54364 -88.26639
v 33.5637 29.35884 -88.26639
v 32.78699 29.35884 -88.26639
v 32.78699 28.54364 -88.26344
v 33.5637 29.35884 -88.26344
v 33.5637 28.54364 -88.26344
v 32.78699 29.35884 -88.26344

vn 0 1 2.296907E-14
vn 0 1 2.296907E-14
vn 0 1 2.296907E-14
vn 0 1 2.296907E-14
vn -1 0 0
vn -1 0 0
vn -1 0 0
vn -1 0 0
vn 0 -1 -2.296907E-14
vn 0 -1 -2.296907E-14
vn 0 -1 -2.296907E-14
vn 0 -1 -2.296907E-14
vn 1 0 0
vn 1 0 0
vn 1 0 0
vn 1 0 0
vn 0 2.296907E-14 -1
vn 0 2.296907E-14 -1
vn 0 2.296907E-14 -1
vn 0 2.296907E-14 -1
vn 0 -2.296907E-14 1
vn 0 -2.296907E-14 1
vn 0 -2.296907E-14 1
vn 0 -2.296907E-14 1

vt 0 0
vt 0 0
vt 0 0
vt 0 0
vt 0 0
vt 0 0
vt 0 0
vt 0 0
vt 0 0
vt 0 0
vt 0 0
vt 0 0
vt 0 0
vt 0 0
vt 0 0
vt 0 0
vt 0 0
vt 0 0
vt 0 0
vt 0 0
vt 0 0
vt 0 0
vt 0 0
vt 0 0

vt1 0 0
vt1 0 0
vt1 0 0
vt1 0 0
vt1 0 0
vt1 0 0
vt1 0 0
vt1 0 0
vt1 0 0
vt1 0 0
vt1 0 0
vt1 0 0
vt1 0 0
vt1 0 0
vt1 0 0
vt1 0 0
vt1 0 0
vt1 0 0
vt1 0 0
vt1 0 0
vt1 0 0
vt1 0 0
vt1 0 0
vt1 0 0

vt2 0 0
vt2 0 0
vt2 0 0
vt2 0 0
vt2 0 0
vt2 0 0
vt2 0 0
vt2 0 0
vt2 0 0
vt2 0 0
vt2 0 0
vt2 0 0
vt2 0 0
vt2 0 0
vt2 0 0
vt2 0 0
vt2 0 0
vt2 0 0
vt2 0 0
vt2 0 0
vt2 0 0
vt2 0 0
vt2 0 0
vt2 0 0

vc 1 1 1 1
vc 1 1 1 1
vc 1 1 1 1
vc 1 1 1 1
vc 1 1 1 1
vc 1 1 1 1
vc 1 1 1 1
vc 1 1 1 1
vc 1 1 1 1
vc 1 1 1 1
vc 1 1 1 1
vc 1 1 1 1
vc 1 1 1 1
vc 1 1 1 1
vc 1 1 1 1
vc 1 1 1 1
vc 1 1 1 1
vc 1 1 1 1
vc 1 1 1 1
vc 1 1 1 1
vc 1 1 1 1
vc 1 1 1 1
vc 1 1 1 1
vc 1 1 1 1
f 1/1/1 3/3/3 2/2/2
f 1/1/1 2/2/2 4/4/4
f 5/5/5 7/7/7 6/6/6
f 5/5/5 6/6/6 8/8/8
f 9/9/9 11/11/11 10/10/10
f 9/9/9 10/10/10 12/12/12
f 13/13/13 15/15/15 14/14/14
f 13/13/13 14/14/14 16/16/16
f 17/17/17 19/19/19 18/18/18
f 20/20/20 19/19/19 17/17/17
f 21/21/21 23/23/23 22/22/22
f 24/24/24 21/21/21 22/22/22

