g Exported Mesh Combined Mesh 
v 37.96993 3.563063 -78.06634
v 37.96993 3.763063 -76.43173
v 37.96993 3.563063 -76.43173
v 37.96993 3.763063 -78.06634
v 37.96993 3.563063 -76.43173
v 41.68871 3.763063 -76.43173
v 41.68871 3.563063 -76.43173
v 37.96993 3.763063 -76.43173
v 41.68871 3.563063 -76.43173
v 41.68871 3.763063 -78.06638
v 41.68871 3.563063 -78.06638
v 41.68871 3.763063 -76.43173
v 41.68871 3.563063 -78.06638
v 41.67871 3.763063 -78.06633
v 41.67871 3.563063 -78.06633
v 41.68871 3.763063 -78.06638
v 41.67871 3.563063 -78.06633
v 41.67871 3.763063 -76.44173
v 41.67871 3.563063 -76.44173
v 41.67871 3.763063 -78.06633
v 41.67871 3.563063 -76.44173
v 37.97993 3.763063 -76.44173
v 37.97993 3.563063 -76.44173
v 41.67871 3.763063 -76.44173
v 37.97993 3.563063 -76.44173
v 37.97993 3.763063 -78.06634
v 37.97993 3.563063 -78.06634
v 37.97993 3.763063 -76.44173
v 37.97993 3.563063 -78.06634
v 37.96993 3.763063 -78.06634
v 37.96993 3.563063 -78.06634
v 37.97993 3.763063 -78.06634
v 41.68871 3.563063 -76.43173
v 41.68871 3.563063 -78.06638
v 41.67871 3.563063 -78.06633
v 41.67871 3.563063 -76.44173
v 37.96993 3.563063 -76.43173
v 37.97993 3.563063 -76.44173
v 37.96993 3.563063 -78.06634
v 37.97993 3.563063 -78.06634
v 41.68871 3.763063 -76.43173
v 41.67871 3.763063 -78.06633
v 41.68871 3.763063 -78.06638
v 41.67871 3.763063 -76.44173
v 37.96993 3.763063 -76.43173
v 37.97993 3.763063 -76.44173
v 37.96993 3.763063 -78.06634
v 37.97993 3.763063 -78.06634
v 41.65258 3.563061 -88.52128
v 41.65257 3.763061 -90.73695
v 41.65257 3.563061 -90.73695
v 41.65258 3.763062 -88.52128
v 41.65257 3.563061 -90.73695
v 37.94849 3.763061 -90.73695
v 37.94849 3.563061 -90.73695
v 41.65257 3.763061 -90.73695
v 37.94849 3.563061 -90.73695
v 37.94849 3.763061 -89.20312
v 37.94849 3.563061 -89.20312
v 37.94849 3.763061 -90.73695
v 37.94849 3.563061 -89.20312
v 37.96849 3.763061 -89.20312
v 37.96849 3.563061 -89.20312
v 37.94849 3.763061 -89.20312
v 37.96849 3.563061 -89.20312
v 37.96849 3.763061 -90.71696
v 37.96849 3.563061 -90.71696
v 37.96849 3.763061 -89.20312
v 37.96849 3.563061 -90.71696
v 41.63258 3.763061 -90.71696
v 41.63258 3.563061 -90.71696
v 37.96849 3.763061 -90.71696
v 41.63258 3.563061 -90.71696
v 41.63258 3.763062 -88.52128
v 41.63258 3.563061 -88.52128
v 41.63258 3.763061 -90.71696
v 41.63258 3.563061 -88.52128
v 41.65258 3.763062 -88.52128
v 41.65258 3.563061 -88.52128
v 41.63258 3.763062 -88.52128
v 37.94849 3.563061 -90.73695
v 37.94849 3.563061 -89.20312
v 37.96849 3.563061 -89.20312
v 37.96849 3.563061 -90.71696
v 41.65257 3.563061 -90.73695
v 41.63258 3.563061 -90.71696
v 41.65258 3.563061 -88.52128
v 41.63258 3.563061 -88.52128
v 37.94849 3.763061 -90.73695
v 37.96849 3.763061 -89.20312
v 37.94849 3.763061 -89.20312
v 37.96849 3.763061 -90.71696
v 41.65257 3.763061 -90.73695
v 41.63258 3.763061 -90.71696
v 41.65258 3.763062 -88.52128
v 41.63258 3.763062 -88.52128

vn -1 -4.759488E-14 -3.992548E-07
vn -1 -4.759488E-14 -3.992548E-07
vn -1 -4.759488E-14 -3.992548E-07
vn -1 -4.759488E-14 -3.992548E-07
vn -3.653995E-07 1.192093E-07 1
vn -3.653995E-07 1.192093E-07 1
vn -3.653995E-07 1.192093E-07 1
vn -3.653995E-07 1.192093E-07 1
vn 1 -1.081938E-13 -9.075954E-07
vn 1 -1.081938E-13 -9.075954E-07
vn 1 -1.081938E-13 -9.075956E-07
vn 1 -1.081938E-13 -9.075956E-07
vn -0.004715514 -1.19208E-07 -0.9999889
vn -0.004715514 -1.19208E-07 -0.9999889
vn -0.004715514 -1.19208E-07 -0.9999889
vn -0.004715514 -1.19208E-07 -0.9999889
vn -1 -5.899694E-14 -4.949022E-07
vn -1 -5.899694E-14 -4.949022E-07
vn -1 -5.899693E-14 -4.949022E-07
vn -1 -5.899693E-14 -4.949022E-07
vn 1.192093E-07 -1.192093E-07 -1
vn 1.192093E-07 -1.192093E-07 -1
vn 1.192093E-07 -1.192093E-07 -1
vn 1.192093E-07 -1.192093E-07 -1
vn 1 -4.177162E-14 -3.504058E-07
vn 1 -4.177162E-14 -3.504058E-07
vn 1 -4.177162E-14 -3.504058E-07
vn 1 -4.177162E-14 -3.504058E-07
vn -0.0001677403 -1.192093E-07 -1
vn -0.0001677403 -1.192093E-07 -1
vn -0.0001677403 -1.192093E-07 -1
vn -0.0001677403 -1.192093E-07 -1
vn 0 -1 1.192093E-07
vn 0 -1 1.192093E-07
vn 0 -1 1.192093E-07
vn 0 -1 1.192093E-07
vn 0 -1 1.192093E-07
vn 0 -1 1.192093E-07
vn 0 -1 1.192093E-07
vn 0 -1 1.192093E-07
vn 0 1 -1.192093E-07
vn 0 1 -1.192093E-07
vn 0 1 -1.192093E-07
vn 0 1 -1.192093E-07
vn 0 1 -1.192093E-07
vn 0 1 -1.192093E-07
vn 0 1 -1.192093E-07
vn 0 1 -1.192093E-07
vn 1 -2.627085E-13 -2.203759E-06
vn 1 -2.627085E-13 -2.203759E-06
vn 1 -2.627085E-13 -2.203759E-06
vn 1 -2.627085E-13 -2.203759E-06
vn 0 -1.192093E-07 -1
vn 0 -1.192093E-07 -1
vn 0 -1.192093E-07 -1
vn 0 -1.192093E-07 -1
vn -1 1.897451E-13 1.591697E-06
vn -1 1.897451E-13 1.591697E-06
vn -1 1.897451E-13 1.591697E-06
vn -1 1.897451E-13 1.591697E-06
vn 9.536743E-06 1.192093E-07 1
vn 9.536743E-06 1.192093E-07 1
vn 9.536744E-06 1.192093E-07 1
vn 9.536744E-06 1.192093E-07 1
vn 1 -2.042677E-13 -1.713522E-06
vn 1 -2.042677E-13 -1.713522E-06
vn 1 -2.042676E-13 -1.713521E-06
vn 1 -2.042676E-13 -1.713521E-06
vn 0 1.192093E-07 1
vn 0 1.192093E-07 1
vn 0 1.192093E-07 1
vn 0 1.192093E-07 1
vn -1 2.651015E-13 2.223833E-06
vn -1 2.651015E-13 2.223833E-06
vn -1 2.651015E-13 2.223833E-06
vn -1 2.651015E-13 2.223833E-06
vn 0 1.192093E-07 1
vn 0 1.192093E-07 1
vn 0 1.192093E-07 1
vn 0 1.192093E-07 1
vn 0 -1 1.192093E-07
vn 0 -1 1.192093E-07
vn 0 -1 1.192093E-07
vn 0 -1 1.192093E-07
vn 0 -1 1.192093E-07
vn 0 -1 1.192093E-07
vn 0 -1 1.192093E-07
vn 0 -1 1.192093E-07
vn 0 1 -1.192093E-07
vn 0 1 -1.192093E-07
vn 0 1 -1.192093E-07
vn 0 1 -1.192093E-07
vn 0 1 -1.192093E-07
vn 0 1 -1.192093E-07
vn 0 1 -1.192093E-07
vn 0 1 -1.192093E-07

vt 0 0
vt 0 0
vt 0 0
vt 0 0
vt 0 0
vt 0 0
vt 0 0
vt 0 0
vt 0 0
vt 0 0
vt 0 0
vt 0 0
vt 0 0
vt 0 0
vt 0 0
vt 0 0
vt 0 0
vt 0 0
vt 0 0
vt 0 0
vt 0 0
vt 0 0
vt 0 0
vt 0 0
vt 0 0
vt 0 0
vt 0 0
vt 0 0
vt 0 0
vt 0 0
vt 0 0
vt 0 0
vt 0 0
vt 0 0
vt 0 0
vt 0 0
vt 0 0
vt 0 0
vt 0 0
vt 0 0
vt 0 0
vt 0 0
vt 0 0
vt 0 0
vt 0 0
vt 0 0
vt 0 0
vt 0 0
vt 0 0
vt 0 0
vt 0 0
vt 0 0
vt 0 0
vt 0 0
vt 0 0
vt 0 0
vt 0 0
vt 0 0
vt 0 0
vt 0 0
vt 0 0
vt 0 0
vt 0 0
vt 0 0
vt 0 0
vt 0 0
vt 0 0
vt 0 0
vt 0 0
vt 0 0
vt 0 0
vt 0 0
vt 0 0
vt 0 0
vt 0 0
vt 0 0
vt 0 0
vt 0 0
vt 0 0
vt 0 0
vt 0 0
vt 0 0
vt 0 0
vt 0 0
vt 0 0
vt 0 0
vt 0 0
vt 0 0
vt 0 0
vt 0 0
vt 0 0
vt 0 0
vt 0 0
vt 0 0
vt 0 0
vt 0 0

vt1 0 0
vt1 0 0
vt1 0 0
vt1 0 0
vt1 0 0
vt1 0 0
vt1 0 0
vt1 0 0
vt1 0 0
vt1 0 0
vt1 0 0
vt1 0 0
vt1 0 0
vt1 0 0
vt1 0 0
vt1 0 0
vt1 0 0
vt1 0 0
vt1 0 0
vt1 0 0
vt1 0 0
vt1 0 0
vt1 0 0
vt1 0 0
vt1 0 0
vt1 0 0
vt1 0 0
vt1 0 0
vt1 0 0
vt1 0 0
vt1 0 0
vt1 0 0
vt1 0 0
vt1 0 0
vt1 0 0
vt1 0 0
vt1 0 0
vt1 0 0
vt1 0 0
vt1 0 0
vt1 0 0
vt1 0 0
vt1 0 0
vt1 0 0
vt1 0 0
vt1 0 0
vt1 0 0
vt1 0 0
vt1 0 0
vt1 0 0
vt1 0 0
vt1 0 0
vt1 0 0
vt1 0 0
vt1 0 0
vt1 0 0
vt1 0 0
vt1 0 0
vt1 0 0
vt1 0 0
vt1 0 0
vt1 0 0
vt1 0 0
vt1 0 0
vt1 0 0
vt1 0 0
vt1 0 0
vt1 0 0
vt1 0 0
vt1 0 0
vt1 0 0
vt1 0 0
vt1 0 0
vt1 0 0
vt1 0 0
vt1 0 0
vt1 0 0
vt1 0 0
vt1 0 0
vt1 0 0
vt1 0 0
vt1 0 0
vt1 0 0
vt1 0 0
vt1 0 0
vt1 0 0
vt1 0 0
vt1 0 0
vt1 0 0
vt1 0 0
vt1 0 0
vt1 0 0
vt1 0 0
vt1 0 0
vt1 0 0
vt1 0 0

vt2 0 0
vt2 0 0
vt2 0 0
vt2 0 0
vt2 0 0
vt2 0 0
vt2 0 0
vt2 0 0
vt2 0 0
vt2 0 0
vt2 0 0
vt2 0 0
vt2 0 0
vt2 0 0
vt2 0 0
vt2 0 0
vt2 0 0
vt2 0 0
vt2 0 0
vt2 0 0
vt2 0 0
vt2 0 0
vt2 0 0
vt2 0 0
vt2 0 0
vt2 0 0
vt2 0 0
vt2 0 0
vt2 0 0
vt2 0 0
vt2 0 0
vt2 0 0
vt2 0 0
vt2 0 0
vt2 0 0
vt2 0 0
vt2 0 0
vt2 0 0
vt2 0 0
vt2 0 0
vt2 0 0
vt2 0 0
vt2 0 0
vt2 0 0
vt2 0 0
vt2 0 0
vt2 0 0
vt2 0 0
vt2 0 0
vt2 0 0
vt2 0 0
vt2 0 0
vt2 0 0
vt2 0 0
vt2 0 0
vt2 0 0
vt2 0 0
vt2 0 0
vt2 0 0
vt2 0 0
vt2 0 0
vt2 0 0
vt2 0 0
vt2 0 0
vt2 0 0
vt2 0 0
vt2 0 0
vt2 0 0
vt2 0 0
vt2 0 0
vt2 0 0
vt2 0 0
vt2 0 0
vt2 0 0
vt2 0 0
vt2 0 0
vt2 0 0
vt2 0 0
vt2 0 0
vt2 0 0
vt2 0 0
vt2 0 0
vt2 0 0
vt2 0 0
vt2 0 0
vt2 0 0
vt2 0 0
vt2 0 0
vt2 0 0
vt2 0 0
vt2 0 0
vt2 0 0
vt2 0 0
vt2 0 0
vt2 0 0
vt2 0 0

vc 1 1 1 1
vc 1 1 1 1
vc 1 1 1 1
vc 1 1 1 1
vc 1 1 1 1
vc 1 1 1 1
vc 1 1 1 1
vc 1 1 1 1
vc 1 1 1 1
vc 1 1 1 1
vc 1 1 1 1
vc 1 1 1 1
vc 1 1 1 1
vc 1 1 1 1
vc 1 1 1 1
vc 1 1 1 1
vc 1 1 1 1
vc 1 1 1 1
vc 1 1 1 1
vc 1 1 1 1
vc 1 1 1 1
vc 1 1 1 1
vc 1 1 1 1
vc 1 1 1 1
vc 1 1 1 1
vc 1 1 1 1
vc 1 1 1 1
vc 1 1 1 1
vc 1 1 1 1
vc 1 1 1 1
vc 1 1 1 1
vc 1 1 1 1
vc 1 1 1 1
vc 1 1 1 1
vc 1 1 1 1
vc 1 1 1 1
vc 1 1 1 1
vc 1 1 1 1
vc 1 1 1 1
vc 1 1 1 1
vc 1 1 1 1
vc 1 1 1 1
vc 1 1 1 1
vc 1 1 1 1
vc 1 1 1 1
vc 1 1 1 1
vc 1 1 1 1
vc 1 1 1 1
vc 1 1 1 1
vc 1 1 1 1
vc 1 1 1 1
vc 1 1 1 1
vc 1 1 1 1
vc 1 1 1 1
vc 1 1 1 1
vc 1 1 1 1
vc 1 1 1 1
vc 1 1 1 1
vc 1 1 1 1
vc 1 1 1 1
vc 1 1 1 1
vc 1 1 1 1
vc 1 1 1 1
vc 1 1 1 1
vc 1 1 1 1
vc 1 1 1 1
vc 1 1 1 1
vc 1 1 1 1
vc 1 1 1 1
vc 1 1 1 1
vc 1 1 1 1
vc 1 1 1 1
vc 1 1 1 1
vc 1 1 1 1
vc 1 1 1 1
vc 1 1 1 1
vc 1 1 1 1
vc 1 1 1 1
vc 1 1 1 1
vc 1 1 1 1
vc 1 1 1 1
vc 1 1 1 1
vc 1 1 1 1
vc 1 1 1 1
vc 1 1 1 1
vc 1 1 1 1
vc 1 1 1 1
vc 1 1 1 1
vc 1 1 1 1
vc 1 1 1 1
vc 1 1 1 1
vc 1 1 1 1
vc 1 1 1 1
vc 1 1 1 1
vc 1 1 1 1
vc 1 1 1 1
f 1/1/1 3/3/3 2/2/2
f 1/1/1 2/2/2 4/4/4
f 5/5/5 7/7/7 6/6/6
f 5/5/5 6/6/6 8/8/8
f 9/9/9 11/11/11 10/10/10
f 9/9/9 10/10/10 12/12/12
f 13/13/13 15/15/15 14/14/14
f 13/13/13 14/14/14 16/16/16
f 17/17/17 19/19/19 18/18/18
f 17/17/17 18/18/18 20/20/20
f 21/21/21 23/23/23 22/22/22
f 21/21/21 22/22/22 24/24/24
f 25/25/25 27/27/27 26/26/26
f 25/25/25 26/26/26 28/28/28
f 29/29/29 31/31/31 30/30/30
f 29/29/29 30/30/30 32/32/32
f 33/33/33 35/35/35 34/34/34
f 33/33/33 36/36/36 35/35/35
f 37/37/37 36/36/36 33/33/33
f 37/37/37 38/38/38 36/36/36
f 39/39/39 38/38/38 37/37/37
f 39/39/39 40/40/40 38/38/38
f 41/41/41 43/43/43 42/42/42
f 41/41/41 42/42/42 44/44/44
f 45/45/45 41/41/41 44/44/44
f 45/45/45 44/44/44 46/46/46
f 47/47/47 45/45/45 46/46/46
f 47/47/47 46/46/46 48/48/48
f 49/49/49 51/51/51 50/50/50
f 49/49/49 50/50/50 52/52/52
f 53/53/53 55/55/55 54/54/54
f 53/53/53 54/54/54 56/56/56
f 57/57/57 59/59/59 58/58/58
f 57/57/57 58/58/58 60/60/60
f 61/61/61 63/63/63 62/62/62
f 61/61/61 62/62/62 64/64/64
f 65/65/65 67/67/67 66/66/66
f 65/65/65 66/66/66 68/68/68
f 69/69/69 71/71/71 70/70/70
f 69/69/69 70/70/70 72/72/72
f 73/73/73 75/75/75 74/74/74
f 73/73/73 74/74/74 76/76/76
f 77/77/77 79/79/79 78/78/78
f 77/77/77 78/78/78 80/80/80
f 81/81/81 83/83/83 82/82/82
f 81/81/81 84/84/84 83/83/83
f 85/85/85 84/84/84 81/81/81
f 85/85/85 86/86/86 84/84/84
f 87/87/87 86/86/86 85/85/85
f 87/87/87 88/88/88 86/86/86
f 89/89/89 91/91/91 90/90/90
f 89/89/89 90/90/90 92/92/92
f 93/93/93 89/89/89 92/92/92
f 93/93/93 92/92/92 94/94/94
f 95/95/95 93/93/93 94/94/94
f 95/95/95 94/94/94 96/96/96

