g Exported Mesh Combined Mesh 
v 35.12094 17.96308 -89.20311
v 33.69522 18.56308 -89.20311
v 33.69522 17.96308 -89.20311
v 35.12094 17.96308 -89.20311
v 35.12094 18.56308 -89.20311
v 33.69522 18.56308 -89.20311
v 33.69522 17.96308 -89.20311
v 33.69522 18.56308 -88.52126
v 33.69522 17.96308 -88.52126
v 33.69522 18.56308 -89.20311
v 33.69522 17.96308 -88.52126
v 35.12094 18.56308 -88.52126
v 35.12094 17.96308 -88.52126
v 33.69522 18.56308 -88.52126
v 35.12094 17.96308 -88.52126
v 35.12094 18.56308 -89.20311
v 35.12094 17.96308 -89.20311
v 35.12094 17.96308 -88.52126
v 35.12094 18.56308 -88.52126
v 35.12094 18.56308 -89.20311
v 33.69522 17.96308 -88.52126
v 35.12094 17.96308 -89.20311
v 33.69522 17.96308 -89.20311
v 35.12094 17.96308 -88.52126
v 35.12094 18.56308 -89.20311
v 33.84522 18.56308 -89.05311
v 33.69522 18.56308 -89.20311
v 35.12094 18.56308 -89.20311
v 34.97094 18.56308 -89.05311
v 33.84522 18.56308 -89.05311
v 35.12094 18.56308 -88.52126
v 34.97094 18.56308 -88.67126
v 33.69522 18.56308 -88.52126
v 33.84522 18.56308 -88.67126
v 33.69522 18.56308 -89.20311
v 34.97094 18.56308 -89.05311
v 33.84522 18.49312 -89.05311
v 33.84522 18.56308 -89.05311
v 34.97094 18.56308 -89.05311
v 34.97094 18.49312 -89.05311
v 33.84522 18.49312 -89.05311
v 33.84522 18.56308 -89.05311
v 33.84522 18.49312 -88.67126
v 33.84522 18.56308 -88.67126
v 33.84522 18.56308 -89.05311
v 33.84522 18.49312 -89.05311
v 33.84522 18.49312 -88.67126
v 33.84522 18.56308 -88.67126
v 34.97094 18.49312 -88.67126
v 34.97094 18.56308 -88.67126
v 33.84522 18.49312 -88.67126
v 34.97094 18.56308 -88.67126
v 34.97094 18.49312 -89.05311
v 34.97094 18.56308 -89.05311
v 34.97094 18.56308 -88.67126
v 34.97094 18.49312 -88.67126
v 34.97094 18.49312 -89.05311
v 33.84522 18.49312 -88.67126
v 34.97094 18.49312 -89.05311
v 34.97094 18.49312 -88.67126
v 33.84522 18.49312 -89.05311

vn 0 -1.192093E-07 -1
vn 0 -1.192093E-07 -1
vn 0 -1.192093E-07 -1
vn 0 -1.192093E-07 -1
vn 0 -1.192093E-07 -1
vn 0 -1.192093E-07 -1
vn -1 4.268373E-13 3.580571E-06
vn -1 4.268373E-13 3.580571E-06
vn -1 4.268373E-13 3.580571E-06
vn -1 4.268373E-13 3.580571E-06
vn 0 1.192093E-07 1
vn 0 1.192093E-07 1
vn 0 1.192093E-07 1
vn 0 1.192093E-07 1
vn 1 -4.268373E-13 -3.580571E-06
vn 1 -4.268373E-13 -3.580571E-06
vn 1 -4.268373E-13 -3.580571E-06
vn 1 -4.268373E-13 -3.580571E-06
vn 1 -4.268373E-13 -3.580571E-06
vn 1 -4.268373E-13 -3.580571E-06
vn 0 -1 1.192093E-07
vn 0 -1 1.192093E-07
vn 0 -1 1.192093E-07
vn 0 -1 1.192093E-07
vn 0 1 -1.192093E-07
vn 0 1 -1.192093E-07
vn 0 1 -1.192093E-07
vn 0 1 -1.192093E-07
vn 0 1 -1.192093E-07
vn 0 1 -1.192093E-07
vn 0 1 -1.192093E-07
vn 0 1 -1.192093E-07
vn 0 1 -1.192093E-07
vn 0 1 -1.192093E-07
vn 0 1 -1.192093E-07
vn 0 1.192093E-07 1
vn 0 1.192093E-07 1
vn 0 1.192093E-07 1
vn 0 1.192093E-07 1
vn 0 1.192093E-07 1
vn 0 1.192093E-07 1
vn 1 -4.28728E-13 -3.596432E-06
vn 1 -4.28728E-13 -3.596432E-06
vn 1 -4.28728E-13 -3.596432E-06
vn 1 -4.28728E-13 -3.596432E-06
vn 1 -4.28728E-13 -3.596432E-06
vn 1 -4.28728E-13 -3.596432E-06
vn 0 -1.192093E-07 -1
vn 0 -1.192093E-07 -1
vn 0 -1.192093E-07 -1
vn 0 -1.192093E-07 -1
vn -1 4.28728E-13 3.596432E-06
vn -1 4.28728E-13 3.596432E-06
vn -1 4.28728E-13 3.596432E-06
vn -1 4.28728E-13 3.596432E-06
vn -1 4.28728E-13 3.596432E-06
vn -1 4.28728E-13 3.596432E-06
vn 0 1 -1.192093E-07
vn 0 1 -1.192093E-07
vn 0 1 -1.192093E-07
vn 0 1 -1.192093E-07

vt 3.783506E-44 5.465064E-44
vt 0 0.0527041
vt 0 0
vt 3.783506E-44 5.465064E-44
vt 0.05268657 0
vt 0 0.0527041
vt 0 0
vt 0 0
vt 1.382501E+23 0
vt 0 0.0527041
vt 1.382501E+23 0
vt 0 1.743902E+28
vt 0 0.05269825
vt 0 0
vt 0 0.05269825
vt 0.05268657 0
vt 3.783506E-44 5.465064E-44
vt 0 0.05269825
vt 0 1.743902E+28
vt 0.05268657 0
vt 1.382501E+23 0
vt 3.783506E-44 5.465064E-44
vt 0 0
vt 0 0.05269825
vt 0.05268657 0
vt 0 0
vt 0 0.0527041
vt 0.05268657 0
vt 0 0
vt 0 0
vt 0 1.743902E+28
vt 0 0
vt 0 0
vt 1.744214E+28 0
vt 0 0.0527041
vt 0 0
vt 0.0004995465 0.9995006
vt 0 0
vt 0 0
vt 0.9994993 0.9994999
vt 0.0004995465 0.9995006
vt 0 0
vt 0.000500679 0.000500232
vt 1.744214E+28 0
vt 0 0
vt 0.0004995465 0.9995006
vt 0.000500679 0.000500232
vt 1.744214E+28 0
vt 0.9995004 0.0004995465
vt 0 0
vt 0.000500679 0.000500232
vt 0 0
vt 0.9994993 0.9994999
vt 0 0
vt 0 0
vt 0.9995004 0.0004995465
vt 0.9994993 0.9994999
vt 0.000500679 0.000500232
vt 0.9994993 0.9994999
vt 0.9995004 0.0004995465
vt 0.0004995465 0.9995006

vt1 0 0
vt1 0 0
vt1 0 0
vt1 0 0
vt1 0 0
vt1 0 0
vt1 0 0
vt1 0 0
vt1 0 0
vt1 0 0
vt1 0 0
vt1 0 0
vt1 0 0
vt1 0 0
vt1 0 0
vt1 0 0
vt1 0 0
vt1 0 0
vt1 0 0
vt1 0 0
vt1 0 0
vt1 0 0
vt1 0 0
vt1 0 0
vt1 0 0
vt1 0 0
vt1 0 0
vt1 0 0
vt1 0 0
vt1 0 0
vt1 0 0
vt1 0 0
vt1 0 0
vt1 0 0
vt1 0 0
vt1 0 0
vt1 0 0
vt1 0 0
vt1 0 0
vt1 0 0
vt1 0 0
vt1 0 0
vt1 0 0
vt1 0 0
vt1 0 0
vt1 0 0
vt1 0 0
vt1 0 0
vt1 0 0
vt1 0 0
vt1 0 0
vt1 0 0
vt1 0 0
vt1 0 0
vt1 0 0
vt1 0 0
vt1 0 0
vt1 0 0
vt1 0 0
vt1 0 0
vt1 0 0

vt2 0 0
vt2 0 0
vt2 0 0
vt2 0 0
vt2 0 0
vt2 0 0
vt2 0 0
vt2 0 0
vt2 0 0
vt2 0 0
vt2 0 0
vt2 0 0
vt2 0 0
vt2 0 0
vt2 0 0
vt2 0 0
vt2 0 0
vt2 0 0
vt2 0 0
vt2 0 0
vt2 0 0
vt2 0 0
vt2 0 0
vt2 0 0
vt2 0 0
vt2 0 0
vt2 0 0
vt2 0 0
vt2 0 0
vt2 0 0
vt2 0 0
vt2 0 0
vt2 0 0
vt2 0 0
vt2 0 0
vt2 0 0
vt2 0 0
vt2 0 0
vt2 0 0
vt2 0 0
vt2 0 0
vt2 0 0
vt2 0 0
vt2 0 0
vt2 0 0
vt2 0 0
vt2 0 0
vt2 0 0
vt2 0 0
vt2 0 0
vt2 0 0
vt2 0 0
vt2 0 0
vt2 0 0
vt2 0 0
vt2 0 0
vt2 0 0
vt2 0 0
vt2 0 0
vt2 0 0
vt2 0 0

vc 1 1 1 1
vc 1 1 1 1
vc 1 1 1 1
vc 1 1 1 1
vc 1 1 1 1
vc 1 1 1 1
vc 1 1 1 1
vc 1 1 1 1
vc 1 1 1 1
vc 1 1 1 1
vc 1 1 1 1
vc 1 1 1 1
vc 1 1 1 1
vc 1 1 1 1
vc 1 1 1 1
vc 1 1 1 1
vc 1 1 1 1
vc 1 1 1 1
vc 1 1 1 1
vc 1 1 1 1
vc 1 1 1 1
vc 1 1 1 1
vc 1 1 1 1
vc 1 1 1 1
vc 1 1 1 1
vc 1 1 1 1
vc 1 1 1 1
vc 1 1 1 1
vc 1 1 1 1
vc 1 1 1 1
vc 1 1 1 1
vc 1 1 1 1
vc 1 1 1 1
vc 1 1 1 1
vc 1 1 1 1
vc 1 1 1 1
vc 1 1 1 1
vc 1 1 1 1
vc 1 1 1 1
vc 1 1 1 1
vc 1 1 1 1
vc 1 1 1 1
vc 1 1 1 1
vc 1 1 1 1
vc 1 1 1 1
vc 1 1 1 1
vc 1 1 1 1
vc 1 1 1 1
vc 1 1 1 1
vc 1 1 1 1
vc 1 1 1 1
vc 1 1 1 1
vc 1 1 1 1
vc 1 1 1 1
vc 1 1 1 1
vc 1 1 1 1
vc 1 1 1 1
vc 1 1 1 1
vc 1 1 1 1
vc 1 1 1 1
vc 1 1 1 1
f 58/58/58 60/60/60 59/59/59
f 58/58/58 59/59/59 61/61/61

