g Exported Mesh Combined Mesh 
v -2.118034 2.195317E-07 1.841565
v -1.059017 2.195317E-07 1.841565
v 0 2.195317E-07 1.841565
v 1.059017 2.195317E-07 1.841565
v 2.118034 2.195317E-07 1.841565
v -2.118034 1.097658E-07 0.9207826
v -1.059017 1.097658E-07 0.9207826
v 0 1.097658E-07 0.9207826
v 1.059017 1.097658E-07 0.9207826
v 2.118034 1.097658E-07 0.9207826
v -2.118034 0 0
v -1.059017 0 0
v 0 0 0
v 1.059017 0 0
v 2.118034 0 0
v -2.118034 -1.097658E-07 -0.9207826
v -1.059017 -1.097658E-07 -0.9207826
v 0 -1.097658E-07 -0.9207826
v 1.059017 -1.097658E-07 -0.9207826
v 2.118034 -1.097658E-07 -0.9207826
v -2.118034 -2.195317E-07 -1.841565
v -1.059017 -2.195317E-07 -1.841565
v 0 -2.195317E-07 -1.841565
v 1.059017 -2.195317E-07 -1.841565
v 2.118034 -2.195317E-07 -1.841565

vn 0 1 -1.192093E-07
vn 0 1 -1.192093E-07
vn 0 1 -1.192093E-07
vn 0 1 -1.192093E-07
vn 0 1 -1.192093E-07
vn 0 1 -1.192093E-07
vn 0 1 -1.192093E-07
vn 0 1 -1.192093E-07
vn 0 1 -1.192093E-07
vn 0 1 -1.192093E-07
vn 0 1 -1.192093E-07
vn 0 1 -1.192093E-07
vn 0 1 -1.192093E-07
vn 0 1 -1.192093E-07
vn 0 1 -1.192093E-07
vn 0 1 -1.192093E-07
vn 0 1 -1.192093E-07
vn 0 1 -1.192093E-07
vn 0 1 -1.192093E-07
vn 0 1 -1.192093E-07
vn 0 1 -1.192093E-07
vn 0 1 -1.192093E-07
vn 0 1 -1.192093E-07
vn 0 1 -1.192093E-07
vn 0 1 -1.192093E-07

vt 0 0
vt 105.9017 0
vt 211.8034 0
vt 317.7051 0
vt 423.6068 0
vt 0 92.07825
vt 105.9017 92.07825
vt 211.8034 92.07825
vt 317.7051 92.07825
vt 423.6068 92.07825
vt 0 184.1565
vt 105.9017 184.1565
vt 211.8034 184.1565
vt 317.7051 184.1565
vt 423.6068 184.1565
vt 0 276.2348
vt 105.9017 276.2348
vt 211.8034 276.2348
vt 317.7051 276.2348
vt 423.6068 276.2348
vt 0 368.313
vt 105.9017 368.313
vt 211.8034 368.313
vt 317.7051 368.313
vt 423.6068 368.313

vt1 0.02 0.02
vt1 0.26 0.02
vt1 0.5 0.02
vt1 0.7399999 0.02
vt1 0.98 0.02
vt1 0.02 0.2286725
vt1 0.26 0.2286725
vt1 0.5 0.2286725
vt1 0.7399999 0.2286725
vt1 0.98 0.2286725
vt1 0.02 0.4373451
vt1 0.26 0.4373451
vt1 0.5 0.4373451
vt1 0.7399999 0.4373451
vt1 0.98 0.4373451
vt1 0.02 0.6460177
vt1 0.26 0.6460177
vt1 0.5 0.6460177
vt1 0.7399999 0.6460177
vt1 0.98 0.6460177
vt1 0.02 0.8546903
vt1 0.26 0.8546903
vt1 0.5 0.8546903
vt1 0.7399999 0.8546903
vt1 0.98 0.8546903

vt2 0.02 0.02
vt2 0.26 0.02
vt2 0.5 0.02
vt2 0.7399999 0.02
vt2 0.98 0.02
vt2 0.02 0.2286725
vt2 0.26 0.2286725
vt2 0.5 0.2286725
vt2 0.7399999 0.2286725
vt2 0.98 0.2286725
vt2 0.02 0.4373451
vt2 0.26 0.4373451
vt2 0.5 0.4373451
vt2 0.7399999 0.4373451
vt2 0.98 0.4373451
vt2 0.02 0.6460177
vt2 0.26 0.6460177
vt2 0.5 0.6460177
vt2 0.7399999 0.6460177
vt2 0.98 0.6460177
vt2 0.02 0.8546903
vt2 0.26 0.8546903
vt2 0.5 0.8546903
vt2 0.7399999 0.8546903
vt2 0.98 0.8546903

vc 1 1 1 1
vc 1 1 1 1
vc 1 1 1 1
vc 1 1 1 1
vc 1 1 1 1
vc 1 1 1 1
vc 1 1 1 1
vc 1 1 1 1
vc 1 1 1 1
vc 1 1 1 1
vc 1 1 1 1
vc 1 1 1 1
vc 1 1 1 1
vc 1 1 1 1
vc 1 1 1 1
vc 1 1 1 1
vc 1 1 1 1
vc 1 1 1 1
vc 1 1 1 1
vc 1 1 1 1
vc 1 1 1 1
vc 1 1 1 1
vc 1 1 1 1
vc 1 1 1 1
vc 1 1 1 1
f 6/6/6 1/1/1 7/7/7
f 2/2/2 7/7/7 1/1/1
f 7/7/7 2/2/2 8/8/8
f 3/3/3 8/8/8 2/2/2
f 8/8/8 3/3/3 9/9/9
f 4/4/4 9/9/9 3/3/3
f 9/9/9 4/4/4 10/10/10
f 5/5/5 10/10/10 4/4/4
f 7/7/7 12/12/12 6/6/6
f 11/11/11 6/6/6 12/12/12
f 12/12/12 7/7/7 13/13/13
f 8/8/8 13/13/13 7/7/7
f 13/13/13 8/8/8 14/14/14
f 9/9/9 14/14/14 8/8/8
f 14/14/14 9/9/9 15/15/15
f 10/10/10 15/15/15 9/9/9
f 12/12/12 17/17/17 11/11/11
f 16/16/16 11/11/11 17/17/17
f 17/17/17 12/12/12 18/18/18
f 13/13/13 18/18/18 12/12/12
f 18/18/18 13/13/13 19/19/19
f 14/14/14 19/19/19 13/13/13
f 19/19/19 14/14/14 20/20/20
f 15/15/15 20/20/20 14/14/14
f 17/17/17 22/22/22 16/16/16
f 21/21/21 16/16/16 22/22/22
f 22/22/22 17/17/17 23/23/23
f 18/18/18 23/23/23 17/17/17
f 23/23/23 18/18/18 24/24/24
f 19/19/19 24/24/24 18/18/18
f 24/24/24 19/19/19 25/25/25
f 20/20/20 25/25/25 19/19/19

