g Exported Mesh Combined Mesh 
v 33.25568 11.35597 -78.94464
v 33.25577 10.31659 -78.79562
v 33.25568 10.31659 -78.94464
v 33.25577 11.35597 -78.79562
v 33.25568 10.31659 -78.94464
v 32.57214 10.31635 -78.7952
v 32.57204 10.31635 -78.94422
v 33.25577 10.31659 -78.79562
v 32.57204 10.31635 -78.94422
v 32.57214 11.35573 -78.7952
v 32.57204 11.35573 -78.94422
v 32.57214 10.31635 -78.7952
v 32.57204 11.35573 -78.94422
v 33.25577 11.35597 -78.79562
v 33.25568 11.35597 -78.94464
v 32.57214 11.35573 -78.7952
v 32.59438 11.33336 -78.94424
v 32.59447 10.33627 -78.79522
v 32.59438 10.33627 -78.94424
v 32.59447 11.33336 -78.79522
v 32.59438 10.33627 -78.94424
v 33.23376 10.33651 -78.79561
v 33.23367 10.33651 -78.94463
v 32.59447 10.33627 -78.79522
v 33.23367 10.33651 -78.94463
v 33.23376 11.33372 -78.79561
v 33.23367 11.33372 -78.94463
v 33.23376 10.33651 -78.79561
v 33.23367 11.33372 -78.94463
v 32.59447 11.33336 -78.79522
v 32.59438 11.33336 -78.94424
v 33.23376 11.33372 -78.79561
v 32.57204 11.35573 -78.94422
v 33.25568 11.35597 -78.94464
v 32.59438 11.33336 -78.94424
v 33.23367 11.33372 -78.94463
v 33.25568 10.31659 -78.94464
v 33.23367 10.33651 -78.94463
v 32.57204 10.31635 -78.94422
v 32.59438 10.33627 -78.94424
v 32.57214 11.35573 -78.7952
v 32.59447 11.33336 -78.79522
v 33.25577 11.35597 -78.79562
v 33.23376 11.33372 -78.79561
v 33.25577 10.31659 -78.79562
v 33.23376 10.33651 -78.79561
v 32.57214 10.31635 -78.7952
v 32.59447 10.33627 -78.79522
v 34.03605 11.35597 -78.94464
v 34.03614 10.31659 -78.79562
v 34.03605 10.31659 -78.94464
v 34.03614 11.35597 -78.79562
v 34.03605 10.31659 -78.94464
v 33.3525 10.31635 -78.7952
v 33.35241 10.31635 -78.94422
v 34.03614 10.31659 -78.79562
v 33.35241 10.31635 -78.94422
v 33.3525 11.35573 -78.7952
v 33.35241 11.35573 -78.94422
v 33.3525 10.31635 -78.7952
v 33.35241 11.35573 -78.94422
v 34.03614 11.35597 -78.79562
v 34.03605 11.35597 -78.94464
v 33.3525 11.35573 -78.7952
v 33.37475 11.33336 -78.94424
v 33.37484 10.33627 -78.79522
v 33.37475 10.33627 -78.94424
v 33.37484 11.33336 -78.79522
v 33.37475 10.33627 -78.94424
v 34.01413 10.33651 -78.79561
v 34.01404 10.33651 -78.94463
v 33.37484 10.33627 -78.79522
v 34.01404 10.33651 -78.94463
v 34.01413 11.33372 -78.79561
v 34.01404 11.33372 -78.94463
v 34.01413 10.33651 -78.79561
v 34.01404 11.33372 -78.94463
v 33.37484 11.33336 -78.79522
v 33.37475 11.33336 -78.94424
v 34.01413 11.33372 -78.79561
v 33.35241 11.35573 -78.94422
v 34.03605 11.35597 -78.94464
v 33.37475 11.33336 -78.94424
v 34.01404 11.33372 -78.94463
v 34.03605 10.31659 -78.94464
v 34.01404 10.33651 -78.94463
v 33.35241 10.31635 -78.94422
v 33.37475 10.33627 -78.94424
v 33.3525 11.35573 -78.7952
v 33.37484 11.33336 -78.79522
v 34.03614 11.35597 -78.79562
v 34.01413 11.33372 -78.79561
v 34.03614 10.31659 -78.79562
v 34.01413 10.33651 -78.79561
v 33.3525 10.31635 -78.7952
v 33.37484 10.33627 -78.79522
v 41.56704 11.3666 -84.77266
v 41.71605 10.32722 -84.77275
v 41.56704 10.32722 -84.77266
v 41.71605 11.3666 -84.77275
v 41.56704 10.32722 -84.77266
v 41.71647 10.32698 -84.08912
v 41.56746 10.32697 -84.08903
v 41.71605 10.32722 -84.77275
v 41.56746 10.32697 -84.08903
v 41.71647 11.36636 -84.08912
v 41.56746 11.36636 -84.08903
v 41.71647 10.32698 -84.08912
v 41.56746 11.36636 -84.08903
v 41.71605 11.3666 -84.77275
v 41.56704 11.3666 -84.77266
v 41.71647 11.36636 -84.08912
v 41.56744 11.34399 -84.11137
v 41.71646 10.3469 -84.11146
v 41.56744 10.3469 -84.11137
v 41.71646 11.34399 -84.11146
v 41.56744 10.3469 -84.11137
v 41.71607 10.34714 -84.75074
v 41.56705 10.34714 -84.75065
v 41.71646 10.3469 -84.11146
v 41.56705 10.34714 -84.75065
v 41.71607 11.34435 -84.75074
v 41.56705 11.34435 -84.75065
v 41.71607 10.34714 -84.75074
v 41.56705 11.34435 -84.75065
v 41.71646 11.34399 -84.11146
v 41.56744 11.34399 -84.11137
v 41.71607 11.34435 -84.75074
v 41.56746 11.36636 -84.08903
v 41.56704 11.3666 -84.77266
v 41.56744 11.34399 -84.11137
v 41.56705 11.34435 -84.75065
v 41.56704 10.32722 -84.77266
v 41.56705 10.34714 -84.75065
v 41.56746 10.32697 -84.08903
v 41.56744 10.3469 -84.11137
v 41.71647 11.36636 -84.08912
v 41.71646 11.34399 -84.11146
v 41.71605 11.3666 -84.77275
v 41.71607 11.34435 -84.75074
v 41.71605 10.32722 -84.77275
v 41.71607 10.34714 -84.75074
v 41.71647 10.32698 -84.08912
v 41.71646 10.3469 -84.11146

vn 0.9999998 3.471105E-08 -0.0006119449
vn 0.9999998 3.471105E-08 -0.0006119449
vn 0.9999998 3.471105E-08 -0.0006119449
vn 0.9999998 1.924825E-07 -0.0006108444
vn 0.0003512068 -0.9999999 2.803798E-06
vn 0.0003512068 -0.9999999 2.803798E-06
vn 0.0003512069 -0.9999999 2.803798E-06
vn 0.0003514425 -0.9999999 3.881495E-06
vn -0.9999998 -1.293724E-07 0.0006134855
vn -0.9999998 -1.293724E-07 0.0006134855
vn -0.9999998 -1.293724E-07 0.0006134855
vn -0.9999998 -2.240345E-07 0.0006141457
vn -0.0003509104 0.9999999 2.041748E-06
vn -0.0003509104 0.9999999 2.041748E-06
vn -0.0003509104 0.9999999 2.041748E-06
vn -0.0003501497 0.9999999 -1.458243E-06
vn 0.9999998 -4.217709E-07 -0.000614806
vn 0.9999998 -4.217709E-07 -0.000614806
vn 0.9999998 -4.217709E-07 -0.000614806
vn 0.9999998 -2.244149E-07 -0.0006134855
vn -0.0003751367 0.9999999 -2.520406E-06
vn -0.0003751367 0.9999999 -2.520406E-06
vn -0.0003751367 0.9999999 -2.520406E-06
vn -0.0003759507 0.9999999 9.815972E-07
vn -0.9999998 5.995066E-08 0.0006108444
vn -0.9999998 5.995066E-08 0.0006108444
vn -0.9999998 5.995066E-08 0.0006108444
vn -0.9999998 -2.689344E-07 0.0006126051
vn 0.0005627479 -0.9999998 2.511804E-07
vn 0.0005627479 -0.9999998 2.511804E-07
vn 0.0005627479 -0.9999998 2.511804E-07
vn 0.0005622448 -0.9999998 -1.901626E-06
vn -0.0006126327 7.039704E-07 -0.9999998
vn -0.0006126327 7.039703E-07 -0.9999998
vn -0.0006126327 7.039703E-07 -0.9999998
vn -0.0006125623 -1.353547E-06 -0.9999998
vn -0.0006133463 -5.662073E-07 -0.9999998
vn -0.0006145181 -5.662073E-07 -0.9999998
vn -0.0006127954 1.438896E-06 -0.9999998
vn -0.0006125622 -2.071415E-06 -0.9999998
vn 0.0006125963 -1.864767E-07 0.9999998
vn 0.0006125963 -1.864766E-07 0.9999998
vn 0.0006125963 -1.864767E-07 0.9999998
vn 0.0006125233 1.949072E-06 0.9999998
vn 0.0006138852 5.662073E-07 0.9999998
vn 0.0006174004 5.662071E-07 0.9999998
vn 0.0006124892 -4.74743E-06 0.9999998
vn 0.0006125069 -5.329488E-06 0.9999998
vn 0.9999998 3.471105E-08 -0.0006119449
vn 0.9999998 3.471105E-08 -0.0006119449
vn 0.9999998 3.471105E-08 -0.0006119449
vn 0.9999998 1.924825E-07 -0.0006108444
vn 0.0003512068 -0.9999999 2.803798E-06
vn 0.0003512068 -0.9999999 2.803798E-06
vn 0.0003512069 -0.9999999 2.803798E-06
vn 0.0003514425 -0.9999999 3.881495E-06
vn -0.9999998 -1.293724E-07 0.0006134855
vn -0.9999998 -1.293724E-07 0.0006134855
vn -0.9999998 -1.293724E-07 0.0006134855
vn -0.9999998 -2.240345E-07 0.0006141457
vn -0.0003509104 0.9999999 2.041748E-06
vn -0.0003509104 0.9999999 2.041748E-06
vn -0.0003509104 0.9999999 2.041748E-06
vn -0.0003501497 0.9999999 -1.458243E-06
vn 0.9999998 -4.217709E-07 -0.000614806
vn 0.9999998 -4.217709E-07 -0.000614806
vn 0.9999998 -4.217709E-07 -0.000614806
vn 0.9999998 -2.244149E-07 -0.0006134855
vn -0.0003751367 0.9999999 -2.520406E-06
vn -0.0003751367 0.9999999 -2.520406E-06
vn -0.0003751367 0.9999999 -2.520406E-06
vn -0.0003759507 0.9999999 9.815972E-07
vn -0.9999998 5.995066E-08 0.0006108444
vn -0.9999998 5.995066E-08 0.0006108444
vn -0.9999998 5.995066E-08 0.0006108444
vn -0.9999998 -2.689344E-07 0.0006126051
vn 0.0005627479 -0.9999998 2.511804E-07
vn 0.0005627479 -0.9999998 2.511804E-07
vn 0.0005627479 -0.9999998 2.511804E-07
vn 0.0005622448 -0.9999998 -1.901626E-06
vn -0.0006126327 7.039704E-07 -0.9999998
vn -0.0006126327 7.039703E-07 -0.9999998
vn -0.0006126327 7.039703E-07 -0.9999998
vn -0.0006125623 -1.353547E-06 -0.9999998
vn -0.0006133463 -5.662073E-07 -0.9999998
vn -0.0006145181 -5.662073E-07 -0.9999998
vn -0.0006127954 1.438896E-06 -0.9999998
vn -0.0006125622 -2.071415E-06 -0.9999998
vn 0.0006125963 -1.864767E-07 0.9999998
vn 0.0006125963 -1.864766E-07 0.9999998
vn 0.0006125963 -1.864767E-07 0.9999998
vn 0.0006125233 1.949072E-06 0.9999998
vn 0.0006138852 5.662073E-07 0.9999998
vn 0.0006174004 5.662071E-07 0.9999998
vn 0.0006124892 -4.74743E-06 0.9999998
vn 0.0006125069 -5.329488E-06 0.9999998
vn -0.0006121516 -8.442524E-08 -0.9999998
vn -0.0006121516 -8.442525E-08 -0.9999998
vn -0.0006121516 -8.442524E-08 -0.9999998
vn -0.0006110511 7.334611E-08 -0.9999998
vn 2.684517E-06 -0.9999999 -0.0003510876
vn 2.684517E-06 -0.9999999 -0.0003510876
vn 2.684517E-06 -0.9999999 -0.0003510876
vn 3.762213E-06 -0.9999999 -0.0003513231
vn 0.0006136922 -1.023632E-08 0.9999998
vn 0.0006136922 -1.023632E-08 0.9999998
vn 0.0006136922 -1.023631E-08 0.9999998
vn 0.0006143524 -1.048985E-07 0.9999998
vn 2.161029E-06 0.9999999 0.0003507911
vn 2.161029E-06 0.9999999 0.0003507911
vn 2.161029E-06 0.9999999 0.0003507911
vn -1.338962E-06 0.9999999 0.0003500304
vn -0.0006150127 -5.40907E-07 -0.9999998
vn -0.0006150127 -5.40907E-07 -0.9999998
vn -0.0006150127 -5.40907E-07 -0.9999998
vn -0.0006136922 -3.435511E-07 -0.9999998
vn -2.401119E-06 0.9999999 0.0003750174
vn -2.401119E-06 0.9999999 0.0003750174
vn -2.401119E-06 0.9999999 0.0003750174
vn 1.100884E-06 0.9999999 0.0003758314
vn 0.0006110511 1.790871E-07 0.9999998
vn 0.0006110511 1.790871E-07 0.9999998
vn 0.0006110511 1.790871E-07 0.9999998
vn 0.0006128118 -1.497983E-07 0.9999998
vn 1.318549E-07 -0.9999998 -0.0005626286
vn 1.318549E-07 -0.9999998 -0.0005626286
vn 1.318549E-07 -0.9999998 -0.0005626286
vn -2.020952E-06 -0.9999998 -0.0005621255
vn -0.9999998 8.232527E-07 0.0006128392
vn -0.9999998 8.232526E-07 0.0006128392
vn -0.9999998 8.232526E-07 0.0006128392
vn -0.9999998 -1.234264E-06 0.0006127689
vn -0.9999998 -4.46925E-07 0.0006135528
vn -0.9999998 -4.469248E-07 0.0006147245
vn -0.9999998 1.558178E-06 0.0006130019
vn -0.9999998 -1.952133E-06 0.0006127688
vn 0.9999998 -3.05759E-07 -0.0006128027
vn 0.9999998 -3.057589E-07 -0.0006128027
vn 0.9999998 -3.05759E-07 -0.0006128027
vn 0.9999998 1.82979E-06 -0.0006127298
vn 0.9999998 4.469249E-07 -0.0006140917
vn 0.9999998 4.469242E-07 -0.0006176069
vn 0.9999998 -4.866712E-06 -0.0006126956
vn 0.9999998 -5.44877E-06 -0.0006127134

vt 0.7312494 0.0004994869
vt 0.2687497 0.9992692
vt 0.7312493 0.9992697
vt 0.2687498 0.0004998446
vt 0.7312493 0.000505656
vt 0.2687512 0.9994937
vt 0.7312504 0.999494
vt 0.2687497 0.0005058646
vt 0.2687496 0.9995005
vt 0.7312489 0.0007299781
vt 0.2687495 0.0007301271
vt 0.7312488 0.9995002
vt 0.2687495 0.9994943
vt 0.7312502 0.0005063117
vt 0.2687506 0.0005058348
vt 0.7312489 0.9994942
vt 0.7312506 0.02222657
vt 0.2687508 0.9803559
vt 0.7312505 0.9803557
vt 0.2687511 0.02222657
vt 0.2687495 0.9668509
vt 0.7312505 0.03266716
vt 0.2687508 0.03266707
vt 0.7312492 0.9668505
vt 0.2687508 0.9801252
vt 0.7312502 0.0218811
vt 0.2687507 0.02188078
vt 0.7312505 0.9801249
vt 0.7312493 0.03266722
vt 0.2687511 0.9668503
vt 0.7312506 0.9668504
vt 0.2687498 0.0326677
vt 0.9994943 0.0007301271
vt 0.0005058348 0.0004994869
vt 0.9668504 0.02222657
vt 0.03266722 0.02188078
vt 0.000505656 0.9992697
vt 0.03266707 0.9801252
vt 0.999494 0.9995005
vt 0.9668509 0.9803557
vt 0.000505805 0.0007299781
vt 0.03314972 0.02222657
vt 0.9994937 0.0004998446
vt 0.9673323 0.0218811
vt 0.9994941 0.9992692
vt 0.9673328 0.9801249
vt 0.0005062819 0.9995002
vt 0.03314948 0.9803559
vt 0.7312494 0.0004994869
vt 0.2687497 0.9992692
vt 0.7312493 0.9992697
vt 0.2687498 0.0004998446
vt 0.7312493 0.000505656
vt 0.2687512 0.9994937
vt 0.7312504 0.999494
vt 0.2687497 0.0005058646
vt 0.2687496 0.9995005
vt 0.7312489 0.0007299781
vt 0.2687495 0.0007301271
vt 0.7312488 0.9995002
vt 0.2687495 0.9994943
vt 0.7312502 0.0005063117
vt 0.2687506 0.0005058348
vt 0.7312489 0.9994942
vt 0.7312506 0.02222657
vt 0.2687508 0.9803559
vt 0.7312505 0.9803557
vt 0.2687511 0.02222657
vt 0.2687495 0.9668509
vt 0.7312505 0.03266716
vt 0.2687508 0.03266707
vt 0.7312492 0.9668505
vt 0.2687508 0.9801252
vt 0.7312502 0.0218811
vt 0.2687507 0.02188078
vt 0.7312505 0.9801249
vt 0.7312493 0.03266722
vt 0.2687511 0.9668503
vt 0.7312506 0.9668504
vt 0.2687498 0.0326677
vt 0.9994943 0.0007301271
vt 0.0005058348 0.0004994869
vt 0.9668504 0.02222657
vt 0.03266722 0.02188078
vt 0.000505656 0.9992697
vt 0.03266707 0.9801252
vt 0.999494 0.9995005
vt 0.9668509 0.9803557
vt 0.000505805 0.0007299781
vt 0.03314972 0.02222657
vt 0.9994937 0.0004998446
vt 0.9673323 0.0218811
vt 0.9994941 0.9992692
vt 0.9673328 0.9801249
vt 0.0005062819 0.9995002
vt 0.03314948 0.9803559
vt 0.7312494 0.0004994869
vt 0.2687497 0.9992692
vt 0.7312493 0.9992697
vt 0.2687498 0.0004998446
vt 0.7312493 0.000505656
vt 0.2687512 0.9994937
vt 0.7312504 0.999494
vt 0.2687497 0.0005058646
vt 0.2687496 0.9995005
vt 0.7312489 0.0007299781
vt 0.2687495 0.0007301271
vt 0.7312488 0.9995002
vt 0.2687495 0.9994943
vt 0.7312502 0.0005063117
vt 0.2687506 0.0005058348
vt 0.7312489 0.9994942
vt 0.7312506 0.02222657
vt 0.2687508 0.9803559
vt 0.7312505 0.9803557
vt 0.2687511 0.02222657
vt 0.2687495 0.9668509
vt 0.7312505 0.03266716
vt 0.2687508 0.03266707
vt 0.7312492 0.9668505
vt 0.2687508 0.9801252
vt 0.7312502 0.0218811
vt 0.2687507 0.02188078
vt 0.7312505 0.9801249
vt 0.7312493 0.03266722
vt 0.2687511 0.9668503
vt 0.7312506 0.9668504
vt 0.2687498 0.0326677
vt 0.9994943 0.0007301271
vt 0.0005058348 0.0004994869
vt 0.9668504 0.02222657
vt 0.03266722 0.02188078
vt 0.000505656 0.9992697
vt 0.03266707 0.9801252
vt 0.999494 0.9995005
vt 0.9668509 0.9803557
vt 0.000505805 0.0007299781
vt 0.03314972 0.02222657
vt 0.9994937 0.0004998446
vt 0.9673323 0.0218811
vt 0.9994941 0.9992692
vt 0.9673328 0.9801249
vt 0.0005062819 0.9995002
vt 0.03314948 0.9803559

vt1 0 0
vt1 0 0
vt1 0 0
vt1 0 0
vt1 0 0
vt1 0 0
vt1 0 0
vt1 0 0
vt1 0 0
vt1 0 0
vt1 0 0
vt1 0 0
vt1 0 0
vt1 0 0
vt1 0 0
vt1 0 0
vt1 0 0
vt1 0 0
vt1 0 0
vt1 0 0
vt1 0 0
vt1 0 0
vt1 0 0
vt1 0 0
vt1 0 0
vt1 0 0
vt1 0 0
vt1 0 0
vt1 0 0
vt1 0 0
vt1 0 0
vt1 0 0
vt1 0 0
vt1 0 0
vt1 0 0
vt1 0 0
vt1 0 0
vt1 0 0
vt1 0 0
vt1 0 0
vt1 0 0
vt1 0 0
vt1 0 0
vt1 0 0
vt1 0 0
vt1 0 0
vt1 0 0
vt1 0 0
vt1 0 0
vt1 0 0
vt1 0 0
vt1 0 0
vt1 0 0
vt1 0 0
vt1 0 0
vt1 0 0
vt1 0 0
vt1 0 0
vt1 0 0
vt1 0 0
vt1 0 0
vt1 0 0
vt1 0 0
vt1 0 0
vt1 0 0
vt1 0 0
vt1 0 0
vt1 0 0
vt1 0 0
vt1 0 0
vt1 0 0
vt1 0 0
vt1 0 0
vt1 0 0
vt1 0 0
vt1 0 0
vt1 0 0
vt1 0 0
vt1 0 0
vt1 0 0
vt1 0 0
vt1 0 0
vt1 0 0
vt1 0 0
vt1 0 0
vt1 0 0
vt1 0 0
vt1 0 0
vt1 0 0
vt1 0 0
vt1 0 0
vt1 0 0
vt1 0 0
vt1 0 0
vt1 0 0
vt1 0 0
vt1 0 0
vt1 0 0
vt1 0 0
vt1 0 0
vt1 0 0
vt1 0 0
vt1 0 0
vt1 0 0
vt1 0 0
vt1 0 0
vt1 0 0
vt1 0 0
vt1 0 0
vt1 0 0
vt1 0 0
vt1 0 0
vt1 0 0
vt1 0 0
vt1 0 0
vt1 0 0
vt1 0 0
vt1 0 0
vt1 0 0
vt1 0 0
vt1 0 0
vt1 0 0
vt1 0 0
vt1 0 0
vt1 0 0
vt1 0 0
vt1 0 0
vt1 0 0
vt1 0 0
vt1 0 0
vt1 0 0
vt1 0 0
vt1 0 0
vt1 0 0
vt1 0 0
vt1 0 0
vt1 0 0
vt1 0 0
vt1 0 0
vt1 0 0
vt1 0 0
vt1 0 0
vt1 0 0
vt1 0 0

vt2 0 0
vt2 0 0
vt2 0 0
vt2 0 0
vt2 0 0
vt2 0 0
vt2 0 0
vt2 0 0
vt2 0 0
vt2 0 0
vt2 0 0
vt2 0 0
vt2 0 0
vt2 0 0
vt2 0 0
vt2 0 0
vt2 0 0
vt2 0 0
vt2 0 0
vt2 0 0
vt2 0 0
vt2 0 0
vt2 0 0
vt2 0 0
vt2 0 0
vt2 0 0
vt2 0 0
vt2 0 0
vt2 0 0
vt2 0 0
vt2 0 0
vt2 0 0
vt2 0 0
vt2 0 0
vt2 0 0
vt2 0 0
vt2 0 0
vt2 0 0
vt2 0 0
vt2 0 0
vt2 0 0
vt2 0 0
vt2 0 0
vt2 0 0
vt2 0 0
vt2 0 0
vt2 0 0
vt2 0 0
vt2 0 0
vt2 0 0
vt2 0 0
vt2 0 0
vt2 0 0
vt2 0 0
vt2 0 0
vt2 0 0
vt2 0 0
vt2 0 0
vt2 0 0
vt2 0 0
vt2 0 0
vt2 0 0
vt2 0 0
vt2 0 0
vt2 0 0
vt2 0 0
vt2 0 0
vt2 0 0
vt2 0 0
vt2 0 0
vt2 0 0
vt2 0 0
vt2 0 0
vt2 0 0
vt2 0 0
vt2 0 0
vt2 0 0
vt2 0 0
vt2 0 0
vt2 0 0
vt2 0 0
vt2 0 0
vt2 0 0
vt2 0 0
vt2 0 0
vt2 0 0
vt2 0 0
vt2 0 0
vt2 0 0
vt2 0 0
vt2 0 0
vt2 0 0
vt2 0 0
vt2 0 0
vt2 0 0
vt2 0 0
vt2 0 0
vt2 0 0
vt2 0 0
vt2 0 0
vt2 0 0
vt2 0 0
vt2 0 0
vt2 0 0
vt2 0 0
vt2 0 0
vt2 0 0
vt2 0 0
vt2 0 0
vt2 0 0
vt2 0 0
vt2 0 0
vt2 0 0
vt2 0 0
vt2 0 0
vt2 0 0
vt2 0 0
vt2 0 0
vt2 0 0
vt2 0 0
vt2 0 0
vt2 0 0
vt2 0 0
vt2 0 0
vt2 0 0
vt2 0 0
vt2 0 0
vt2 0 0
vt2 0 0
vt2 0 0
vt2 0 0
vt2 0 0
vt2 0 0
vt2 0 0
vt2 0 0
vt2 0 0
vt2 0 0
vt2 0 0
vt2 0 0
vt2 0 0
vt2 0 0
vt2 0 0
vt2 0 0
vt2 0 0

vc 1 1 1 1
vc 1 1 1 1
vc 1 1 1 1
vc 1 1 1 1
vc 1 1 1 1
vc 1 1 1 1
vc 1 1 1 1
vc 1 1 1 1
vc 1 1 1 1
vc 1 1 1 1
vc 1 1 1 1
vc 1 1 1 1
vc 1 1 1 1
vc 1 1 1 1
vc 1 1 1 1
vc 1 1 1 1
vc 1 1 1 1
vc 1 1 1 1
vc 1 1 1 1
vc 1 1 1 1
vc 1 1 1 1
vc 1 1 1 1
vc 1 1 1 1
vc 1 1 1 1
vc 1 1 1 1
vc 1 1 1 1
vc 1 1 1 1
vc 1 1 1 1
vc 1 1 1 1
vc 1 1 1 1
vc 1 1 1 1
vc 1 1 1 1
vc 1 1 1 1
vc 1 1 1 1
vc 1 1 1 1
vc 1 1 1 1
vc 1 1 1 1
vc 1 1 1 1
vc 1 1 1 1
vc 1 1 1 1
vc 1 1 1 1
vc 1 1 1 1
vc 1 1 1 1
vc 1 1 1 1
vc 1 1 1 1
vc 1 1 1 1
vc 1 1 1 1
vc 1 1 1 1
vc 1 1 1 1
vc 1 1 1 1
vc 1 1 1 1
vc 1 1 1 1
vc 1 1 1 1
vc 1 1 1 1
vc 1 1 1 1
vc 1 1 1 1
vc 1 1 1 1
vc 1 1 1 1
vc 1 1 1 1
vc 1 1 1 1
vc 1 1 1 1
vc 1 1 1 1
vc 1 1 1 1
vc 1 1 1 1
vc 1 1 1 1
vc 1 1 1 1
vc 1 1 1 1
vc 1 1 1 1
vc 1 1 1 1
vc 1 1 1 1
vc 1 1 1 1
vc 1 1 1 1
vc 1 1 1 1
vc 1 1 1 1
vc 1 1 1 1
vc 1 1 1 1
vc 1 1 1 1
vc 1 1 1 1
vc 1 1 1 1
vc 1 1 1 1
vc 1 1 1 1
vc 1 1 1 1
vc 1 1 1 1
vc 1 1 1 1
vc 1 1 1 1
vc 1 1 1 1
vc 1 1 1 1
vc 1 1 1 1
vc 1 1 1 1
vc 1 1 1 1
vc 1 1 1 1
vc 1 1 1 1
vc 1 1 1 1
vc 1 1 1 1
vc 1 1 1 1
vc 1 1 1 1
vc 1 1 1 1
vc 1 1 1 1
vc 1 1 1 1
vc 1 1 1 1
vc 1 1 1 1
vc 1 1 1 1
vc 1 1 1 1
vc 1 1 1 1
vc 1 1 1 1
vc 1 1 1 1
vc 1 1 1 1
vc 1 1 1 1
vc 1 1 1 1
vc 1 1 1 1
vc 1 1 1 1
vc 1 1 1 1
vc 1 1 1 1
vc 1 1 1 1
vc 1 1 1 1
vc 1 1 1 1
vc 1 1 1 1
vc 1 1 1 1
vc 1 1 1 1
vc 1 1 1 1
vc 1 1 1 1
vc 1 1 1 1
vc 1 1 1 1
vc 1 1 1 1
vc 1 1 1 1
vc 1 1 1 1
vc 1 1 1 1
vc 1 1 1 1
vc 1 1 1 1
vc 1 1 1 1
vc 1 1 1 1
vc 1 1 1 1
vc 1 1 1 1
vc 1 1 1 1
vc 1 1 1 1
vc 1 1 1 1
vc 1 1 1 1
vc 1 1 1 1
vc 1 1 1 1
vc 1 1 1 1
vc 1 1 1 1
vc 1 1 1 1
vc 1 1 1 1
vc 1 1 1 1
f 1/1/1 2/2/2 3/3/3
f 1/1/1 4/4/4 2/2/2
f 5/5/5 6/6/6 7/7/7
f 5/5/5 8/8/8 6/6/6
f 9/9/9 10/10/10 11/11/11
f 9/9/9 12/12/12 10/10/10
f 13/13/13 14/14/14 15/15/15
f 13/13/13 16/16/16 14/14/14
f 17/17/17 18/18/18 19/19/19
f 17/17/17 20/20/20 18/18/18
f 21/21/21 22/22/22 23/23/23
f 21/21/21 24/24/24 22/22/22
f 25/25/25 26/26/26 27/27/27
f 25/25/25 28/28/28 26/26/26
f 29/29/29 30/30/30 31/31/31
f 29/29/29 32/32/32 30/30/30
f 33/33/33 34/34/34 35/35/35
f 36/36/36 35/35/35 34/34/34
f 36/36/36 34/34/34 37/37/37
f 38/38/38 36/36/36 37/37/37
f 38/38/38 37/37/37 39/39/39
f 40/40/40 38/38/38 39/39/39
f 40/40/40 39/39/39 33/33/33
f 35/35/35 40/40/40 33/33/33
f 41/41/41 42/42/42 43/43/43
f 44/44/44 43/43/43 42/42/42
f 44/44/44 45/45/45 43/43/43
f 46/46/46 45/45/45 44/44/44
f 46/46/46 47/47/47 45/45/45
f 48/48/48 47/47/47 46/46/46
f 48/48/48 41/41/41 47/47/47
f 42/42/42 41/41/41 48/48/48
f 49/49/49 50/50/50 51/51/51
f 49/49/49 52/52/52 50/50/50
f 53/53/53 54/54/54 55/55/55
f 53/53/53 56/56/56 54/54/54
f 57/57/57 58/58/58 59/59/59
f 57/57/57 60/60/60 58/58/58
f 61/61/61 62/62/62 63/63/63
f 61/61/61 64/64/64 62/62/62
f 65/65/65 66/66/66 67/67/67
f 65/65/65 68/68/68 66/66/66
f 69/69/69 70/70/70 71/71/71
f 69/69/69 72/72/72 70/70/70
f 73/73/73 74/74/74 75/75/75
f 73/73/73 76/76/76 74/74/74
f 77/77/77 78/78/78 79/79/79
f 77/77/77 80/80/80 78/78/78
f 81/81/81 82/82/82 83/83/83
f 84/84/84 83/83/83 82/82/82
f 84/84/84 82/82/82 85/85/85
f 86/86/86 84/84/84 85/85/85
f 86/86/86 85/85/85 87/87/87
f 88/88/88 86/86/86 87/87/87
f 88/88/88 87/87/87 81/81/81
f 83/83/83 88/88/88 81/81/81
f 89/89/89 90/90/90 91/91/91
f 92/92/92 91/91/91 90/90/90
f 92/92/92 93/93/93 91/91/91
f 94/94/94 93/93/93 92/92/92
f 94/94/94 95/95/95 93/93/93
f 96/96/96 95/95/95 94/94/94
f 96/96/96 89/89/89 95/95/95
f 90/90/90 89/89/89 96/96/96
f 97/97/97 98/98/98 99/99/99
f 97/97/97 100/100/100 98/98/98
f 101/101/101 102/102/102 103/103/103
f 101/101/101 104/104/104 102/102/102
f 105/105/105 106/106/106 107/107/107
f 105/105/105 108/108/108 106/106/106
f 109/109/109 110/110/110 111/111/111
f 109/109/109 112/112/112 110/110/110
f 113/113/113 114/114/114 115/115/115
f 113/113/113 116/116/116 114/114/114
f 117/117/117 118/118/118 119/119/119
f 117/117/117 120/120/120 118/118/118
f 121/121/121 122/122/122 123/123/123
f 121/121/121 124/124/124 122/122/122
f 125/125/125 126/126/126 127/127/127
f 125/125/125 128/128/128 126/126/126
f 129/129/129 130/130/130 131/131/131
f 132/132/132 131/131/131 130/130/130
f 132/132/132 130/130/130 133/133/133
f 134/134/134 132/132/132 133/133/133
f 134/134/134 133/133/133 135/135/135
f 136/136/136 134/134/134 135/135/135
f 136/136/136 135/135/135 129/129/129
f 131/131/131 136/136/136 129/129/129
f 137/137/137 138/138/138 139/139/139
f 140/140/140 139/139/139 138/138/138
f 140/140/140 141/141/141 139/139/139
f 142/142/142 141/141/141 140/140/140
f 142/142/142 143/143/143 141/141/141
f 144/144/144 143/143/143 142/142/142
f 144/144/144 137/137/137 143/143/143
f 138/138/138 137/137/137 144/144/144

