g Exported Mesh Combined Mesh 
v 28.58807 26.95985 -82.16572
v 27.91311 26.95985 -82.62292
v 27.91311 26.95985 -82.16572
v 28.58807 26.95985 -82.62292
v 28.58807 26.95985 -82.16572
v 28.58807 29.09345 -82.62292
v 28.58807 26.95985 -82.62292
v 28.58807 29.09345 -82.16572
v 28.58807 26.95985 -82.62292
v 27.91311 29.09345 -82.62292
v 27.91311 26.95985 -82.62292
v 28.58807 29.09345 -82.62292
v 27.91311 26.95985 -82.62292
v 27.91311 29.09345 -82.16572
v 27.91311 26.95985 -82.16572
v 27.91311 29.09345 -82.62292
v 27.91311 26.95985 -82.16572
v 28.58807 29.09345 -82.16572
v 28.58807 26.95985 -82.16572
v 27.91311 29.09345 -82.16572
v 29.26786 26.95985 -82.16572
v 28.5929 26.95985 -82.62292
v 28.5929 26.95985 -82.16572
v 29.26786 26.95985 -82.62292
v 29.26786 26.95985 -82.16572
v 29.26786 29.09345 -82.62292
v 29.26786 26.95985 -82.62292
v 29.26786 29.09345 -82.16572
v 29.26786 26.95985 -82.62292
v 28.5929 29.09345 -82.62292
v 28.5929 26.95985 -82.62292
v 29.26786 29.09345 -82.62292
v 28.5929 26.95985 -82.62292
v 28.5929 29.09345 -82.16572
v 28.5929 26.95985 -82.16572
v 28.5929 29.09345 -82.62292
v 28.5929 26.95985 -82.16572
v 29.26786 29.09345 -82.16572
v 29.26786 26.95985 -82.16572
v 28.5929 29.09345 -82.16572
v 29.94687 26.95985 -82.16572
v 29.27191 26.95985 -82.62292
v 29.27191 26.95985 -82.16572
v 29.94687 26.95985 -82.62292
v 29.94687 26.95985 -82.16572
v 29.94687 29.09345 -82.62292
v 29.94687 26.95985 -82.62292
v 29.94687 29.09345 -82.16572
v 29.94687 26.95985 -82.62292
v 29.27191 29.09345 -82.62292
v 29.27191 26.95985 -82.62292
v 29.94687 29.09345 -82.62292
v 29.27191 26.95985 -82.62292
v 29.27191 29.09345 -82.16572
v 29.27191 26.95985 -82.16572
v 29.27191 29.09345 -82.62292
v 29.27191 26.95985 -82.16572
v 29.94687 29.09345 -82.16572
v 29.94687 26.95985 -82.16572
v 29.27191 29.09345 -82.16572
v 30.62666 26.95985 -82.16572
v 29.95169 26.95985 -82.62292
v 29.95169 26.95985 -82.16572
v 30.62666 26.95985 -82.62292
v 30.62666 26.95985 -82.62292
v 29.95169 29.09345 -82.62292
v 29.95169 26.95985 -82.62292
v 30.62666 29.09345 -82.62292
v 29.95169 26.95985 -82.62292
v 29.95169 29.09345 -82.16572
v 29.95169 26.95985 -82.16572
v 29.95169 29.09345 -82.62292
v 29.95169 26.95985 -82.16572
v 30.62666 29.09345 -82.16572
v 30.62666 26.95985 -82.16572
v 29.95169 29.09345 -82.16572
v 28.58807 29.09345 -82.16572
v 27.91311 29.09345 -82.62292
v 28.58807 29.09345 -82.62292
v 27.91311 29.09345 -82.16572
v 29.26786 29.09345 -82.16572
v 28.5929 29.09345 -82.62292
v 29.26786 29.09345 -82.62292
v 28.5929 29.09345 -82.16572
v 29.94687 29.09345 -82.16572
v 29.27191 29.09345 -82.62292
v 29.94687 29.09345 -82.62292
v 29.27191 29.09345 -82.16572
v 30.62666 29.09345 -82.16572
v 29.95169 29.09345 -82.62292
v 30.62666 29.09345 -82.62292
v 29.95169 29.09345 -82.16572
v 30.62666 26.95985 -82.16572
v 30.62666 29.09345 -82.62292
v 30.62666 26.95985 -82.62292
v 30.62666 29.09345 -82.16572
v 38.85917 26.95985 -88.52548
v 38.00102 26.95985 -88.98268
v 38.00102 26.95985 -88.52548
v 38.85917 26.95985 -88.98268
v 38.85917 26.95985 -88.52548
v 38.85917 29.09345 -88.98268
v 38.85917 26.95985 -88.98268
v 38.85917 29.09345 -88.52548
v 38.85917 26.95985 -88.98268
v 38.00102 29.09345 -88.98268
v 38.00102 26.95985 -88.98268
v 38.85917 29.09345 -88.98268
v 38.00102 26.95985 -88.98268
v 38.00102 29.09345 -88.52548
v 38.00102 26.95985 -88.52548
v 38.00102 29.09345 -88.98268
v 38.00102 26.95985 -88.52548
v 38.85917 29.09345 -88.52548
v 38.85917 26.95985 -88.52548
v 38.00102 29.09345 -88.52548
v 39.72346 26.95985 -88.52548
v 38.86531 26.95985 -88.98268
v 38.86531 26.95985 -88.52548
v 39.72346 26.95985 -88.98268
v 39.72346 26.95985 -88.52548
v 39.72346 29.09345 -88.98268
v 39.72346 26.95985 -88.98268
v 39.72346 29.09345 -88.52548
v 39.72346 26.95985 -88.98268
v 38.86531 29.09345 -88.98268
v 38.86531 26.95985 -88.98268
v 39.72346 29.09345 -88.98268
v 38.86531 26.95985 -88.98268
v 38.86531 29.09345 -88.52548
v 38.86531 26.95985 -88.52548
v 38.86531 29.09345 -88.98268
v 38.86531 26.95985 -88.52548
v 39.72346 29.09345 -88.52548
v 39.72346 26.95985 -88.52548
v 38.86531 29.09345 -88.52548
v 38.85917 29.09345 -88.52548
v 38.00102 29.09345 -88.98268
v 38.85917 29.09345 -88.98268
v 38.00102 29.09345 -88.52548
v 39.72346 29.09345 -88.52548
v 38.86531 29.09345 -88.98268
v 39.72346 29.09345 -88.98268
v 38.86531 29.09345 -88.52548

vn 0 -1 1.192093E-07
vn 0 -1 1.192093E-07
vn 0 -1 1.192093E-07
vn 0 -1 1.192093E-07
vn 1 -1.421085E-14 -1.192093E-07
vn 1 -1.421085E-14 -1.192093E-07
vn 1 -1.421085E-14 -1.192093E-07
vn 1 -1.421085E-14 -1.192093E-07
vn -2.605027E-07 -1.192093E-07 -1
vn -2.605027E-07 -1.192093E-07 -1
vn -2.605027E-07 -1.192093E-07 -1
vn -2.605027E-07 -1.192093E-07 -1
vn -1 1.421085E-14 1.192093E-07
vn -1 1.421085E-14 1.192093E-07
vn -1 1.421085E-14 1.192093E-07
vn -1 1.421085E-14 1.192093E-07
vn 2.605027E-07 1.192093E-07 1
vn 2.605027E-07 1.192093E-07 1
vn 2.605027E-07 1.192093E-07 1
vn 2.605027E-07 1.192093E-07 1
vn 0 -1 1.192093E-07
vn 0 -1 1.192093E-07
vn 0 -1 1.192093E-07
vn 0 -1 1.192093E-07
vn 1 -1.421085E-14 -1.192093E-07
vn 1 -1.421085E-14 -1.192093E-07
vn 1 -1.421085E-14 -1.192093E-07
vn 1 -1.421085E-14 -1.192093E-07
vn -2.605027E-07 -1.192093E-07 -1
vn -2.605027E-07 -1.192093E-07 -1
vn -2.605027E-07 -1.192093E-07 -1
vn -2.605027E-07 -1.192093E-07 -1
vn -1 1.421085E-14 1.192093E-07
vn -1 1.421085E-14 1.192093E-07
vn -1 1.421085E-14 1.192093E-07
vn -1 1.421085E-14 1.192093E-07
vn 2.605027E-07 1.192093E-07 1
vn 2.605027E-07 1.192093E-07 1
vn 2.605027E-07 1.192093E-07 1
vn 2.605027E-07 1.192093E-07 1
vn 0 -1 1.192093E-07
vn 0 -1 1.192093E-07
vn 0 -1 1.192093E-07
vn 0 -1 1.192093E-07
vn 1 -1.421085E-14 -1.192093E-07
vn 1 -1.421085E-14 -1.192093E-07
vn 1 -1.421085E-14 -1.192093E-07
vn 1 -1.421085E-14 -1.192093E-07
vn -2.605027E-07 -1.192093E-07 -1
vn -2.605027E-07 -1.192093E-07 -1
vn -2.605027E-07 -1.192093E-07 -1
vn -2.605027E-07 -1.192093E-07 -1
vn -1 1.421085E-14 1.192093E-07
vn -1 1.421085E-14 1.192093E-07
vn -1 1.421085E-14 1.192093E-07
vn -1 1.421085E-14 1.192093E-07
vn 2.605027E-07 1.192093E-07 1
vn 2.605027E-07 1.192093E-07 1
vn 2.605027E-07 1.192093E-07 1
vn 2.605027E-07 1.192093E-07 1
vn 0 -1 1.192093E-07
vn 0 -1 1.192093E-07
vn 0 -1 1.192093E-07
vn 0 -1 1.192093E-07
vn -2.605027E-07 -1.192093E-07 -1
vn -2.605027E-07 -1.192093E-07 -1
vn -2.605027E-07 -1.192093E-07 -1
vn -2.605027E-07 -1.192093E-07 -1
vn -1 1.421085E-14 1.192093E-07
vn -1 1.421085E-14 1.192093E-07
vn -1 1.421085E-14 1.192093E-07
vn -1 1.421085E-14 1.192093E-07
vn 2.605027E-07 1.192093E-07 1
vn 2.605027E-07 1.192093E-07 1
vn 2.605027E-07 1.192093E-07 1
vn 2.605027E-07 1.192093E-07 1
vn 0 1 -1.192093E-07
vn 0 1 -1.192093E-07
vn 0 1 -1.192093E-07
vn 0 1 -1.192093E-07
vn 0 1 -1.192093E-07
vn 0 1 -1.192093E-07
vn 0 1 -1.192093E-07
vn 0 1 -1.192093E-07
vn 0 1 -1.192093E-07
vn 0 1 -1.192093E-07
vn 0 1 -1.192093E-07
vn 0 1 -1.192093E-07
vn 0 1 -1.192093E-07
vn 0 1 -1.192093E-07
vn 0 1 -1.192093E-07
vn 0 1 -1.192093E-07
vn 1 -1.421085E-14 -1.192093E-07
vn 1 -1.421085E-14 -1.192093E-07
vn 1 -1.421085E-14 -1.192093E-07
vn 1 -1.421085E-14 -1.192093E-07
vn 0 -1 1.192093E-07
vn 0 -1 1.192093E-07
vn 0 -1 1.192093E-07
vn 0 -1 1.192093E-07
vn 1 -1.421085E-14 -1.192093E-07
vn 1 -1.421085E-14 -1.192093E-07
vn 1 -1.421085E-14 -1.192093E-07
vn 1 -1.421085E-14 -1.192093E-07
vn -2.303408E-07 -1.192093E-07 -1
vn -2.303408E-07 -1.192093E-07 -1
vn -2.303408E-07 -1.192093E-07 -1
vn -2.303408E-07 -1.192093E-07 -1
vn -1 1.421085E-14 1.192093E-07
vn -1 1.421085E-14 1.192093E-07
vn -1 1.421085E-14 1.192093E-07
vn -1 1.421085E-14 1.192093E-07
vn 2.303408E-07 1.192093E-07 1
vn 2.303408E-07 1.192093E-07 1
vn 2.303408E-07 1.192093E-07 1
vn 2.303408E-07 1.192093E-07 1
vn 0 -1 1.192093E-07
vn 0 -1 1.192093E-07
vn 0 -1 1.192093E-07
vn 0 -1 1.192093E-07
vn 1 -1.421085E-14 -1.192093E-07
vn 1 -1.421085E-14 -1.192093E-07
vn 1 -1.421085E-14 -1.192093E-07
vn 1 -1.421085E-14 -1.192093E-07
vn -2.303408E-07 -1.192093E-07 -1
vn -2.303408E-07 -1.192093E-07 -1
vn -2.303408E-07 -1.192093E-07 -1
vn -2.303408E-07 -1.192093E-07 -1
vn -1 1.421085E-14 1.192093E-07
vn -1 1.421085E-14 1.192093E-07
vn -1 1.421085E-14 1.192093E-07
vn -1 1.421085E-14 1.192093E-07
vn 2.303408E-07 1.192093E-07 1
vn 2.303408E-07 1.192093E-07 1
vn 2.303408E-07 1.192093E-07 1
vn 2.303408E-07 1.192093E-07 1
vn 0 1 -1.192093E-07
vn 0 1 -1.192093E-07
vn 0 1 -1.192093E-07
vn 0 1 -1.192093E-07
vn 0 1 -1.192093E-07
vn 0 1 -1.192093E-07
vn 0 1 -1.192093E-07
vn 0 1 -1.192093E-07

vt 0.999499 0.7510115
vt 0.0004994869 0.9995005
vt 0.9994988 0.9995005
vt 0.0004997253 0.7510115
vt 0.0005010068 0.0004995167
vt 0.9995003 0.9995005
vt 0.9995003 0.0004995167
vt 0.0005010068 0.9995005
vt 0.7510115 0.0004995167
vt 0.9995005 0.9995005
vt 0.9995005 0.0004995167
vt 0.7510115 0.9995005
vt 0.0004994869 0.0004995167
vt 0.9994988 0.9995005
vt 0.9994988 0.0004995167
vt 0.0004994869 0.9995005
vt 0.0004995465 0.0004995167
vt 0.2489885 0.9995005
vt 0.2489885 0.0004995167
vt 0.0004995465 0.9995005
vt 0.9994994 0.5007458
vt 0.0004999638 0.7492347
vt 0.9994993 0.7492348
vt 0.0005002022 0.5007458
vt 0.00050053 0.0004995167
vt 0.9994998 0.9995005
vt 0.9994998 0.0004995167
vt 0.00050053 0.9995005
vt 0.5007458 0.0004995167
vt 0.7492347 0.9995005
vt 0.7492347 0.0004995167
vt 0.5007458 0.9995005
vt 0.0004999638 0.0004995167
vt 0.9994993 0.9995005
vt 0.9994993 0.0004995167
vt 0.0004999638 0.9995005
vt 0.2507652 0.0004995167
vt 0.4992542 0.9995005
vt 0.4992542 0.0004995167
vt 0.2507652 0.9995005
vt 0.9995 0.2507653
vt 0.0005005002 0.4992543
vt 0.9994998 0.4992543
vt 0.000500679 0.2507653
vt 0.0005000234 0.0004995167
vt 0.9994993 0.9995005
vt 0.9994993 0.0004995167
vt 0.0005000234 0.9995005
vt 0.2507653 0.0004995167
vt 0.4992543 0.9995005
vt 0.4992543 0.0004995167
vt 0.2507653 0.9995005
vt 0.0005005002 0.0004995167
vt 0.9994998 0.9995005
vt 0.9994998 0.0004995167
vt 0.0005005002 0.9995005
vt 0.5007457 0.0004995167
vt 0.7492347 0.9995005
vt 0.7492347 0.0004995167
vt 0.5007457 0.9995005
vt 0.9995005 0.0004995763
vt 0.0005010366 0.2489885
vt 0.9995003 0.2489885
vt 0.0005012155 0.0004995167
vt 0.0004995167 0.0004995167
vt 0.2489885 0.9995005
vt 0.2489885 0.0004995167
vt 0.0004995167 0.9995005
vt 0.0005010366 0.0004995167
vt 0.9995003 0.9995005
vt 0.9995003 0.0004995167
vt 0.0005010366 0.9995005
vt 0.7510115 0.0004995167
vt 0.9995004 0.9995005
vt 0.9995004 0.0004995167
vt 0.7510115 0.9995005
vt 0.0005010068 0.7510115
vt 0.9995005 0.9995005
vt 0.9995003 0.7510115
vt 0.0005012155 0.9995005
vt 0.00050053 0.5007458
vt 0.9995 0.7492347
vt 0.9994998 0.5007458
vt 0.0005007386 0.7492348
vt 0.0005000234 0.2507653
vt 0.9994995 0.4992543
vt 0.9994993 0.2507653
vt 0.000500232 0.4992543
vt 0.0004995167 0.0004995763
vt 0.999499 0.2489885
vt 0.9994988 0.0004995167
vt 0.0004997253 0.2489885
vt 0.0004995167 0.0004995167
vt 0.9994988 0.9995005
vt 0.9994988 0.0004995167
vt 0.0004995167 0.9995005
vt 0.9995 0.5017795
vt 0.0004994869 0.9995005
vt 0.9994998 0.9995005
vt 0.0004997253 0.5017794
vt 0.0004999936 0.0004995167
vt 0.9995003 0.9995005
vt 0.9995003 0.0004995167
vt 0.0004999936 0.9995005
vt 0.5017794 0.0004995167
vt 0.9995005 0.9995005
vt 0.9995005 0.0004995167
vt 0.5017794 0.9995005
vt 0.0004994869 0.0004995167
vt 0.9994998 0.9995005
vt 0.9994998 0.0004995167
vt 0.0004994869 0.9995005
vt 0.0004994869 0.0004995167
vt 0.4982205 0.9995005
vt 0.4982205 0.0004995167
vt 0.0004994869 0.9995005
vt 0.9995005 0.0004996061
vt 0.0004999638 0.4982206
vt 0.9995003 0.4982207
vt 0.0005002022 0.0004995465
vt 0.0004994869 0.0004995167
vt 0.9994998 0.9995005
vt 0.9994998 0.0004995167
vt 0.0004994869 0.9995005
vt 0.0004995465 0.0004995167
vt 0.4982206 0.9995005
vt 0.4982206 0.0004995167
vt 0.0004995465 0.9995005
vt 0.0004999638 0.0004995167
vt 0.9995003 0.9995005
vt 0.9995003 0.0004995167
vt 0.0004999638 0.9995005
vt 0.5017793 0.0004995167
vt 0.9995004 0.9995005
vt 0.9995004 0.0004995167
vt 0.5017793 0.9995005
vt 0.0004999936 0.5017795
vt 0.9995005 0.9995005
vt 0.9995003 0.5017794
vt 0.0005002022 0.9995005
vt 0.0004994869 0.0004996061
vt 0.9995 0.4982206
vt 0.9994998 0.0004995465
vt 0.0004996955 0.4982207

vt1 0 0
vt1 0 0
vt1 0 0
vt1 0 0
vt1 0 0
vt1 0 0
vt1 0 0
vt1 0 0
vt1 0 0
vt1 0 0
vt1 0 0
vt1 0 0
vt1 0 0
vt1 0 0
vt1 0 0
vt1 0 0
vt1 0 0
vt1 0 0
vt1 0 0
vt1 0 0
vt1 0 0
vt1 0 0
vt1 0 0
vt1 0 0
vt1 0 0
vt1 0 0
vt1 0 0
vt1 0 0
vt1 0 0
vt1 0 0
vt1 0 0
vt1 0 0
vt1 0 0
vt1 0 0
vt1 0 0
vt1 0 0
vt1 0 0
vt1 0 0
vt1 0 0
vt1 0 0
vt1 0 0
vt1 0 0
vt1 0 0
vt1 0 0
vt1 0 0
vt1 0 0
vt1 0 0
vt1 0 0
vt1 0 0
vt1 0 0
vt1 0 0
vt1 0 0
vt1 0 0
vt1 0 0
vt1 0 0
vt1 0 0
vt1 0 0
vt1 0 0
vt1 0 0
vt1 0 0
vt1 0 0
vt1 0 0
vt1 0 0
vt1 0 0
vt1 0 0
vt1 0 0
vt1 0 0
vt1 0 0
vt1 0 0
vt1 0 0
vt1 0 0
vt1 0 0
vt1 0 0
vt1 0 0
vt1 0 0
vt1 0 0
vt1 0 0
vt1 0 0
vt1 0 0
vt1 0 0
vt1 0 0
vt1 0 0
vt1 0 0
vt1 0 0
vt1 0 0
vt1 0 0
vt1 0 0
vt1 0 0
vt1 0 0
vt1 0 0
vt1 0 0
vt1 0 0
vt1 0 0
vt1 0 0
vt1 0 0
vt1 0 0
vt1 0 0
vt1 0 0
vt1 0 0
vt1 0 0
vt1 0 0
vt1 0 0
vt1 0 0
vt1 0 0
vt1 0 0
vt1 0 0
vt1 0 0
vt1 0 0
vt1 0 0
vt1 0 0
vt1 0 0
vt1 0 0
vt1 0 0
vt1 0 0
vt1 0 0
vt1 0 0
vt1 0 0
vt1 0 0
vt1 0 0
vt1 0 0
vt1 0 0
vt1 0 0
vt1 0 0
vt1 0 0
vt1 0 0
vt1 0 0
vt1 0 0
vt1 0 0
vt1 0 0
vt1 0 0
vt1 0 0
vt1 0 0
vt1 0 0
vt1 0 0
vt1 0 0
vt1 0 0
vt1 0 0
vt1 0 0
vt1 0 0
vt1 0 0
vt1 0 0
vt1 0 0
vt1 0 0
vt1 0 0

vt2 0 0
vt2 0 0
vt2 0 0
vt2 0 0
vt2 0 0
vt2 0 0
vt2 0 0
vt2 0 0
vt2 0 0
vt2 0 0
vt2 0 0
vt2 0 0
vt2 0 0
vt2 0 0
vt2 0 0
vt2 0 0
vt2 0 0
vt2 0 0
vt2 0 0
vt2 0 0
vt2 0 0
vt2 0 0
vt2 0 0
vt2 0 0
vt2 0 0
vt2 0 0
vt2 0 0
vt2 0 0
vt2 0 0
vt2 0 0
vt2 0 0
vt2 0 0
vt2 0 0
vt2 0 0
vt2 0 0
vt2 0 0
vt2 0 0
vt2 0 0
vt2 0 0
vt2 0 0
vt2 0 0
vt2 0 0
vt2 0 0
vt2 0 0
vt2 0 0
vt2 0 0
vt2 0 0
vt2 0 0
vt2 0 0
vt2 0 0
vt2 0 0
vt2 0 0
vt2 0 0
vt2 0 0
vt2 0 0
vt2 0 0
vt2 0 0
vt2 0 0
vt2 0 0
vt2 0 0
vt2 0 0
vt2 0 0
vt2 0 0
vt2 0 0
vt2 0 0
vt2 0 0
vt2 0 0
vt2 0 0
vt2 0 0
vt2 0 0
vt2 0 0
vt2 0 0
vt2 0 0
vt2 0 0
vt2 0 0
vt2 0 0
vt2 0 0
vt2 0 0
vt2 0 0
vt2 0 0
vt2 0 0
vt2 0 0
vt2 0 0
vt2 0 0
vt2 0 0
vt2 0 0
vt2 0 0
vt2 0 0
vt2 0 0
vt2 0 0
vt2 0 0
vt2 0 0
vt2 0 0
vt2 0 0
vt2 0 0
vt2 0 0
vt2 0 0
vt2 0 0
vt2 0 0
vt2 0 0
vt2 0 0
vt2 0 0
vt2 0 0
vt2 0 0
vt2 0 0
vt2 0 0
vt2 0 0
vt2 0 0
vt2 0 0
vt2 0 0
vt2 0 0
vt2 0 0
vt2 0 0
vt2 0 0
vt2 0 0
vt2 0 0
vt2 0 0
vt2 0 0
vt2 0 0
vt2 0 0
vt2 0 0
vt2 0 0
vt2 0 0
vt2 0 0
vt2 0 0
vt2 0 0
vt2 0 0
vt2 0 0
vt2 0 0
vt2 0 0
vt2 0 0
vt2 0 0
vt2 0 0
vt2 0 0
vt2 0 0
vt2 0 0
vt2 0 0
vt2 0 0
vt2 0 0
vt2 0 0
vt2 0 0
vt2 0 0
vt2 0 0
vt2 0 0

vc 1 1 1 1
vc 1 1 1 1
vc 1 1 1 1
vc 1 1 1 1
vc 1 1 1 1
vc 1 1 1 1
vc 1 1 1 1
vc 1 1 1 1
vc 1 1 1 1
vc 1 1 1 1
vc 1 1 1 1
vc 1 1 1 1
vc 1 1 1 1
vc 1 1 1 1
vc 1 1 1 1
vc 1 1 1 1
vc 1 1 1 1
vc 1 1 1 1
vc 1 1 1 1
vc 1 1 1 1
vc 1 1 1 1
vc 1 1 1 1
vc 1 1 1 1
vc 1 1 1 1
vc 1 1 1 1
vc 1 1 1 1
vc 1 1 1 1
vc 1 1 1 1
vc 1 1 1 1
vc 1 1 1 1
vc 1 1 1 1
vc 1 1 1 1
vc 1 1 1 1
vc 1 1 1 1
vc 1 1 1 1
vc 1 1 1 1
vc 1 1 1 1
vc 1 1 1 1
vc 1 1 1 1
vc 1 1 1 1
vc 1 1 1 1
vc 1 1 1 1
vc 1 1 1 1
vc 1 1 1 1
vc 1 1 1 1
vc 1 1 1 1
vc 1 1 1 1
vc 1 1 1 1
vc 1 1 1 1
vc 1 1 1 1
vc 1 1 1 1
vc 1 1 1 1
vc 1 1 1 1
vc 1 1 1 1
vc 1 1 1 1
vc 1 1 1 1
vc 1 1 1 1
vc 1 1 1 1
vc 1 1 1 1
vc 1 1 1 1
vc 1 1 1 1
vc 1 1 1 1
vc 1 1 1 1
vc 1 1 1 1
vc 1 1 1 1
vc 1 1 1 1
vc 1 1 1 1
vc 1 1 1 1
vc 1 1 1 1
vc 1 1 1 1
vc 1 1 1 1
vc 1 1 1 1
vc 1 1 1 1
vc 1 1 1 1
vc 1 1 1 1
vc 1 1 1 1
vc 1 1 1 1
vc 1 1 1 1
vc 1 1 1 1
vc 1 1 1 1
vc 1 1 1 1
vc 1 1 1 1
vc 1 1 1 1
vc 1 1 1 1
vc 1 1 1 1
vc 1 1 1 1
vc 1 1 1 1
vc 1 1 1 1
vc 1 1 1 1
vc 1 1 1 1
vc 1 1 1 1
vc 1 1 1 1
vc 1 1 1 1
vc 1 1 1 1
vc 1 1 1 1
vc 1 1 1 1
vc 1 1 1 1
vc 1 1 1 1
vc 1 1 1 1
vc 1 1 1 1
vc 1 1 1 1
vc 1 1 1 1
vc 1 1 1 1
vc 1 1 1 1
vc 1 1 1 1
vc 1 1 1 1
vc 1 1 1 1
vc 1 1 1 1
vc 1 1 1 1
vc 1 1 1 1
vc 1 1 1 1
vc 1 1 1 1
vc 1 1 1 1
vc 1 1 1 1
vc 1 1 1 1
vc 1 1 1 1
vc 1 1 1 1
vc 1 1 1 1
vc 1 1 1 1
vc 1 1 1 1
vc 1 1 1 1
vc 1 1 1 1
vc 1 1 1 1
vc 1 1 1 1
vc 1 1 1 1
vc 1 1 1 1
vc 1 1 1 1
vc 1 1 1 1
vc 1 1 1 1
vc 1 1 1 1
vc 1 1 1 1
vc 1 1 1 1
vc 1 1 1 1
vc 1 1 1 1
vc 1 1 1 1
vc 1 1 1 1
vc 1 1 1 1
vc 1 1 1 1
vc 1 1 1 1
vc 1 1 1 1
vc 1 1 1 1
vc 1 1 1 1
vc 1 1 1 1
vc 1 1 1 1
f 77/77/77 79/79/79 78/78/78
f 77/77/77 78/78/78 80/80/80
f 81/81/81 83/83/83 82/82/82
f 81/81/81 82/82/82 84/84/84
f 85/85/85 87/87/87 86/86/86
f 85/85/85 86/86/86 88/88/88
f 89/89/89 91/91/91 90/90/90
f 89/89/89 90/90/90 92/92/92
f 93/93/93 95/95/95 94/94/94
f 93/93/93 94/94/94 96/96/96
f 137/137/137 139/139/139 138/138/138
f 137/137/137 138/138/138 140/140/140
f 141/141/141 143/143/143 142/142/142
f 141/141/141 142/142/142 144/144/144

