g Exported Mesh Combined Mesh 
v 38.1272 27.04026 -81.2484
v 38.1272 27.80226 -78.29362
v 38.1272 27.04026 -78.29362
v 38.1272 27.80226 -81.2484
v 38.1272 27.04026 -78.29362
v 41.53642 27.80226 -78.29362
v 41.53642 27.04026 -78.29362
v 38.1272 27.80226 -78.29362
v 41.53642 27.04026 -78.29362
v 41.53642 27.80226 -80.22551
v 41.53642 27.04026 -80.22551
v 41.53642 27.80226 -78.29362
v 41.53642 27.04026 -80.22551
v 40.87642 27.80226 -80.22551
v 40.87642 27.04026 -80.22551
v 41.53642 27.80226 -80.22551
v 38.7872 27.04026 -81.2484
v 38.1272 27.80226 -81.2484
v 38.1272 27.04026 -81.2484
v 38.7872 27.80226 -81.2484
v 40.87642 27.04026 -80.22551
v 40.87643 27.80226 -78.95362
v 40.87643 27.04026 -78.95362
v 40.87642 27.80226 -80.22551
v 40.87643 27.04026 -78.95362
v 38.7872 27.80226 -78.95362
v 38.7872 27.04026 -78.95362
v 40.87643 27.80226 -78.95362
v 38.7872 27.04026 -78.95362
v 38.7872 27.80226 -81.2484
v 38.7872 27.04026 -81.2484
v 38.7872 27.80226 -78.95362
v 41.53642 27.04026 -78.29362
v 41.53642 27.04026 -80.22551
v 40.87643 27.04026 -78.95362
v 38.1272 27.04026 -78.29362
v 38.7872 27.04026 -78.95362
v 38.1272 27.04026 -81.2484
v 38.7872 27.04026 -81.2484
v 40.87642 27.04026 -80.22551
v 38.1272 29.05404 -81.2484
v 38.1272 29.81604 -78.29362
v 38.1272 29.05404 -78.29362
v 38.1272 29.81604 -81.2484
v 38.1272 29.05404 -78.29362
v 41.53642 29.81604 -78.29362
v 41.53642 29.05404 -78.29362
v 38.1272 29.81604 -78.29362
v 41.53642 29.05404 -78.29362
v 41.53642 29.81604 -80.22551
v 41.53642 29.05404 -80.22551
v 41.53642 29.81604 -78.29362
v 40.87642 29.81604 -80.22551
v 41.53642 29.81604 -80.22551
v 41.53642 29.81604 -78.29362
v 40.87643 29.81604 -78.95362
v 38.1272 29.81604 -78.29362
v 38.7872 29.81604 -78.95362
v 38.1272 29.81604 -81.2484
v 38.7872 29.81604 -81.2484
v 41.53642 29.05404 -80.22551
v 40.87642 29.81604 -80.22551
v 40.87642 29.05404 -80.22551
v 41.53642 29.81604 -80.22551
v 38.7872 29.05404 -81.2484
v 38.1272 29.81604 -81.2484
v 38.1272 29.05404 -81.2484
v 38.7872 29.81604 -81.2484
v 40.87642 29.05404 -80.22551
v 40.87643 29.81604 -78.95362
v 40.87643 29.05404 -78.95362
v 40.87642 29.81604 -80.22551
v 40.87643 29.05404 -78.95362
v 38.7872 29.81604 -78.95362
v 38.7872 29.05404 -78.95362
v 40.87643 29.81604 -78.95362
v 38.7872 29.05404 -78.95362
v 38.7872 29.81604 -81.2484
v 38.7872 29.05404 -81.2484
v 38.7872 29.81604 -78.95362
v 41.53642 29.05404 -78.29362
v 41.53642 29.05404 -80.22551
v 40.87643 29.05404 -78.95362
v 38.1272 29.05404 -78.29362
v 38.7872 29.05404 -78.95362
v 38.1272 29.05404 -81.2484
v 38.7872 29.05404 -81.2484
v 40.87642 29.05404 -80.22551

vn -1 0 0
vn -1 0 0
vn -1 0 0
vn -1 0 0
vn 0 1.192093E-07 1
vn 0 1.192093E-07 1
vn 0 1.192093E-07 1
vn 0 1.192093E-07 1
vn 1 0 0
vn 1 0 0
vn 1 0 0
vn 1 0 0
vn 0 -1.192093E-07 -1
vn 0 -1.192093E-07 -1
vn 0 -1.192093E-07 -1
vn 0 -1.192093E-07 -1
vn 0 -1.192093E-07 -1
vn 0 -1.192093E-07 -1
vn 0 -1.192093E-07 -1
vn 0 -1.192093E-07 -1
vn -1 4.862511E-13 4.078971E-06
vn -1 4.862511E-13 4.078971E-06
vn -1 4.862511E-13 4.078971E-06
vn -1 4.862511E-13 4.078971E-06
vn 8.399074E-07 -1.192093E-07 -1
vn 8.399074E-07 -1.192093E-07 -1
vn 8.399074E-07 -1.192093E-07 -1
vn 8.399074E-07 -1.192093E-07 -1
vn 1 2.695062E-13 2.260782E-06
vn 1 2.695062E-13 2.260782E-06
vn 1 2.695062E-13 2.260782E-06
vn 1 2.695062E-13 2.260782E-06
vn 0 -1 1.192093E-07
vn 0 -1 1.192093E-07
vn 0 -1 1.192093E-07
vn 0 -1 1.192093E-07
vn 0 -1 1.192093E-07
vn 0 -1 1.192093E-07
vn 0 -1 1.192093E-07
vn 0 -1 1.192093E-07
vn -1 0 0
vn -1 0 0
vn -1 0 0
vn -1 0 0
vn 0 1.192093E-07 1
vn 0 1.192093E-07 1
vn 0 1.192093E-07 1
vn 0 1.192093E-07 1
vn 1 0 0
vn 1 0 0
vn 1 0 0
vn 1 0 0
vn 0 1 -1.192093E-07
vn 0 1 -1.192093E-07
vn 0 1 -1.192093E-07
vn 0 1 -1.192093E-07
vn 0 1 -1.192093E-07
vn 0 1 -1.192093E-07
vn 0 1 -1.192093E-07
vn 0 1 -1.192093E-07
vn 0 -1.192093E-07 -1
vn 0 -1.192093E-07 -1
vn 0 -1.192093E-07 -1
vn 0 -1.192093E-07 -1
vn 0 -1.192093E-07 -1
vn 0 -1.192093E-07 -1
vn 0 -1.192093E-07 -1
vn 0 -1.192093E-07 -1
vn -1 4.862511E-13 4.078971E-06
vn -1 4.862511E-13 4.078971E-06
vn -1 4.862511E-13 4.078971E-06
vn -1 4.862511E-13 4.078971E-06
vn 8.399074E-07 -1.192093E-07 -1
vn 8.399074E-07 -1.192093E-07 -1
vn 8.399074E-07 -1.192093E-07 -1
vn 8.399074E-07 -1.192093E-07 -1
vn 1 2.695062E-13 2.260782E-06
vn 1 2.695062E-13 2.260782E-06
vn 1 2.695062E-13 2.260782E-06
vn 1 2.695062E-13 2.260782E-06
vn 0 -1 1.192093E-07
vn 0 -1 1.192093E-07
vn 0 -1 1.192093E-07
vn 0 -1 1.192093E-07
vn 0 -1 1.192093E-07
vn 0 -1 1.192093E-07
vn 0 -1 1.192093E-07
vn 0 -1 1.192093E-07

vt -2.349939 0.0004995167
vt 4.413801 0.9995005
vt 4.413801 0.0004995167
vt -2.349939 0.9995005
vt -3.603523 0.0004995167
vt 4.603522 0.9995005
vt 4.603522 0.0004995167
vt -3.603523 0.9995005
vt -3.413803 0.0004995167
vt 1.008451 0.9995005
vt 1.008451 0.0004995167
vt -3.413803 0.9995005
vt -3.603523 0.0004995167
vt -2.0147 0.9995005
vt -2.0147 0.0004995167
vt -3.603523 0.9995005
vt 3.014698 0.0004995167
vt 4.603521 0.9995005
vt 4.603521 0.0004995167
vt 3.014698 0.9995005
vt -0.008450747 0.0004995167
vt 2.903008 0.9995005
vt 2.903008 0.0004995167
vt -0.008450747 0.9995005
vt -2.014712 0.0004995167
vt 3.014712 0.9995005
vt 3.014712 0.0004995167
vt -2.014712 0.9995005
vt -1.903003 0.0004995167
vt 3.349939 0.9995005
vt 3.349939 0.0004995167
vt -1.903003 0.9995005
vt -3.603522 -3.413803
vt -3.603523 1.008451
vt -2.014712 -1.903008
vt 4.603523 -3.413801
vt 3.014712 -1.903003
vt 4.603521 3.349939
vt 3.014698 3.349939
vt -2.0147 1.008451
vt -2.349939 0.0004995167
vt 4.413801 0.9995005
vt 4.413801 0.0004995167
vt -2.349939 0.9995005
vt -3.603523 0.0004995167
vt 4.603522 0.9995005
vt 4.603522 0.0004995167
vt -3.603523 0.9995005
vt -3.413803 0.0004995167
vt 1.008451 0.9995005
vt 1.008451 0.0004995167
vt -3.413803 0.9995005
vt 3.0147 1.008451
vt 4.603523 1.008451
vt 4.603522 -3.413803
vt 3.014712 -1.903008
vt -3.603523 -3.413801
vt -2.014712 -1.903003
vt -3.603521 3.349939
vt -2.014698 3.349939
vt -3.603523 0.0004995167
vt -2.0147 0.9995005
vt -2.0147 0.0004995167
vt -3.603523 0.9995005
vt 3.014698 0.0004995167
vt 4.603521 0.9995005
vt 4.603521 0.0004995167
vt 3.014698 0.9995005
vt -0.008450747 0.0004995167
vt 2.903008 0.9995005
vt 2.903008 0.0004995167
vt -0.008450747 0.9995005
vt -2.014712 0.0004995167
vt 3.014712 0.9995005
vt 3.014712 0.0004995167
vt -2.014712 0.9995005
vt -1.903003 0.0004995167
vt 3.349939 0.9995005
vt 3.349939 0.0004995167
vt -1.903003 0.9995005
vt -3.603522 -3.413803
vt -3.603523 1.008451
vt -2.014712 -1.903008
vt 4.603523 -3.413801
vt 3.014712 -1.903003
vt 4.603521 3.349939
vt 3.014698 3.349939
vt -2.0147 1.008451

vt1 0 0
vt1 0 0
vt1 0 0
vt1 0 0
vt1 0 0
vt1 0 0
vt1 0 0
vt1 0 0
vt1 0 0
vt1 0 0
vt1 0 0
vt1 0 0
vt1 0 0
vt1 0 0
vt1 0 0
vt1 0 0
vt1 0 0
vt1 0 0
vt1 0 0
vt1 0 0
vt1 0 0
vt1 0 0
vt1 0 0
vt1 0 0
vt1 0 0
vt1 0 0
vt1 0 0
vt1 0 0
vt1 0 0
vt1 0 0
vt1 0 0
vt1 0 0
vt1 0 0
vt1 0 0
vt1 0 0
vt1 0 0
vt1 0 0
vt1 0 0
vt1 0 0
vt1 0 0
vt1 0 0
vt1 0 0
vt1 0 0
vt1 0 0
vt1 0 0
vt1 0 0
vt1 0 0
vt1 0 0
vt1 0 0
vt1 0 0
vt1 0 0
vt1 0 0
vt1 0 0
vt1 0 0
vt1 0 0
vt1 0 0
vt1 0 0
vt1 0 0
vt1 0 0
vt1 0 0
vt1 0 0
vt1 0 0
vt1 0 0
vt1 0 0
vt1 0 0
vt1 0 0
vt1 0 0
vt1 0 0
vt1 0 0
vt1 0 0
vt1 0 0
vt1 0 0
vt1 0 0
vt1 0 0
vt1 0 0
vt1 0 0
vt1 0 0
vt1 0 0
vt1 0 0
vt1 0 0
vt1 0 0
vt1 0 0
vt1 0 0
vt1 0 0
vt1 0 0
vt1 0 0
vt1 0 0
vt1 0 0

vt2 0 0
vt2 0 0
vt2 0 0
vt2 0 0
vt2 0 0
vt2 0 0
vt2 0 0
vt2 0 0
vt2 0 0
vt2 0 0
vt2 0 0
vt2 0 0
vt2 0 0
vt2 0 0
vt2 0 0
vt2 0 0
vt2 0 0
vt2 0 0
vt2 0 0
vt2 0 0
vt2 0 0
vt2 0 0
vt2 0 0
vt2 0 0
vt2 0 0
vt2 0 0
vt2 0 0
vt2 0 0
vt2 0 0
vt2 0 0
vt2 0 0
vt2 0 0
vt2 0 0
vt2 0 0
vt2 0 0
vt2 0 0
vt2 0 0
vt2 0 0
vt2 0 0
vt2 0 0
vt2 0 0
vt2 0 0
vt2 0 0
vt2 0 0
vt2 0 0
vt2 0 0
vt2 0 0
vt2 0 0
vt2 0 0
vt2 0 0
vt2 0 0
vt2 0 0
vt2 0 0
vt2 0 0
vt2 0 0
vt2 0 0
vt2 0 0
vt2 0 0
vt2 0 0
vt2 0 0
vt2 0 0
vt2 0 0
vt2 0 0
vt2 0 0
vt2 0 0
vt2 0 0
vt2 0 0
vt2 0 0
vt2 0 0
vt2 0 0
vt2 0 0
vt2 0 0
vt2 0 0
vt2 0 0
vt2 0 0
vt2 0 0
vt2 0 0
vt2 0 0
vt2 0 0
vt2 0 0
vt2 0 0
vt2 0 0
vt2 0 0
vt2 0 0
vt2 0 0
vt2 0 0
vt2 0 0
vt2 0 0

vc 1 1 1 1
vc 1 1 1 1
vc 1 1 1 1
vc 1 1 1 1
vc 1 1 1 1
vc 1 1 1 1
vc 1 1 1 1
vc 1 1 1 1
vc 1 1 1 1
vc 1 1 1 1
vc 1 1 1 1
vc 1 1 1 1
vc 1 1 1 1
vc 1 1 1 1
vc 1 1 1 1
vc 1 1 1 1
vc 1 1 1 1
vc 1 1 1 1
vc 1 1 1 1
vc 1 1 1 1
vc 1 1 1 1
vc 1 1 1 1
vc 1 1 1 1
vc 1 1 1 1
vc 1 1 1 1
vc 1 1 1 1
vc 1 1 1 1
vc 1 1 1 1
vc 1 1 1 1
vc 1 1 1 1
vc 1 1 1 1
vc 1 1 1 1
vc 1 1 1 1
vc 1 1 1 1
vc 1 1 1 1
vc 1 1 1 1
vc 1 1 1 1
vc 1 1 1 1
vc 1 1 1 1
vc 1 1 1 1
vc 1 1 1 1
vc 1 1 1 1
vc 1 1 1 1
vc 1 1 1 1
vc 1 1 1 1
vc 1 1 1 1
vc 1 1 1 1
vc 1 1 1 1
vc 1 1 1 1
vc 1 1 1 1
vc 1 1 1 1
vc 1 1 1 1
vc 1 1 1 1
vc 1 1 1 1
vc 1 1 1 1
vc 1 1 1 1
vc 1 1 1 1
vc 1 1 1 1
vc 1 1 1 1
vc 1 1 1 1
vc 1 1 1 1
vc 1 1 1 1
vc 1 1 1 1
vc 1 1 1 1
vc 1 1 1 1
vc 1 1 1 1
vc 1 1 1 1
vc 1 1 1 1
vc 1 1 1 1
vc 1 1 1 1
vc 1 1 1 1
vc 1 1 1 1
vc 1 1 1 1
vc 1 1 1 1
vc 1 1 1 1
vc 1 1 1 1
vc 1 1 1 1
vc 1 1 1 1
vc 1 1 1 1
vc 1 1 1 1
vc 1 1 1 1
vc 1 1 1 1
vc 1 1 1 1
vc 1 1 1 1
vc 1 1 1 1
vc 1 1 1 1
vc 1 1 1 1
vc 1 1 1 1
f 21/21/21 23/23/23 22/22/22
f 21/21/21 22/22/22 24/24/24
f 25/25/25 27/27/27 26/26/26
f 25/25/25 26/26/26 28/28/28
f 29/29/29 31/31/31 30/30/30
f 29/29/29 30/30/30 32/32/32
f 69/69/69 71/71/71 70/70/70
f 69/69/69 70/70/70 72/72/72
f 73/73/73 75/75/75 74/74/74
f 73/73/73 74/74/74 76/76/76
f 77/77/77 79/79/79 78/78/78
f 77/77/77 78/78/78 80/80/80

