g Exported Mesh Combined Mesh 
v 38.1272 27.04026 -81.2484
v 38.1272 27.80226 -78.29362
v 38.1272 27.04026 -78.29362
v 38.1272 27.80226 -81.2484
v 38.1272 27.04026 -78.29362
v 41.53642 27.80226 -78.29362
v 41.53642 27.04026 -78.29362
v 38.1272 27.80226 -78.29362
v 41.53642 27.04026 -78.29362
v 41.53642 27.80226 -80.22551
v 41.53642 27.04026 -80.22551
v 41.53642 27.80226 -78.29362
v 41.53642 27.04026 -80.22551
v 40.87642 27.80226 -80.22551
v 40.87642 27.04026 -80.22551
v 41.53642 27.80226 -80.22551
v 38.7872 27.04026 -81.2484
v 38.1272 27.80226 -81.2484
v 38.1272 27.04026 -81.2484
v 38.7872 27.80226 -81.2484
v 40.87642 27.04026 -80.22551
v 40.87643 27.80226 -78.95362
v 40.87643 27.04026 -78.95362
v 40.87642 27.80226 -80.22551
v 40.87643 27.04026 -78.95362
v 38.7872 27.80226 -78.95362
v 38.7872 27.04026 -78.95362
v 40.87643 27.80226 -78.95362
v 38.7872 27.04026 -78.95362
v 38.7872 27.80226 -81.2484
v 38.7872 27.04026 -81.2484
v 38.7872 27.80226 -78.95362
v 41.53642 27.04026 -78.29362
v 41.53642 27.04026 -80.22551
v 40.87643 27.04026 -78.95362
v 38.1272 27.04026 -78.29362
v 38.7872 27.04026 -78.95362
v 38.1272 27.04026 -81.2484
v 38.7872 27.04026 -81.2484
v 40.87642 27.04026 -80.22551
v 38.1272 29.05404 -81.2484
v 38.1272 29.81604 -78.29362
v 38.1272 29.05404 -78.29362
v 38.1272 29.81604 -81.2484
v 38.1272 29.05404 -78.29362
v 41.53642 29.81604 -78.29362
v 41.53642 29.05404 -78.29362
v 38.1272 29.81604 -78.29362
v 41.53642 29.05404 -78.29362
v 41.53642 29.81604 -80.22551
v 41.53642 29.05404 -80.22551
v 41.53642 29.81604 -78.29362
v 40.87642 29.81604 -80.22551
v 41.53642 29.81604 -80.22551
v 41.53642 29.81604 -78.29362
v 40.87643 29.81604 -78.95362
v 38.1272 29.81604 -78.29362
v 38.7872 29.81604 -78.95362
v 38.1272 29.81604 -81.2484
v 38.7872 29.81604 -81.2484
v 41.53642 29.05404 -80.22551
v 40.87642 29.81604 -80.22551
v 40.87642 29.05404 -80.22551
v 41.53642 29.81604 -80.22551
v 38.7872 29.05404 -81.2484
v 38.1272 29.81604 -81.2484
v 38.1272 29.05404 -81.2484
v 38.7872 29.81604 -81.2484
v 40.87642 29.05404 -80.22551
v 40.87643 29.81604 -78.95362
v 40.87643 29.05404 -78.95362
v 40.87642 29.81604 -80.22551
v 40.87643 29.05404 -78.95362
v 38.7872 29.81604 -78.95362
v 38.7872 29.05404 -78.95362
v 40.87643 29.81604 -78.95362
v 38.7872 29.05404 -78.95362
v 38.7872 29.81604 -81.2484
v 38.7872 29.05404 -81.2484
v 38.7872 29.81604 -78.95362
v 41.53642 29.05404 -78.29362
v 41.53642 29.05404 -80.22551
v 40.87643 29.05404 -78.95362
v 38.1272 29.05404 -78.29362
v 38.7872 29.05404 -78.95362
v 38.1272 29.05404 -81.2484
v 38.7872 29.05404 -81.2484
v 40.87642 29.05404 -80.22551

vn -1 0 0
vn -1 0 0
vn -1 0 0
vn -1 0 0
vn 0 1.192093E-07 1
vn 0 1.192093E-07 1
vn 0 1.192093E-07 1
vn 0 1.192093E-07 1
vn 1 0 0
vn 1 0 0
vn 1 0 0
vn 1 0 0
vn 0 -1.192093E-07 -1
vn 0 -1.192093E-07 -1
vn 0 -1.192093E-07 -1
vn 0 -1.192093E-07 -1
vn 0 -1.192093E-07 -1
vn 0 -1.192093E-07 -1
vn 0 -1.192093E-07 -1
vn 0 -1.192093E-07 -1
vn -1 4.862511E-13 4.078971E-06
vn -1 4.862511E-13 4.078971E-06
vn -1 4.862511E-13 4.078971E-06
vn -1 4.862511E-13 4.078971E-06
vn 8.399074E-07 -1.192093E-07 -1
vn 8.399074E-07 -1.192093E-07 -1
vn 8.399074E-07 -1.192093E-07 -1
vn 8.399074E-07 -1.192093E-07 -1
vn 1 2.695062E-13 2.260782E-06
vn 1 2.695062E-13 2.260782E-06
vn 1 2.695062E-13 2.260782E-06
vn 1 2.695062E-13 2.260782E-06
vn 0 -1 1.192093E-07
vn 0 -1 1.192093E-07
vn 0 -1 1.192093E-07
vn 0 -1 1.192093E-07
vn 0 -1 1.192093E-07
vn 0 -1 1.192093E-07
vn 0 -1 1.192093E-07
vn 0 -1 1.192093E-07
vn -1 0 0
vn -1 0 0
vn -1 0 0
vn -1 0 0
vn 0 1.192093E-07 1
vn 0 1.192093E-07 1
vn 0 1.192093E-07 1
vn 0 1.192093E-07 1
vn 1 0 0
vn 1 0 0
vn 1 0 0
vn 1 0 0
vn 0 1 -1.192093E-07
vn 0 1 -1.192093E-07
vn 0 1 -1.192093E-07
vn 0 1 -1.192093E-07
vn 0 1 -1.192093E-07
vn 0 1 -1.192093E-07
vn 0 1 -1.192093E-07
vn 0 1 -1.192093E-07
vn 0 -1.192093E-07 -1
vn 0 -1.192093E-07 -1
vn 0 -1.192093E-07 -1
vn 0 -1.192093E-07 -1
vn 0 -1.192093E-07 -1
vn 0 -1.192093E-07 -1
vn 0 -1.192093E-07 -1
vn 0 -1.192093E-07 -1
vn -1 4.862511E-13 4.078971E-06
vn -1 4.862511E-13 4.078971E-06
vn -1 4.862511E-13 4.078971E-06
vn -1 4.862511E-13 4.078971E-06
vn 8.399074E-07 -1.192093E-07 -1
vn 8.399074E-07 -1.192093E-07 -1
vn 8.399074E-07 -1.192093E-07 -1
vn 8.399074E-07 -1.192093E-07 -1
vn 1 2.695062E-13 2.260782E-06
vn 1 2.695062E-13 2.260782E-06
vn 1 2.695062E-13 2.260782E-06
vn 1 2.695062E-13 2.260782E-06
vn 0 -1 1.192093E-07
vn 0 -1 1.192093E-07
vn 0 -1 1.192093E-07
vn 0 -1 1.192093E-07
vn 0 -1 1.192093E-07
vn 0 -1 1.192093E-07
vn 0 -1 1.192093E-07
vn 0 -1 1.192093E-07

vt -2.349939 0.0004995167
vt 4.413801 0.9995005
vt 4.413801 0.0004995167
vt -2.349939 0.9995005
vt -3.603523 0.0004995167
vt 4.603522 0.9995005
vt 4.603522 0.0004995167
vt -3.603523 0.9995005
vt -3.413803 0.0004995167
vt 1.008451 0.9995005
vt 1.008451 0.0004995167
vt -3.413803 0.9995005
vt -3.603523 0.0004995167
vt -2.0147 0.9995005
vt -2.0147 0.0004995167
vt -3.603523 0.9995005
vt 3.014698 0.0004995167
vt 4.603521 0.9995005
vt 4.603521 0.0004995167
vt 3.014698 0.9995005
vt -0.008450747 0.0004995167
vt 2.903008 0.9995005
vt 2.903008 0.0004995167
vt -0.008450747 0.9995005
vt -2.014712 0.0004995167
vt 3.014712 0.9995005
vt 3.014712 0.0004995167
vt -2.014712 0.9995005
vt -1.903003 0.0004995167
vt 3.349939 0.9995005
vt 3.349939 0.0004995167
vt -1.903003 0.9995005
vt -3.603522 -3.413803
vt -3.603523 1.008451
vt -2.014712 -1.903008
vt 4.603523 -3.413801
vt 3.014712 -1.903003
vt 4.603521 3.349939
vt 3.014698 3.349939
vt -2.0147 1.008451
vt -2.349939 0.0004995167
vt 4.413801 0.9995005
vt 4.413801 0.0004995167
vt -2.349939 0.9995005
vt -3.603523 0.0004995167
vt 4.603522 0.9995005
vt 4.603522 0.0004995167
vt -3.603523 0.9995005
vt -3.413803 0.0004995167
vt 1.008451 0.9995005
vt 1.008451 0.0004995167
vt -3.413803 0.9995005
vt 3.0147 1.008451
vt 4.603523 1.008451
vt 4.603522 -3.413803
vt 3.014712 -1.903008
vt -3.603523 -3.413801
vt -2.014712 -1.903003
vt -3.603521 3.349939
vt -2.014698 3.349939
vt -3.603523 0.0004995167
vt -2.0147 0.9995005
vt -2.0147 0.0004995167
vt -3.603523 0.9995005
vt 3.014698 0.0004995167
vt 4.603521 0.9995005
vt 4.603521 0.0004995167
vt 3.014698 0.9995005
vt -0.008450747 0.0004995167
vt 2.903008 0.9995005
vt 2.903008 0.0004995167
vt -0.008450747 0.9995005
vt -2.014712 0.0004995167
vt 3.014712 0.9995005
vt 3.014712 0.0004995167
vt -2.014712 0.9995005
vt -1.903003 0.0004995167
vt 3.349939 0.9995005
vt 3.349939 0.0004995167
vt -1.903003 0.9995005
vt -3.603522 -3.413803
vt -3.603523 1.008451
vt -2.014712 -1.903008
vt 4.603523 -3.413801
vt 3.014712 -1.903003
vt 4.603521 3.349939
vt 3.014698 3.349939
vt -2.0147 1.008451

vt1 0 0
vt1 0 0
vt1 0 0
vt1 0 0
vt1 0 0
vt1 0 0
vt1 0 0
vt1 0 0
vt1 0 0
vt1 0 0
vt1 0 0
vt1 0 0
vt1 0 0
vt1 0 0
vt1 0 0
vt1 0 0
vt1 0 0
vt1 0 0
vt1 0 0
vt1 0 0
vt1 0 0
vt1 0 0
vt1 0 0
vt1 0 0
vt1 0 0
vt1 0 0
vt1 0 0
vt1 0 0
vt1 0 0
vt1 0 0
vt1 0 0
vt1 0 0
vt1 0 0
vt1 0 0
vt1 0 0
vt1 0 0
vt1 0 0
vt1 0 0
vt1 0 0
vt1 0 0
vt1 0 0
vt1 0 0
vt1 0 0
vt1 0 0
vt1 0 0
vt1 0 0
vt1 0 0
vt1 0 0
vt1 0 0
vt1 0 0
vt1 0 0
vt1 0 0
vt1 0 0
vt1 0 0
vt1 0 0
vt1 0 0
vt1 0 0
vt1 0 0
vt1 0 0
vt1 0 0
vt1 0 0
vt1 0 0
vt1 0 0
vt1 0 0
vt1 0 0
vt1 0 0
vt1 0 0
vt1 0 0
vt1 0 0
vt1 0 0
vt1 0 0
vt1 0 0
vt1 0 0
vt1 0 0
vt1 0 0
vt1 0 0
vt1 0 0
vt1 0 0
vt1 0 0
vt1 0 0
vt1 0 0
vt1 0 0
vt1 0 0
vt1 0 0
vt1 0 0
vt1 0 0
vt1 0 0
vt1 0 0

vt2 0 0
vt2 0 0
vt2 0 0
vt2 0 0
vt2 0 0
vt2 0 0
vt2 0 0
vt2 0 0
vt2 0 0
vt2 0 0
vt2 0 0
vt2 0 0
vt2 0 0
vt2 0 0
vt2 0 0
vt2 0 0
vt2 0 0
vt2 0 0
vt2 0 0
vt2 0 0
vt2 0 0
vt2 0 0
vt2 0 0
vt2 0 0
vt2 0 0
vt2 0 0
vt2 0 0
vt2 0 0
vt2 0 0
vt2 0 0
vt2 0 0
vt2 0 0
vt2 0 0
vt2 0 0
vt2 0 0
vt2 0 0
vt2 0 0
vt2 0 0
vt2 0 0
vt2 0 0
vt2 0 0
vt2 0 0
vt2 0 0
vt2 0 0
vt2 0 0
vt2 0 0
vt2 0 0
vt2 0 0
vt2 0 0
vt2 0 0
vt2 0 0
vt2 0 0
vt2 0 0
vt2 0 0
vt2 0 0
vt2 0 0
vt2 0 0
vt2 0 0
vt2 0 0
vt2 0 0
vt2 0 0
vt2 0 0
vt2 0 0
vt2 0 0
vt2 0 0
vt2 0 0
vt2 0 0
vt2 0 0
vt2 0 0
vt2 0 0
vt2 0 0
vt2 0 0
vt2 0 0
vt2 0 0
vt2 0 0
vt2 0 0
vt2 0 0
vt2 0 0
vt2 0 0
vt2 0 0
vt2 0 0
vt2 0 0
vt2 0 0
vt2 0 0
vt2 0 0
vt2 0 0
vt2 0 0
vt2 0 0

vc 1 1 1 1
vc 1 1 1 1
vc 1 1 1 1
vc 1 1 1 1
vc 1 1 1 1
vc 1 1 1 1
vc 1 1 1 1
vc 1 1 1 1
vc 1 1 1 1
vc 1 1 1 1
vc 1 1 1 1
vc 1 1 1 1
vc 1 1 1 1
vc 1 1 1 1
vc 1 1 1 1
vc 1 1 1 1
vc 1 1 1 1
vc 1 1 1 1
vc 1 1 1 1
vc 1 1 1 1
vc 1 1 1 1
vc 1 1 1 1
vc 1 1 1 1
vc 1 1 1 1
vc 1 1 1 1
vc 1 1 1 1
vc 1 1 1 1
vc 1 1 1 1
vc 1 1 1 1
vc 1 1 1 1
vc 1 1 1 1
vc 1 1 1 1
vc 1 1 1 1
vc 1 1 1 1
vc 1 1 1 1
vc 1 1 1 1
vc 1 1 1 1
vc 1 1 1 1
vc 1 1 1 1
vc 1 1 1 1
vc 1 1 1 1
vc 1 1 1 1
vc 1 1 1 1
vc 1 1 1 1
vc 1 1 1 1
vc 1 1 1 1
vc 1 1 1 1
vc 1 1 1 1
vc 1 1 1 1
vc 1 1 1 1
vc 1 1 1 1
vc 1 1 1 1
vc 1 1 1 1
vc 1 1 1 1
vc 1 1 1 1
vc 1 1 1 1
vc 1 1 1 1
vc 1 1 1 1
vc 1 1 1 1
vc 1 1 1 1
vc 1 1 1 1
vc 1 1 1 1
vc 1 1 1 1
vc 1 1 1 1
vc 1 1 1 1
vc 1 1 1 1
vc 1 1 1 1
vc 1 1 1 1
vc 1 1 1 1
vc 1 1 1 1
vc 1 1 1 1
vc 1 1 1 1
vc 1 1 1 1
vc 1 1 1 1
vc 1 1 1 1
vc 1 1 1 1
vc 1 1 1 1
vc 1 1 1 1
vc 1 1 1 1
vc 1 1 1 1
vc 1 1 1 1
vc 1 1 1 1
vc 1 1 1 1
vc 1 1 1 1
vc 1 1 1 1
vc 1 1 1 1
vc 1 1 1 1
vc 1 1 1 1
f 1/1/1 3/3/3 2/2/2
f 1/1/1 2/2/2 4/4/4
f 5/5/5 7/7/7 6/6/6
f 5/5/5 6/6/6 8/8/8
f 9/9/9 11/11/11 10/10/10
f 9/9/9 10/10/10 12/12/12
f 41/41/41 43/43/43 42/42/42
f 41/41/41 42/42/42 44/44/44
f 45/45/45 47/47/47 46/46/46
f 45/45/45 46/46/46 48/48/48
f 49/49/49 51/51/51 50/50/50
f 49/49/49 50/50/50 52/52/52
f 53/53/53 55/55/55 54/54/54
f 55/55/55 53/53/53 56/56/56
f 56/56/56 57/57/57 55/55/55
f 57/57/57 56/56/56 58/58/58
f 57/57/57 58/58/58 59/59/59
f 59/59/59 58/58/58 60/60/60

