g Exported Mesh Combined Mesh 
v 41.53642 27.84233 -78.29362
v 38.1272 27.80017 -78.29362
v 38.1272 27.84233 -78.29362
v 41.53642 27.80017 -78.29362
v 41.53642 27.84232 -80.25252
v 41.53642 27.80017 -78.29362
v 41.53642 27.84233 -78.29362
v 41.53642 27.80017 -80.25252
v 40.83666 27.84232 -80.25252
v 41.53642 27.80017 -80.25252
v 41.53642 27.84232 -80.25252
v 40.83666 27.80017 -80.25252
v 40.83666 27.84232 -78.98893
v 40.83666 27.80017 -80.25252
v 40.83666 27.84232 -80.25252
v 40.83666 27.80017 -78.98893
v 38.8203 27.84232 -78.98893
v 40.83666 27.80017 -78.98893
v 40.83666 27.84232 -78.98893
v 38.8203 27.80017 -78.98893
v 38.8203 27.84232 -81.2484
v 38.8203 27.80017 -78.98893
v 38.8203 27.84232 -78.98893
v 38.8203 27.80017 -81.2484
v 38.1272 27.84232 -81.2484
v 38.8203 27.80017 -81.2484
v 38.8203 27.84232 -81.2484
v 38.1272 27.80017 -81.2484
v 38.1272 27.80017 -81.2484
v 38.8203 27.80017 -78.98893
v 38.8203 27.80017 -81.2484
v 38.1272 27.80017 -78.29362
v 40.83666 27.80017 -78.98893
v 41.53642 27.80017 -78.29362
v 40.98508 27.80017 -79.33835
v 41.36857 27.80017 -79.33835
v 40.98508 27.80017 -79.67719
v 40.83666 27.80017 -80.25252
v 41.36857 27.80017 -79.67719
v 41.53642 27.80017 -80.25252
v 40.83666 27.84232 -78.98893
v 38.1272 27.84233 -78.29362
v 38.8203 27.84232 -78.98893
v 41.53642 27.84233 -78.29362
v 38.1272 27.84232 -81.2484
v 38.8203 27.84232 -81.2484
v 40.98508 27.84232 -79.33835
v 40.98508 27.84232 -79.67719
v 40.83666 27.84232 -80.25252
v 41.36857 27.84232 -79.67719
v 41.36857 27.84232 -79.33835
v 41.53642 27.84232 -80.25252
v 41.36857 27.84232 -79.33835
v 40.98508 27.80017 -79.33835
v 41.36857 27.80017 -79.33835
v 40.98508 27.84232 -79.33835
v 40.98508 27.84232 -79.33835
v 40.98508 27.80017 -79.67719
v 40.98508 27.80017 -79.33835
v 40.98508 27.84232 -79.67719
v 41.36857 27.84232 -79.67719
v 40.98508 27.80017 -79.67719
v 40.98508 27.84232 -79.67719
v 41.36857 27.80017 -79.67719
v 41.36857 27.84232 -79.33835
v 41.36857 27.80017 -79.67719
v 41.36857 27.84232 -79.67719
v 41.36857 27.80017 -79.33835

vn 0 1.192093E-07 1
vn 0 1.192093E-07 1
vn 0 1.192093E-07 1
vn 0 1.192093E-07 1
vn 1 0 0
vn 1 0 0
vn 1 0 0
vn 1 0 0
vn -1.090279E-07 -1.192093E-07 -1
vn -1.090279E-07 -1.192093E-07 -1
vn -1.090279E-07 -1.192093E-07 -1
vn -1.090279E-07 -1.192093E-07 -1
vn -1 4.894439E-13 4.105753E-06
vn -1 4.894439E-13 4.105753E-06
vn -1 4.894439E-13 4.105753E-06
vn -1 4.894439E-13 4.105753E-06
vn 8.608007E-07 -1.192093E-07 -1
vn 8.608007E-07 -1.192093E-07 -1
vn 8.608008E-07 -1.192093E-07 -1
vn 8.608008E-07 -1.192093E-07 -1
vn 1 2.656672E-13 2.228578E-06
vn 1 2.656672E-13 2.228578E-06
vn 1 2.656672E-13 2.228578E-06
vn 1 2.656672E-13 2.228578E-06
vn 2.201523E-07 -1.192093E-07 -1
vn 2.201523E-07 -1.192093E-07 -1
vn 2.201523E-07 -1.192093E-07 -1
vn 2.201523E-07 -1.192093E-07 -1
vn 0 -1 1.192093E-07
vn 0 -1 1.192093E-07
vn 0 -1 1.192093E-07
vn 0 -1 1.192093E-07
vn 0 -1 1.192093E-07
vn 0 -1 1.192093E-07
vn -1.632092E-08 -1 1.192093E-07
vn 2.65535E-08 -1 1.192093E-07
vn 0 -1 1.192093E-07
vn 0 -1 1.192093E-07
vn 0 -1 1.192093E-07
vn 0 -1 1.192093E-07
vn 5.71162E-09 1 -1.192093E-07
vn 0 1 -1.192093E-07
vn 0 1 -1.192093E-07
vn 0 1 -1.192093E-07
vn 0 1 -1.192093E-07
vn 0 1 -1.192093E-07
vn 4.715863E-08 1 -1.045781E-07
vn -7.970071E-09 1 -1.192093E-07
vn 0 1 -1.192093E-07
vn 0 1 -1.192093E-07
vn 5.689798E-08 1 -1.192093E-07
vn 0 1 -1.192093E-07
vn 0 -1.192093E-07 -1
vn 0 -1.192093E-07 -1
vn 0 -1.192093E-07 -1
vn 0 -1.192093E-07 -1
vn 1 0 0
vn 1 0 0
vn 1 0 0
vn 1 0 0
vn 0 1.192093E-07 1
vn 0 1.192093E-07 1
vn 0 1.192093E-07 1
vn 0 1.192093E-07 1
vn -1 0 0
vn -1 0 0
vn -1 0 0
vn -1 0 0

vt 0 0
vt 0 0
vt 0 0
vt 0 0
vt 0 0
vt 0 0
vt 0 0
vt 0 0
vt 0 0
vt 0 0
vt 0 0
vt 0 0
vt 0 0
vt 0 0
vt 0 0
vt 0 0
vt 0 0
vt 0 0
vt 0 0
vt 0 0
vt 0 0
vt 0 0
vt 0 0
vt 0 0
vt 0 0
vt 0 0
vt 0 0
vt 0 0
vt 0 0
vt 0 0
vt 0 0
vt 0 0
vt 0 0
vt 0 0
vt 0 0
vt 0 0
vt 0 0
vt 0 0
vt 0 0
vt 0 0
vt 0 0
vt 0 0
vt 0 0
vt 0 0
vt 0 0
vt 0 0
vt 0 0
vt 0 0
vt 0 0
vt 0 0
vt 0 0
vt 0 0
vt 0 0
vt 0 0
vt 0 0
vt 0 0
vt 0 0
vt 0 0
vt 0 0
vt 0 0
vt 0 0
vt 0 0
vt 0 0
vt 0 0
vt 0 0
vt 0 0
vt 0 0
vt 0 0

vt1 0 0
vt1 0 0
vt1 0 0
vt1 0 0
vt1 0 0
vt1 0 0
vt1 0 0
vt1 0 0
vt1 0 0
vt1 0 0
vt1 0 0
vt1 0 0
vt1 0 0
vt1 0 0
vt1 0 0
vt1 0 0
vt1 0 0
vt1 0 0
vt1 0 0
vt1 0 0
vt1 0 0
vt1 0 0
vt1 0 0
vt1 0 0
vt1 0 0
vt1 0 0
vt1 0 0
vt1 0 0
vt1 0 0
vt1 0 0
vt1 0 0
vt1 0 0
vt1 0 0
vt1 0 0
vt1 0 0
vt1 0 0
vt1 0 0
vt1 0 0
vt1 0 0
vt1 0 0
vt1 0 0
vt1 0 0
vt1 0 0
vt1 0 0
vt1 0 0
vt1 0 0
vt1 0 0
vt1 0 0
vt1 0 0
vt1 0 0
vt1 0 0
vt1 0 0
vt1 0 0
vt1 0 0
vt1 0 0
vt1 0 0
vt1 0 0
vt1 0 0
vt1 0 0
vt1 0 0
vt1 0 0
vt1 0 0
vt1 0 0
vt1 0 0
vt1 0 0
vt1 0 0
vt1 0 0
vt1 0 0

vt2 0 0
vt2 0 0
vt2 0 0
vt2 0 0
vt2 0 0
vt2 0 0
vt2 0 0
vt2 0 0
vt2 0 0
vt2 0 0
vt2 0 0
vt2 0 0
vt2 0 0
vt2 0 0
vt2 0 0
vt2 0 0
vt2 0 0
vt2 0 0
vt2 0 0
vt2 0 0
vt2 0 0
vt2 0 0
vt2 0 0
vt2 0 0
vt2 0 0
vt2 0 0
vt2 0 0
vt2 0 0
vt2 0 0
vt2 0 0
vt2 0 0
vt2 0 0
vt2 0 0
vt2 0 0
vt2 0 0
vt2 0 0
vt2 0 0
vt2 0 0
vt2 0 0
vt2 0 0
vt2 0 0
vt2 0 0
vt2 0 0
vt2 0 0
vt2 0 0
vt2 0 0
vt2 0 0
vt2 0 0
vt2 0 0
vt2 0 0
vt2 0 0
vt2 0 0
vt2 0 0
vt2 0 0
vt2 0 0
vt2 0 0
vt2 0 0
vt2 0 0
vt2 0 0
vt2 0 0
vt2 0 0
vt2 0 0
vt2 0 0
vt2 0 0
vt2 0 0
vt2 0 0
vt2 0 0
vt2 0 0

vc 1 1 1 1
vc 1 1 1 1
vc 1 1 1 1
vc 1 1 1 1
vc 1 1 1 1
vc 1 1 1 1
vc 1 1 1 1
vc 1 1 1 1
vc 1 1 1 1
vc 1 1 1 1
vc 1 1 1 1
vc 1 1 1 1
vc 1 1 1 1
vc 1 1 1 1
vc 1 1 1 1
vc 1 1 1 1
vc 1 1 1 1
vc 1 1 1 1
vc 1 1 1 1
vc 1 1 1 1
vc 1 1 1 1
vc 1 1 1 1
vc 1 1 1 1
vc 1 1 1 1
vc 1 1 1 1
vc 1 1 1 1
vc 1 1 1 1
vc 1 1 1 1
vc 1 1 1 1
vc 1 1 1 1
vc 1 1 1 1
vc 1 1 1 1
vc 1 1 1 1
vc 1 1 1 1
vc 1 1 1 1
vc 1 1 1 1
vc 1 1 1 1
vc 1 1 1 1
vc 1 1 1 1
vc 1 1 1 1
vc 1 1 1 1
vc 1 1 1 1
vc 1 1 1 1
vc 1 1 1 1
vc 1 1 1 1
vc 1 1 1 1
vc 1 1 1 1
vc 1 1 1 1
vc 1 1 1 1
vc 1 1 1 1
vc 1 1 1 1
vc 1 1 1 1
vc 1 1 1 1
vc 1 1 1 1
vc 1 1 1 1
vc 1 1 1 1
vc 1 1 1 1
vc 1 1 1 1
vc 1 1 1 1
vc 1 1 1 1
vc 1 1 1 1
vc 1 1 1 1
vc 1 1 1 1
vc 1 1 1 1
vc 1 1 1 1
vc 1 1 1 1
vc 1 1 1 1
vc 1 1 1 1
f 1/1/1 3/3/3 2/2/2
f 2/2/2 4/4/4 1/1/1
f 5/5/5 7/7/7 6/6/6
f 6/6/6 8/8/8 5/5/5
f 9/9/9 11/11/11 10/10/10
f 10/10/10 12/12/12 9/9/9
f 13/13/13 15/15/15 14/14/14
f 14/14/14 16/16/16 13/13/13
f 17/17/17 19/19/19 18/18/18
f 18/18/18 20/20/20 17/17/17
f 21/21/21 23/23/23 22/22/22
f 22/22/22 24/24/24 21/21/21
f 25/25/25 27/27/27 26/26/26
f 26/26/26 28/28/28 25/25/25
f 29/29/29 31/31/31 30/30/30
f 30/30/30 32/32/32 29/29/29
f 32/32/32 30/30/30 33/33/33
f 33/33/33 34/34/34 32/32/32
f 35/35/35 34/34/34 33/33/33
f 35/35/35 36/36/36 34/34/34
f 37/37/37 35/35/35 33/33/33
f 37/37/37 33/33/33 38/38/38
f 39/39/39 37/37/37 38/38/38
f 39/39/39 34/34/34 36/36/36
f 39/39/39 38/38/38 40/40/40
f 39/39/39 40/40/40 34/34/34
f 41/41/41 43/43/43 42/42/42
f 42/42/42 44/44/44 41/41/41
f 45/45/45 42/42/42 43/43/43
f 43/43/43 46/46/46 45/45/45
f 47/47/47 41/41/41 44/44/44
f 47/47/47 48/48/48 41/41/41
f 48/48/48 49/49/49 41/41/41
f 48/48/48 50/50/50 49/49/49
f 50/50/50 51/51/51 44/44/44
f 47/47/47 44/44/44 51/51/51
f 50/50/50 44/44/44 52/52/52
f 50/50/50 52/52/52 49/49/49
f 53/53/53 55/55/55 54/54/54
f 54/54/54 56/56/56 53/53/53
f 57/57/57 59/59/59 58/58/58
f 58/58/58 60/60/60 57/57/57
f 61/61/61 63/63/63 62/62/62
f 62/62/62 64/64/64 61/61/61
f 65/65/65 67/67/67 66/66/66
f 66/66/66 68/68/68 65/65/65

