g Exported Mesh Combined Mesh 
v 41.60427 3.914008 -81.96631
v 41.60427 5.032703 -80.76694
v 41.60427 3.914008 -80.76694
v 41.60427 5.032703 -81.96631
v 41.65427 5.032703 -81.96631
v 41.60427 3.914008 -81.96631
v 41.65427 3.914008 -81.96631
v 41.60427 5.032703 -81.96631
v 41.65427 3.914008 -81.96631
v 41.60427 3.914008 -80.76694
v 41.65427 3.914008 -80.76694
v 41.60427 3.914008 -81.96631
v 41.65427 3.914008 -80.76694
v 41.60427 5.032703 -80.76694
v 41.65427 5.032703 -80.76694
v 41.60427 3.914008 -80.76694
v 41.65427 5.032703 -80.76694
v 41.60427 5.032703 -81.96631
v 41.65427 5.032703 -81.96631
v 41.60427 5.032703 -80.76694
v 41.65427 5.032703 -80.76694
v 41.65427 3.914008 -81.96631
v 41.65427 3.914008 -80.76694
v 41.65427 5.032703 -81.96631

vn -1 -1.490116E-07 -1.192093E-07
vn -1 -1.490116E-07 -1.192093E-07
vn -1 -1.490116E-07 -1.192093E-07
vn -1 -1.490116E-07 -1.192093E-07
vn 1.490116E-07 -1.192093E-07 -1
vn 1.490116E-07 -1.192093E-07 -1
vn 1.490116E-07 -1.192093E-07 -1
vn 1.490116E-07 -1.192093E-07 -1
vn 1.192093E-07 -1 8.940697E-08
vn 1.192093E-07 -1 8.940697E-08
vn 1.192093E-07 -1 8.940697E-08
vn 1.192093E-07 -1 8.940697E-08
vn -1.490116E-07 1.192093E-07 1
vn -1.490116E-07 1.192093E-07 1
vn -1.490116E-07 1.192093E-07 1
vn -1.490116E-07 1.192093E-07 1
vn -1.192093E-07 1 -8.940697E-08
vn -1.192093E-07 1 -8.940697E-08
vn -1.192093E-07 1 -8.940697E-08
vn -1.192093E-07 1 -8.940697E-08
vn 1 1.490116E-07 1.192093E-07
vn 1 1.490116E-07 1.192093E-07
vn 1 1.490116E-07 1.192093E-07
vn 1 1.490116E-07 1.192093E-07

vt 0.0004992783 -0.9919862
vt 0.9995008 1.991986
vt 0.9995 -0.9919864
vt 0.000499934 1.991986
vt 0.000499934 1.991986
vt 0.0004992783 -0.9919862
vt 0.0004992783 -0.9919862
vt 0.000499934 1.991986
vt 0.0004992783 -0.9919862
vt 0.9995 -0.9919864
vt 0.9995 -0.9919864
vt 0.0004992783 -0.9919862
vt 0.9995 -0.9919864
vt 0.9995008 1.991986
vt 0.9995008 1.991986
vt 0.9995 -0.9919864
vt 0.9995008 1.991986
vt 0.000499934 1.991986
vt 0.000499934 1.991986
vt 0.9995008 1.991986
vt 0.9995008 1.991986
vt 0.0004992783 -0.9919862
vt 0.9995 -0.9919864
vt 0.000499934 1.991986

vt1 0 0
vt1 0 0
vt1 0 0
vt1 0 0
vt1 0 0
vt1 0 0
vt1 0 0
vt1 0 0
vt1 0 0
vt1 0 0
vt1 0 0
vt1 0 0
vt1 0 0
vt1 0 0
vt1 0 0
vt1 0 0
vt1 0 0
vt1 0 0
vt1 0 0
vt1 0 0
vt1 0 0
vt1 0 0
vt1 0 0
vt1 0 0

vt2 0 0
vt2 0 0
vt2 0 0
vt2 0 0
vt2 0 0
vt2 0 0
vt2 0 0
vt2 0 0
vt2 0 0
vt2 0 0
vt2 0 0
vt2 0 0
vt2 0 0
vt2 0 0
vt2 0 0
vt2 0 0
vt2 0 0
vt2 0 0
vt2 0 0
vt2 0 0
vt2 0 0
vt2 0 0
vt2 0 0
vt2 0 0

vc 1 1 1 1
vc 1 1 1 1
vc 1 1 1 1
vc 1 1 1 1
vc 1 1 1 1
vc 1 1 1 1
vc 1 1 1 1
vc 1 1 1 1
vc 1 1 1 1
vc 1 1 1 1
vc 1 1 1 1
vc 1 1 1 1
vc 1 1 1 1
vc 1 1 1 1
vc 1 1 1 1
vc 1 1 1 1
vc 1 1 1 1
vc 1 1 1 1
vc 1 1 1 1
vc 1 1 1 1
vc 1 1 1 1
vc 1 1 1 1
vc 1 1 1 1
vc 1 1 1 1
f 1/1/1 3/3/3 2/2/2
f 2/2/2 4/4/4 1/1/1
f 5/5/5 7/7/7 6/6/6
f 6/6/6 8/8/8 5/5/5
f 9/9/9 11/11/11 10/10/10
f 10/10/10 12/12/12 9/9/9
f 13/13/13 15/15/15 14/14/14
f 14/14/14 16/16/16 13/13/13
f 17/17/17 19/19/19 18/18/18
f 18/18/18 20/20/20 17/17/17
f 21/21/21 23/23/23 22/22/22
f 22/22/22 24/24/24 21/21/21

