g Exported Mesh Combined Mesh 
v 41.54404 29.05232 -78.29362
v 41.51864 29.05232 -80.22511
v 41.54404 29.05232 -80.22511
v 41.51864 29.05232 -78.29362
v 41.54404 29.05232 -80.22511
v 41.51864 27.80226 -80.22511
v 41.54404 27.80226 -80.22511
v 41.51864 29.05232 -80.22511
v 41.54404 27.80226 -80.22511
v 41.51864 27.80226 -78.29362
v 41.54404 27.80226 -78.29362
v 41.51864 27.80226 -80.22511
v 41.54404 27.80226 -78.29362
v 41.51864 29.05232 -78.29362
v 41.54404 29.05232 -78.29362
v 41.51864 27.80226 -78.29362
v 41.54404 27.80226 -80.22511
v 41.54404 27.80226 -78.29362
v 41.54404 29.05232 -78.29362
v 41.54404 29.05232 -80.22511
v 41.51864 27.80226 -80.22511
v 41.51864 29.05232 -78.29362
v 41.51864 27.80226 -78.29362
v 41.51864 29.05232 -80.22511
v 39.50314 29.05232 -78.27904
v 41.53265 29.05232 -78.30444
v 41.53265 29.05232 -78.27904
v 39.50314 29.05232 -78.30444
v 41.53265 29.05232 -78.27904
v 41.53265 27.80226 -78.30444
v 41.53265 27.80226 -78.27904
v 41.53265 29.05232 -78.30444
v 41.53265 27.80226 -78.27904
v 39.50314 27.80226 -78.30444
v 39.50314 27.80226 -78.27904
v 41.53265 27.80226 -78.30444
v 39.50314 27.80226 -78.27904
v 39.50314 29.05232 -78.30444
v 39.50314 29.05232 -78.27904
v 39.50314 27.80226 -78.30444
v 41.53265 27.80226 -78.27904
v 39.50314 27.80226 -78.27904
v 39.50314 29.05232 -78.27904
v 41.53265 29.05232 -78.27904
v 41.53265 27.80226 -78.30444
v 39.50314 29.05232 -78.30444
v 39.50314 27.80226 -78.30444
v 41.53265 29.05232 -78.30444

vn -1.192093E-07 1 -8.940697E-08
vn -1.192093E-07 1 -8.940697E-08
vn -1.192093E-07 1 -8.940697E-08
vn -1.192093E-07 1 -8.940697E-08
vn 1.490116E-07 -1.192093E-07 -1
vn 1.490116E-07 -1.192093E-07 -1
vn 1.490116E-07 -1.192093E-07 -1
vn 1.490116E-07 -1.192093E-07 -1
vn 1.192093E-07 -1 8.940697E-08
vn 1.192093E-07 -1 8.940697E-08
vn 1.192093E-07 -1 8.940697E-08
vn 1.192093E-07 -1 8.940697E-08
vn -1.490116E-07 1.192093E-07 1
vn -1.490116E-07 1.192093E-07 1
vn -1.490116E-07 1.192093E-07 1
vn -1.490116E-07 1.192093E-07 1
vn 1 1.490116E-07 1.192093E-07
vn 1 1.490116E-07 1.192093E-07
vn 1 1.490116E-07 1.192093E-07
vn 1 1.490116E-07 1.192093E-07
vn -1 -1.490116E-07 -1.192093E-07
vn -1 -1.490116E-07 -1.192093E-07
vn -1 -1.490116E-07 -1.192093E-07
vn -1 -1.490116E-07 -1.192093E-07
vn 6.726504E-14 1 -2.384186E-07
vn 6.726504E-14 1 -2.384186E-07
vn 6.726504E-14 1 -2.384186E-07
vn 6.726504E-14 1 -2.384186E-07
vn 1 8.289746E-14 5.642599E-07
vn 1 8.289746E-14 5.642599E-07
vn 1 8.289746E-14 5.642599E-07
vn 1 8.289746E-14 5.642599E-07
vn -6.726504E-14 -1 2.384186E-07
vn -6.726504E-14 -1 2.384186E-07
vn -6.726504E-14 -1 2.384186E-07
vn -6.726504E-14 -1 2.384186E-07
vn -1 -8.289746E-14 -5.642599E-07
vn -1 -8.289746E-14 -5.642599E-07
vn -1 -8.289746E-14 -5.642599E-07
vn -1 -8.289746E-14 -5.642599E-07
vn -5.6426E-07 2.980233E-07 1
vn -5.6426E-07 2.980233E-07 1
vn -5.6426E-07 2.980233E-07 1
vn -5.6426E-07 2.980233E-07 1
vn 5.6426E-07 -2.980233E-07 -1
vn 5.6426E-07 -2.980233E-07 -1
vn 5.6426E-07 -2.980233E-07 -1
vn 5.6426E-07 -2.980233E-07 -1

vt 2.932791 2.932789
vt -1.93279 2.932791
vt -1.93279 2.932791
vt 2.932791 2.932789
vt -1.93279 2.932791
vt -1.932791 -1.932789
vt -1.932791 -1.932789
vt -1.93279 2.932791
vt -1.932791 -1.932789
vt 2.93279 -1.932791
vt 2.93279 -1.932791
vt -1.932791 -1.932789
vt 2.93279 -1.932791
vt 2.932791 2.932789
vt 2.932791 2.932789
vt 2.93279 -1.932791
vt -1.932791 -1.932789
vt 2.93279 -1.932791
vt 2.932791 2.932789
vt -1.93279 2.932791
vt -1.932791 -1.932789
vt 2.932791 2.932789
vt 2.93279 -1.932791
vt -1.93279 2.932791
vt 3.149474 2.932789
vt -1.963013 2.932791
vt -1.963013 2.932791
vt 3.149474 2.932789
vt -1.963013 2.932791
vt -1.963014 -1.932789
vt -1.963014 -1.932789
vt -1.963013 2.932791
vt -1.963014 -1.932789
vt 3.149473 -1.932791
vt 3.149473 -1.932791
vt -1.963014 -1.932789
vt 3.149473 -1.932791
vt 3.149474 2.932789
vt 3.149474 2.932789
vt 3.149473 -1.932791
vt -1.963014 -1.932789
vt 3.149473 -1.932791
vt 3.149474 2.932789
vt -1.963013 2.932791
vt -1.963014 -1.932789
vt 3.149474 2.932789
vt 3.149473 -1.932791
vt -1.963013 2.932791

vt1 0 0
vt1 0 0
vt1 0 0
vt1 0 0
vt1 0 0
vt1 0 0
vt1 0 0
vt1 0 0
vt1 0 0
vt1 0 0
vt1 0 0
vt1 0 0
vt1 0 0
vt1 0 0
vt1 0 0
vt1 0 0
vt1 0 0
vt1 0 0
vt1 0 0
vt1 0 0
vt1 0 0
vt1 0 0
vt1 0 0
vt1 0 0
vt1 0 0
vt1 0 0
vt1 0 0
vt1 0 0
vt1 0 0
vt1 0 0
vt1 0 0
vt1 0 0
vt1 0 0
vt1 0 0
vt1 0 0
vt1 0 0
vt1 0 0
vt1 0 0
vt1 0 0
vt1 0 0
vt1 0 0
vt1 0 0
vt1 0 0
vt1 0 0
vt1 0 0
vt1 0 0
vt1 0 0
vt1 0 0

vt2 0 0
vt2 0 0
vt2 0 0
vt2 0 0
vt2 0 0
vt2 0 0
vt2 0 0
vt2 0 0
vt2 0 0
vt2 0 0
vt2 0 0
vt2 0 0
vt2 0 0
vt2 0 0
vt2 0 0
vt2 0 0
vt2 0 0
vt2 0 0
vt2 0 0
vt2 0 0
vt2 0 0
vt2 0 0
vt2 0 0
vt2 0 0
vt2 0 0
vt2 0 0
vt2 0 0
vt2 0 0
vt2 0 0
vt2 0 0
vt2 0 0
vt2 0 0
vt2 0 0
vt2 0 0
vt2 0 0
vt2 0 0
vt2 0 0
vt2 0 0
vt2 0 0
vt2 0 0
vt2 0 0
vt2 0 0
vt2 0 0
vt2 0 0
vt2 0 0
vt2 0 0
vt2 0 0
vt2 0 0

vc 1 1 1 1
vc 1 1 1 1
vc 1 1 1 1
vc 1 1 1 1
vc 1 1 1 1
vc 1 1 1 1
vc 1 1 1 1
vc 1 1 1 1
vc 1 1 1 1
vc 1 1 1 1
vc 1 1 1 1
vc 1 1 1 1
vc 1 1 1 1
vc 1 1 1 1
vc 1 1 1 1
vc 1 1 1 1
vc 1 1 1 1
vc 1 1 1 1
vc 1 1 1 1
vc 1 1 1 1
vc 1 1 1 1
vc 1 1 1 1
vc 1 1 1 1
vc 1 1 1 1
vc 1 1 1 1
vc 1 1 1 1
vc 1 1 1 1
vc 1 1 1 1
vc 1 1 1 1
vc 1 1 1 1
vc 1 1 1 1
vc 1 1 1 1
vc 1 1 1 1
vc 1 1 1 1
vc 1 1 1 1
vc 1 1 1 1
vc 1 1 1 1
vc 1 1 1 1
vc 1 1 1 1
vc 1 1 1 1
vc 1 1 1 1
vc 1 1 1 1
vc 1 1 1 1
vc 1 1 1 1
vc 1 1 1 1
vc 1 1 1 1
vc 1 1 1 1
vc 1 1 1 1
f 1/1/1 3/3/3 2/2/2
f 1/1/1 2/2/2 4/4/4
f 5/5/5 7/7/7 6/6/6
f 5/5/5 6/6/6 8/8/8
f 9/9/9 11/11/11 10/10/10
f 9/9/9 10/10/10 12/12/12
f 13/13/13 15/15/15 14/14/14
f 13/13/13 14/14/14 16/16/16
f 17/17/17 19/19/19 18/18/18
f 17/17/17 20/20/20 19/19/19
f 21/21/21 23/23/23 22/22/22
f 21/21/21 22/22/22 24/24/24
f 25/25/25 27/27/27 26/26/26
f 25/25/25 26/26/26 28/28/28
f 29/29/29 31/31/31 30/30/30
f 29/29/29 30/30/30 32/32/32
f 33/33/33 35/35/35 34/34/34
f 33/33/33 34/34/34 36/36/36
f 37/37/37 39/39/39 38/38/38
f 37/37/37 38/38/38 40/40/40
f 41/41/41 43/43/43 42/42/42
f 41/41/41 44/44/44 43/43/43
f 45/45/45 47/47/47 46/46/46
f 45/45/45 46/46/46 48/48/48

