g Exported Mesh Combined Mesh 
v 27.87455 27.06822 -84.29786
v 32.08533 27.08092 -84.29786
v 32.08533 27.06822 -84.29786
v 27.87455 27.08092 -84.29786
v 32.08533 27.06822 -84.29786
v 32.08533 27.08092 -81.21627
v 32.08533 27.06822 -81.21627
v 32.08533 27.08092 -84.29786
v 32.08533 27.06822 -81.21627
v 38.15093 27.08092 -81.23322
v 38.15093 27.06822 -81.23322
v 32.08533 27.08092 -81.21627
v 38.15093 27.06822 -81.23322
v 38.15093 27.08092 -78.32624
v 38.15093 27.06822 -78.32624
v 38.15093 27.08092 -81.23322
v 38.15093 27.06822 -78.32624
v 41.6727 27.08092 -78.32624
v 41.6727 27.06822 -78.32624
v 38.15093 27.08092 -78.32624
v 41.6727 27.06822 -78.32624
v 41.6727 27.08092 -82.0446
v 41.6727 27.06822 -82.0446
v 41.6727 27.08092 -78.32624
v 41.6727 27.06822 -82.0446
v 39.38299 27.08092 -82.0446
v 39.38299 27.06822 -82.0446
v 41.6727 27.08092 -82.0446
v 39.38299 27.06822 -82.0446
v 39.38299 27.08092 -82.15605
v 39.38299 27.06822 -82.15605
v 39.38299 27.08092 -82.0446
v 39.38299 27.06822 -82.15605
v 40.09924 27.08092 -82.15605
v 40.09924 27.06822 -82.15605
v 39.38299 27.08092 -82.15605
v 40.09924 27.06822 -82.15605
v 40.09924 27.08092 -83.29368
v 40.09924 27.06822 -83.29368
v 40.09924 27.08092 -82.15605
v 40.09924 27.06822 -83.29368
v 39.38834 27.08092 -83.29368
v 39.38834 27.06822 -83.29368
v 40.09924 27.08092 -83.29368
v 39.38834 27.06822 -83.29368
v 39.38834 27.08092 -85.1823
v 39.38834 27.06822 -85.1823
v 39.38834 27.08092 -83.29368
v 39.38834 27.06822 -85.1823
v 33.61204 27.08092 -85.1823
v 33.61204 27.06822 -85.1823
v 39.38834 27.08092 -85.1823
v 33.61204 27.06822 -85.1823
v 33.61204 27.08092 -85.62153
v 33.61204 27.06822 -85.62153
v 33.61204 27.08092 -85.1823
v 33.61204 27.06822 -85.62153
v 32.04793 27.08092 -85.62153
v 32.04793 27.06822 -85.62153
v 33.61204 27.08092 -85.62153
v 32.04793 27.06822 -85.62153
v 32.04793 27.08092 -88.49944
v 32.04793 27.06822 -88.49944
v 32.04793 27.08092 -85.62153
v 32.04793 27.06822 -88.49944
v 27.87455 27.08092 -88.47548
v 27.87455 27.06822 -88.47548
v 32.04793 27.08092 -88.49944
v 27.87455 27.06822 -88.47548
v 27.87455 27.08092 -84.29786
v 27.87455 27.06822 -84.29786
v 27.87455 27.08092 -88.47548
v 32.04793 27.06822 -85.62153
v 32.04793 27.06822 -88.49944
v 27.87455 27.06822 -88.47548
v 27.87455 27.06822 -84.29786
v 32.08533 27.06822 -84.29786
v 33.61204 27.06822 -85.62153
v 33.61204 27.06822 -85.1823
v 38.15093 27.06822 -81.23322
v 32.08533 27.06822 -81.21627
v 39.38834 27.06822 -85.1823
v 39.38834 27.06822 -83.29368
v 39.38299 27.06822 -82.15605
v 40.09924 27.06822 -82.15605
v 40.09924 27.06822 -83.29368
v 39.38299 27.06822 -82.0446
v 38.15093 27.06822 -78.32624
v 41.6727 27.06822 -78.32624
v 41.6727 27.06822 -82.0446
v 32.04793 27.08092 -85.62153
v 27.87455 27.08092 -88.47548
v 32.04793 27.08092 -88.49944
v 27.87455 27.08092 -84.29786
v 32.08533 27.08092 -84.29786
v 33.61204 27.08092 -85.62153
v 33.61204 27.08092 -85.1823
v 38.15093 27.08092 -81.23322
v 32.08533 27.08092 -81.21627
v 39.38834 27.08092 -85.1823
v 39.38834 27.08092 -83.29368
v 39.38299 27.08092 -82.15605
v 40.09924 27.08092 -82.15605
v 40.09924 27.08092 -83.29368
v 39.38299 27.08092 -82.0446
v 38.15093 27.08092 -78.32624
v 41.6727 27.08092 -78.32624
v 41.6727 27.08092 -82.0446

vn 0 1.192093E-07 1
vn 0 1.192093E-07 1
vn 0 1.192093E-07 1
vn 0 1.192093E-07 1
vn -1 0 0
vn -1 0 0
vn -1 0 0
vn -1 0 0
vn 0.002793345 1.192088E-07 0.9999961
vn 0.002793345 1.192088E-07 0.9999961
vn 0.002793345 1.192088E-07 0.9999961
vn 0.002793345 1.192088E-07 0.9999961
vn -1 0 0
vn -1 0 0
vn -1 0 0
vn -1 0 0
vn 0 1.192093E-07 1
vn 0 1.192093E-07 1
vn 0 1.192093E-07 1
vn 0 1.192093E-07 1
vn 1 0 0
vn 1 0 0
vn 1 0 0
vn 1 0 0
vn 0 -1.192093E-07 -1
vn 0 -1.192093E-07 -1
vn 0 -1.192093E-07 -1
vn 0 -1.192093E-07 -1
vn 1 0 0
vn 1 0 0
vn 1 0 0
vn 1 0 0
vn 0 1.192093E-07 1
vn 0 1.192093E-07 1
vn 0 1.192093E-07 1
vn 0 1.192093E-07 1
vn 1 0 0
vn 1 0 0
vn 1 0 0
vn 1 0 0
vn 0 -1.192093E-07 -1
vn 0 -1.192093E-07 -1
vn 0 -1.192093E-07 -1
vn 0 -1.192093E-07 -1
vn 1 0 0
vn 1 0 0
vn 1 0 0
vn 1 0 0
vn 0 -1.192093E-07 -1
vn 0 -1.192093E-07 -1
vn 0 -1.192093E-07 -1
vn 0 -1.192093E-07 -1
vn 1 0 0
vn 1 0 0
vn 1 0 0
vn 1 0 0
vn 0 -1.192093E-07 -1
vn 0 -1.192093E-07 -1
vn 0 -1.192093E-07 -1
vn 0 -1.192093E-07 -1
vn 1 0 0
vn 1 0 0
vn 1 0 0
vn 1 0 0
vn -0.005739874 -1.192073E-07 -0.9999835
vn -0.005739874 -1.192073E-07 -0.9999835
vn -0.005739875 -1.192073E-07 -0.9999835
vn -0.005739875 -1.192073E-07 -0.9999835
vn -1 0 0
vn -1 0 0
vn -1 0 0
vn -1 0 0
vn 0 -1 1.192093E-07
vn 0 -1 1.192093E-07
vn 0 -1 1.192093E-07
vn 0 -1 1.192093E-07
vn 0 -1 1.192093E-07
vn 0 -1 1.192093E-07
vn 0 -1 1.192093E-07
vn 0 -1 1.192093E-07
vn 0 -1 1.192093E-07
vn 0 -1 1.192093E-07
vn 0 -1 1.192093E-07
vn 0 -1 1.192093E-07
vn 0 -1 1.192093E-07
vn 0 -1 1.192093E-07
vn 0 -1 1.192093E-07
vn 0 -1 1.192093E-07
vn 0 -1 1.192093E-07
vn 0 -1 1.192093E-07
vn 0 1 -1.192093E-07
vn 0 1 -1.192093E-07
vn 0 1 -1.192093E-07
vn 0 1 -1.192093E-07
vn 0 1 -1.192093E-07
vn 0 1 -1.192093E-07
vn 0 1 -1.192093E-07
vn 0 1 -1.192093E-07
vn 0 1 -1.192093E-07
vn 0 1 -1.192093E-07
vn 0 1 -1.192093E-07
vn 0 1 -1.192093E-07
vn 0 1 -1.192093E-07
vn 0 1 -1.192093E-07
vn 0 1 -1.192093E-07
vn 0 1 -1.192093E-07
vn 0 1 -1.192093E-07
vn 0 1 -1.192093E-07

vt -7.087033 1.820083
vt -2.422715 1.820081
vt -2.422715 1.820081
vt -7.087033 1.820083
vt -2.422715 1.820081
vt -2.422716 -2.776334
vt -2.422716 -2.776334
vt -2.422715 1.820081
vt -2.422716 -2.776334
vt 4.296188 -2.751064
vt 4.296188 -2.751064
vt -2.422716 -2.776334
vt 4.296188 -2.751064
vt 4.296187 -7.087032
vt 4.296187 -7.087032
vt 4.296188 -2.751064
vt 4.296187 -7.087032
vt 8.197282 -7.087033
vt 8.197282 -7.087033
vt 4.296187 -7.087032
vt 8.197282 -7.087033
vt 8.197283 -1.540826
vt 8.197283 -1.540826
vt 8.197282 -7.087033
vt 8.197283 -1.540826
vt 5.660956 -1.540825
vt 5.660956 -1.540825
vt 8.197283 -1.540826
vt 5.660956 -1.540825
vt 5.660956 -1.374586
vt 5.660956 -1.374586
vt 5.660956 -1.540825
vt 5.660956 -1.374586
vt 6.454341 -1.374586
vt 6.454341 -1.374586
vt 5.660956 -1.374586
vt 6.454341 -1.374586
vt 6.454342 0.3222673
vt 6.454342 0.3222673
vt 6.454341 -1.374586
vt 6.454342 0.3222673
vt 5.666877 0.3222675
vt 5.666877 0.3222675
vt 6.454342 0.3222673
vt 5.666877 0.3222675
vt 5.666878 3.139277
vt 5.666878 3.139277
vt 5.666877 0.3222675
vt 5.666878 3.139277
vt -0.7315737 3.139279
vt -0.7315737 3.139279
vt 5.666878 3.139277
vt -0.7315737 3.139279
vt -0.7315737 3.79443
vt -0.7315737 3.79443
vt -0.7315737 3.139279
vt -0.7315737 3.79443
vt -2.464147 3.79443
vt -2.464147 3.79443
vt -0.7315737 3.79443
vt -2.464147 3.79443
vt -2.464146 8.087032
vt -2.464146 8.087032
vt -2.464147 3.79443
vt -2.464146 8.087032
vt -7.087032 8.051304
vt -7.087032 8.051304
vt -2.464146 8.087032
vt -7.087032 8.051304
vt -7.087033 1.820083
vt -7.087033 1.820083
vt -7.087032 8.051304
vt -2.464147 3.79443
vt -2.464146 8.087032
vt -7.087032 8.051304
vt -7.087033 1.820083
vt -2.422715 1.820081
vt -0.7315737 3.79443
vt -0.7315737 3.139279
vt 4.296188 -2.751064
vt -2.422716 -2.776334
vt 5.666878 3.139277
vt 5.666877 0.3222675
vt 5.660956 -1.374586
vt 6.454341 -1.374586
vt 6.454342 0.3222673
vt 5.660956 -1.540825
vt 4.296187 -7.087032
vt 8.197282 -7.087033
vt 8.197283 -1.540826
vt -2.464147 3.79443
vt -7.087032 8.051304
vt -2.464146 8.087032
vt -7.087033 1.820083
vt -2.422715 1.820081
vt -0.7315737 3.79443
vt -0.7315737 3.139279
vt 4.296188 -2.751064
vt -2.422716 -2.776334
vt 5.666878 3.139277
vt 5.666877 0.3222675
vt 5.660956 -1.374586
vt 6.454341 -1.374586
vt 6.454342 0.3222673
vt 5.660956 -1.540825
vt 4.296187 -7.087032
vt 8.197282 -7.087033
vt 8.197283 -1.540826

vt1 0 0
vt1 0 0
vt1 0 0
vt1 0 0
vt1 0 0
vt1 0 0
vt1 0 0
vt1 0 0
vt1 0 0
vt1 0 0
vt1 0 0
vt1 0 0
vt1 0 0
vt1 0 0
vt1 0 0
vt1 0 0
vt1 0 0
vt1 0 0
vt1 0 0
vt1 0 0
vt1 0 0
vt1 0 0
vt1 0 0
vt1 0 0
vt1 0 0
vt1 0 0
vt1 0 0
vt1 0 0
vt1 0 0
vt1 0 0
vt1 0 0
vt1 0 0
vt1 0 0
vt1 0 0
vt1 0 0
vt1 0 0
vt1 0 0
vt1 0 0
vt1 0 0
vt1 0 0
vt1 0 0
vt1 0 0
vt1 0 0
vt1 0 0
vt1 0 0
vt1 0 0
vt1 0 0
vt1 0 0
vt1 0 0
vt1 0 0
vt1 0 0
vt1 0 0
vt1 0 0
vt1 0 0
vt1 0 0
vt1 0 0
vt1 0 0
vt1 0 0
vt1 0 0
vt1 0 0
vt1 0 0
vt1 0 0
vt1 0 0
vt1 0 0
vt1 0 0
vt1 0 0
vt1 0 0
vt1 0 0
vt1 0 0
vt1 0 0
vt1 0 0
vt1 0 0
vt1 0 0
vt1 0 0
vt1 0 0
vt1 0 0
vt1 0 0
vt1 0 0
vt1 0 0
vt1 0 0
vt1 0 0
vt1 0 0
vt1 0 0
vt1 0 0
vt1 0 0
vt1 0 0
vt1 0 0
vt1 0 0
vt1 0 0
vt1 0 0
vt1 0 0
vt1 0 0
vt1 0 0
vt1 0 0
vt1 0 0
vt1 0 0
vt1 0 0
vt1 0 0
vt1 0 0
vt1 0 0
vt1 0 0
vt1 0 0
vt1 0 0
vt1 0 0
vt1 0 0
vt1 0 0
vt1 0 0
vt1 0 0

vt2 0 0
vt2 0 0
vt2 0 0
vt2 0 0
vt2 0 0
vt2 0 0
vt2 0 0
vt2 0 0
vt2 0 0
vt2 0 0
vt2 0 0
vt2 0 0
vt2 0 0
vt2 0 0
vt2 0 0
vt2 0 0
vt2 0 0
vt2 0 0
vt2 0 0
vt2 0 0
vt2 0 0
vt2 0 0
vt2 0 0
vt2 0 0
vt2 0 0
vt2 0 0
vt2 0 0
vt2 0 0
vt2 0 0
vt2 0 0
vt2 0 0
vt2 0 0
vt2 0 0
vt2 0 0
vt2 0 0
vt2 0 0
vt2 0 0
vt2 0 0
vt2 0 0
vt2 0 0
vt2 0 0
vt2 0 0
vt2 0 0
vt2 0 0
vt2 0 0
vt2 0 0
vt2 0 0
vt2 0 0
vt2 0 0
vt2 0 0
vt2 0 0
vt2 0 0
vt2 0 0
vt2 0 0
vt2 0 0
vt2 0 0
vt2 0 0
vt2 0 0
vt2 0 0
vt2 0 0
vt2 0 0
vt2 0 0
vt2 0 0
vt2 0 0
vt2 0 0
vt2 0 0
vt2 0 0
vt2 0 0
vt2 0 0
vt2 0 0
vt2 0 0
vt2 0 0
vt2 0 0
vt2 0 0
vt2 0 0
vt2 0 0
vt2 0 0
vt2 0 0
vt2 0 0
vt2 0 0
vt2 0 0
vt2 0 0
vt2 0 0
vt2 0 0
vt2 0 0
vt2 0 0
vt2 0 0
vt2 0 0
vt2 0 0
vt2 0 0
vt2 0 0
vt2 0 0
vt2 0 0
vt2 0 0
vt2 0 0
vt2 0 0
vt2 0 0
vt2 0 0
vt2 0 0
vt2 0 0
vt2 0 0
vt2 0 0
vt2 0 0
vt2 0 0
vt2 0 0
vt2 0 0
vt2 0 0
vt2 0 0

vc 1 1 1 1
vc 1 1 1 1
vc 1 1 1 1
vc 1 1 1 1
vc 1 1 1 1
vc 1 1 1 1
vc 1 1 1 1
vc 1 1 1 1
vc 1 1 1 1
vc 1 1 1 1
vc 1 1 1 1
vc 1 1 1 1
vc 1 1 1 1
vc 1 1 1 1
vc 1 1 1 1
vc 1 1 1 1
vc 1 1 1 1
vc 1 1 1 1
vc 1 1 1 1
vc 1 1 1 1
vc 1 1 1 1
vc 1 1 1 1
vc 1 1 1 1
vc 1 1 1 1
vc 1 1 1 1
vc 1 1 1 1
vc 1 1 1 1
vc 1 1 1 1
vc 1 1 1 1
vc 1 1 1 1
vc 1 1 1 1
vc 1 1 1 1
vc 1 1 1 1
vc 1 1 1 1
vc 1 1 1 1
vc 1 1 1 1
vc 1 1 1 1
vc 1 1 1 1
vc 1 1 1 1
vc 1 1 1 1
vc 1 1 1 1
vc 1 1 1 1
vc 1 1 1 1
vc 1 1 1 1
vc 1 1 1 1
vc 1 1 1 1
vc 1 1 1 1
vc 1 1 1 1
vc 1 1 1 1
vc 1 1 1 1
vc 1 1 1 1
vc 1 1 1 1
vc 1 1 1 1
vc 1 1 1 1
vc 1 1 1 1
vc 1 1 1 1
vc 1 1 1 1
vc 1 1 1 1
vc 1 1 1 1
vc 1 1 1 1
vc 1 1 1 1
vc 1 1 1 1
vc 1 1 1 1
vc 1 1 1 1
vc 1 1 1 1
vc 1 1 1 1
vc 1 1 1 1
vc 1 1 1 1
vc 1 1 1 1
vc 1 1 1 1
vc 1 1 1 1
vc 1 1 1 1
vc 1 1 1 1
vc 1 1 1 1
vc 1 1 1 1
vc 1 1 1 1
vc 1 1 1 1
vc 1 1 1 1
vc 1 1 1 1
vc 1 1 1 1
vc 1 1 1 1
vc 1 1 1 1
vc 1 1 1 1
vc 1 1 1 1
vc 1 1 1 1
vc 1 1 1 1
vc 1 1 1 1
vc 1 1 1 1
vc 1 1 1 1
vc 1 1 1 1
vc 1 1 1 1
vc 1 1 1 1
vc 1 1 1 1
vc 1 1 1 1
vc 1 1 1 1
vc 1 1 1 1
vc 1 1 1 1
vc 1 1 1 1
vc 1 1 1 1
vc 1 1 1 1
vc 1 1 1 1
vc 1 1 1 1
vc 1 1 1 1
vc 1 1 1 1
vc 1 1 1 1
vc 1 1 1 1
vc 1 1 1 1
vc 1 1 1 1
f 1/1/1 3/3/3 2/2/2
f 1/1/1 2/2/2 4/4/4
f 5/5/5 7/7/7 6/6/6
f 5/5/5 6/6/6 8/8/8
f 9/9/9 11/11/11 10/10/10
f 9/9/9 10/10/10 12/12/12
f 13/13/13 15/15/15 14/14/14
f 13/13/13 14/14/14 16/16/16
f 17/17/17 19/19/19 18/18/18
f 17/17/17 18/18/18 20/20/20
f 21/21/21 23/23/23 22/22/22
f 21/21/21 22/22/22 24/24/24
f 25/25/25 27/27/27 26/26/26
f 25/25/25 26/26/26 28/28/28
f 29/29/29 31/31/31 30/30/30
f 29/29/29 30/30/30 32/32/32
f 33/33/33 35/35/35 34/34/34
f 33/33/33 34/34/34 36/36/36
f 37/37/37 39/39/39 38/38/38
f 37/37/37 38/38/38 40/40/40
f 41/41/41 43/43/43 42/42/42
f 41/41/41 42/42/42 44/44/44
f 45/45/45 47/47/47 46/46/46
f 45/45/45 46/46/46 48/48/48
f 49/49/49 51/51/51 50/50/50
f 49/49/49 50/50/50 52/52/52
f 53/53/53 55/55/55 54/54/54
f 53/53/53 54/54/54 56/56/56
f 57/57/57 59/59/59 58/58/58
f 57/57/57 58/58/58 60/60/60
f 61/61/61 63/63/63 62/62/62
f 61/61/61 62/62/62 64/64/64
f 65/65/65 67/67/67 66/66/66
f 65/65/65 66/66/66 68/68/68
f 69/69/69 71/71/71 70/70/70
f 69/69/69 70/70/70 72/72/72
f 73/73/73 75/75/75 74/74/74
f 73/73/73 76/76/76 75/75/75
f 73/73/73 77/77/77 76/76/76
f 78/78/78 77/77/77 73/73/73
f 79/79/79 77/77/77 78/78/78
f 79/79/79 80/80/80 77/77/77
f 77/77/77 80/80/80 81/81/81
f 82/82/82 80/80/80 79/79/79
f 83/83/83 80/80/80 82/82/82
f 84/84/84 80/80/80 83/83/83
f 84/84/84 83/83/83 85/85/85
f 85/85/85 83/83/83 86/86/86
f 87/87/87 80/80/80 84/84/84
f 80/80/80 87/87/87 88/88/88
f 88/88/88 87/87/87 89/89/89
f 89/89/89 87/87/87 90/90/90
f 91/91/91 93/93/93 92/92/92
f 91/91/91 92/92/92 94/94/94
f 91/91/91 94/94/94 95/95/95
f 96/96/96 91/91/91 95/95/95
f 97/97/97 96/96/96 95/95/95
f 97/97/97 95/95/95 98/98/98
f 95/95/95 99/99/99 98/98/98
f 100/100/100 97/97/97 98/98/98
f 101/101/101 100/100/100 98/98/98
f 102/102/102 101/101/101 98/98/98
f 102/102/102 103/103/103 101/101/101
f 103/103/103 104/104/104 101/101/101
f 105/105/105 102/102/102 98/98/98
f 98/98/98 106/106/106 105/105/105
f 106/106/106 107/107/107 105/105/105
f 107/107/107 108/108/108 105/105/105

