g Exported Mesh Combined Mesh 
v 33.97591 28.10283 -84.86488
v 34.77013 27.70209 -84.87009
v 33.97591 27.70209 -84.86488
v 34.77013 28.10283 -84.87009

vn 0.006570871 1.131643E-07 0.9999784
vn 0.006570871 1.131643E-07 0.9999784
vn 0.006570871 1.131643E-07 0.9999784
vn 0.006570871 1.131643E-07 0.9999784

vt 0.01517075 0.9967256
vt 0.9848294 0.003274232
vt 0.009867966 0.004600734
vt 0.9901323 0.9953992

vt1 0 0
vt1 0 0
vt1 0 0
vt1 0 0

vt2 0 0
vt2 0 0
vt2 0 0
vt2 0 0

vc 1 1 1 1
vc 1 1 1 1
vc 1 1 1 1
vc 1 1 1 1
f 1/1/1 3/3/3 2/2/2
f 2/2/2 4/4/4 1/1/1

