g Exported Mesh Combined Mesh 
v 41.55654 33.8475 -82.75305
v 41.55654 33.80534 -78.85848
v 41.55654 33.8475 -78.85848
v 41.55654 33.80534 -82.75305
v 40.85677 33.8475 -82.75305
v 41.55654 33.80534 -82.75305
v 41.55654 33.8475 -82.75305
v 40.85677 33.80534 -82.75305
v 40.85678 33.8475 -78.85849
v 40.85677 33.80534 -82.75305
v 40.85677 33.8475 -82.75305
v 40.85678 33.80534 -78.85849
v 41.38868 33.8475 -79.65581
v 41.55654 33.8475 -78.85848
v 41.38868 33.8475 -79.31696
v 41.55654 33.8475 -82.75305
v 40.85677 33.8475 -82.75305
v 41.0052 33.8475 -79.65581
v 40.85678 33.8475 -78.85849
v 41.0052 33.8475 -79.31696
v 41.0052 33.80534 -79.31696
v 41.55654 33.80534 -78.85848
v 41.38868 33.80534 -79.31696
v 40.85678 33.80534 -78.85849
v 41.0052 33.80534 -79.65581
v 40.85677 33.80534 -82.75305
v 41.38868 33.80534 -79.65581
v 41.55654 33.80534 -82.75305
v 41.38868 33.8475 -79.31696
v 41.0052 33.80534 -79.31696
v 41.38868 33.80534 -79.31696
v 41.0052 33.8475 -79.31696
v 41.0052 33.8475 -79.31696
v 41.0052 33.80534 -79.65581
v 41.0052 33.80534 -79.31696
v 41.0052 33.8475 -79.65581
v 41.38868 33.8475 -79.65581
v 41.0052 33.80534 -79.65581
v 41.0052 33.8475 -79.65581
v 41.38868 33.80534 -79.65581
v 41.38868 33.8475 -79.31696
v 41.38868 33.80534 -79.65581
v 41.38868 33.8475 -79.65581
v 41.38868 33.80534 -79.31696
v 38.90332 33.8475 -78.85546
v 38.90332 33.80534 -81.83736
v 38.90332 33.8475 -81.83736
v 38.90332 33.80534 -78.85546
v 39.60308 33.8475 -78.85546
v 38.90332 33.80534 -78.85546
v 38.90332 33.8475 -78.85546
v 39.60308 33.80534 -78.85546
v 39.60308 33.8475 -81.83736
v 39.60308 33.80534 -78.85546
v 39.60308 33.8475 -78.85546
v 39.60308 33.80534 -81.83736
v 39.07117 33.8475 -80.10748
v 38.90332 33.8475 -81.83736
v 39.07117 33.8475 -80.44633
v 38.90332 33.8475 -78.85546
v 39.60308 33.8475 -78.85546
v 39.45466 33.8475 -80.10748
v 39.60308 33.8475 -81.83736
v 39.45466 33.8475 -80.44633
v 39.45466 33.80534 -80.44633
v 38.90332 33.80534 -81.83736
v 39.07117 33.80534 -80.44633
v 39.60308 33.80534 -81.83736
v 39.45466 33.80534 -80.10748
v 39.60308 33.80534 -78.85546
v 39.07117 33.80534 -80.10748
v 38.90332 33.80534 -78.85546
v 39.07117 33.8475 -80.44633
v 39.45466 33.80534 -80.44633
v 39.07117 33.80534 -80.44633
v 39.45466 33.8475 -80.44633
v 39.45466 33.8475 -80.44633
v 39.45466 33.80534 -80.10748
v 39.45466 33.80534 -80.44633
v 39.45466 33.8475 -80.10748
v 39.07117 33.8475 -80.10748
v 39.45466 33.80534 -80.10748
v 39.45466 33.8475 -80.10748
v 39.07117 33.80534 -80.10748
v 39.07117 33.8475 -80.44633
v 39.07117 33.80534 -80.10748
v 39.07117 33.8475 -80.10748
v 39.07117 33.80534 -80.44633

vn 1 0 0
vn 1 0 0
vn 1 0 0
vn 1 0 0
vn 0 -1.192093E-07 -1
vn 0 -1.192093E-07 -1
vn 0 -1.192093E-07 -1
vn 0 -1.192093E-07 -1
vn -1 1.541293E-13 1.292931E-06
vn -1 1.541293E-13 1.292931E-06
vn -1 1.541293E-13 1.292931E-06
vn -1 1.541293E-13 1.292931E-06
vn 5.877097E-09 1 -1.192093E-07
vn 0 1 -1.192093E-07
vn 2.606318E-08 1 -1.192093E-07
vn 0 1 -1.192093E-07
vn 0 1 -1.192093E-07
vn -9.662949E-09 1 -1.192093E-07
vn 0 1 -1.192093E-07
vn 6.002377E-08 1 -1.040388E-07
vn -1.927356E-08 -1 1.192093E-07
vn 0 -1 1.192093E-07
vn 1.231889E-08 -1 1.192093E-07
vn 0 -1 1.192093E-07
vn 0 -1 1.192093E-07
vn 0 -1 1.192093E-07
vn 0 -1 1.192093E-07
vn 0 -1 1.192093E-07
vn 0 -1.192093E-07 -1
vn 0 -1.192093E-07 -1
vn 0 -1.192093E-07 -1
vn 0 -1.192093E-07 -1
vn 1 0 0
vn 1 0 0
vn 1 0 0
vn 1 0 0
vn 0 1.192093E-07 1
vn 0 1.192093E-07 1
vn 0 1.192093E-07 1
vn 0 1.192093E-07 1
vn -1 0 0
vn -1 0 0
vn -1 0 0
vn -1 0 0
vn -1 -1.80001E-14 -1.509958E-07
vn -1 -1.80001E-14 -1.509958E-07
vn -1 -1.80001E-14 -1.509958E-07
vn -1 -1.80001E-14 -1.509958E-07
vn -5.871075E-07 1.192093E-07 1
vn -5.871075E-07 1.192093E-07 1
vn -5.871075E-07 1.192093E-07 1
vn -5.871075E-07 1.192093E-07 1
vn 1 -1.772036E-13 -1.486492E-06
vn 1 -1.772036E-13 -1.486492E-06
vn 1 -1.772036E-13 -1.486492E-06
vn 1 -1.772036E-13 -1.486492E-06
vn 0 1 -1.192093E-07
vn 0 1 -1.192093E-07
vn -7.441458E-08 1 -1.132641E-07
vn 0 1 -1.192093E-07
vn 0 1 -1.192093E-07
vn 9.028905E-09 1 -1.192093E-07
vn 0 1 -1.192093E-07
vn -1.631442E-07 1 -1.363863E-07
vn 4.536566E-08 -1 1.192093E-07
vn 0 -1 1.192093E-07
vn -3.506976E-08 -1 1.192093E-07
vn 0 -1 1.192093E-07
vn 0 -1 1.192093E-07
vn 0 -1 1.192093E-07
vn 0 -1 1.192093E-07
vn 0 -1 1.192093E-07
vn -5.488926E-07 1.192093E-07 1
vn -5.488926E-07 1.192093E-07 1
vn -5.488926E-07 1.192093E-07 1
vn -5.488926E-07 1.192093E-07 1
vn -1 -1.80001E-14 -1.509958E-07
vn -1 -1.80001E-14 -1.509958E-07
vn -1 -1.80001E-14 -1.509958E-07
vn -1 -1.80001E-14 -1.509958E-07
vn 9.467894E-07 -1.192093E-07 -1
vn 9.467894E-07 -1.192093E-07 -1
vn 9.467894E-07 -1.192093E-07 -1
vn 9.467894E-07 -1.192093E-07 -1
vn 1 1.80001E-14 1.509958E-07
vn 1 1.80001E-14 1.509958E-07
vn 1 1.80001E-14 1.509958E-07
vn 1 1.80001E-14 1.509958E-07

vt 0 0
vt 0 0
vt 0 0
vt 0 0
vt 0 0
vt 0 0
vt 0 0
vt 0 0
vt 0 0
vt 0 0
vt 0 0
vt 0 0
vt 0 0
vt 0 0
vt 0 0
vt 0 0
vt 0 0
vt 0 0
vt 0 0
vt 0 0
vt 0 0
vt 0 0
vt 0 0
vt 0 0
vt 0 0
vt 0 0
vt 0 0
vt 0 0
vt 0 0
vt 0 0
vt 0 0
vt 0 0
vt 0 0
vt 0 0
vt 0 0
vt 0 0
vt 0 0
vt 0 0
vt 0 0
vt 0 0
vt 0 0
vt 0 0
vt 0 0
vt 0 0
vt 0 0
vt 0 0
vt 0 0
vt 0 0
vt 0 0
vt 0 0
vt 0 0
vt 0 0
vt 0 0
vt 0 0
vt 0 0
vt 0 0
vt 0 0
vt 0 0
vt 0 0
vt 0 0
vt 0 0
vt 0 0
vt 0 0
vt 0 0
vt 0 0
vt 0 0
vt 0 0
vt 0 0
vt 0 0
vt 0 0
vt 0 0
vt 0 0
vt 0 0
vt 0 0
vt 0 0
vt 0 0
vt 0 0
vt 0 0
vt 0 0
vt 0 0
vt 0 0
vt 0 0
vt 0 0
vt 0 0
vt 0 0
vt 0 0
vt 0 0
vt 0 0

vt1 0 0
vt1 0 0
vt1 0 0
vt1 0 0
vt1 0 0
vt1 0 0
vt1 0 0
vt1 0 0
vt1 0 0
vt1 0 0
vt1 0 0
vt1 0 0
vt1 0 0
vt1 0 0
vt1 0 0
vt1 0 0
vt1 0 0
vt1 0 0
vt1 0 0
vt1 0 0
vt1 0 0
vt1 0 0
vt1 0 0
vt1 0 0
vt1 0 0
vt1 0 0
vt1 0 0
vt1 0 0
vt1 0 0
vt1 0 0
vt1 0 0
vt1 0 0
vt1 0 0
vt1 0 0
vt1 0 0
vt1 0 0
vt1 0 0
vt1 0 0
vt1 0 0
vt1 0 0
vt1 0 0
vt1 0 0
vt1 0 0
vt1 0 0
vt1 0 0
vt1 0 0
vt1 0 0
vt1 0 0
vt1 0 0
vt1 0 0
vt1 0 0
vt1 0 0
vt1 0 0
vt1 0 0
vt1 0 0
vt1 0 0
vt1 0 0
vt1 0 0
vt1 0 0
vt1 0 0
vt1 0 0
vt1 0 0
vt1 0 0
vt1 0 0
vt1 0 0
vt1 0 0
vt1 0 0
vt1 0 0
vt1 0 0
vt1 0 0
vt1 0 0
vt1 0 0
vt1 0 0
vt1 0 0
vt1 0 0
vt1 0 0
vt1 0 0
vt1 0 0
vt1 0 0
vt1 0 0
vt1 0 0
vt1 0 0
vt1 0 0
vt1 0 0
vt1 0 0
vt1 0 0
vt1 0 0
vt1 0 0

vt2 0 0
vt2 0 0
vt2 0 0
vt2 0 0
vt2 0 0
vt2 0 0
vt2 0 0
vt2 0 0
vt2 0 0
vt2 0 0
vt2 0 0
vt2 0 0
vt2 0 0
vt2 0 0
vt2 0 0
vt2 0 0
vt2 0 0
vt2 0 0
vt2 0 0
vt2 0 0
vt2 0 0
vt2 0 0
vt2 0 0
vt2 0 0
vt2 0 0
vt2 0 0
vt2 0 0
vt2 0 0
vt2 0 0
vt2 0 0
vt2 0 0
vt2 0 0
vt2 0 0
vt2 0 0
vt2 0 0
vt2 0 0
vt2 0 0
vt2 0 0
vt2 0 0
vt2 0 0
vt2 0 0
vt2 0 0
vt2 0 0
vt2 0 0
vt2 0 0
vt2 0 0
vt2 0 0
vt2 0 0
vt2 0 0
vt2 0 0
vt2 0 0
vt2 0 0
vt2 0 0
vt2 0 0
vt2 0 0
vt2 0 0
vt2 0 0
vt2 0 0
vt2 0 0
vt2 0 0
vt2 0 0
vt2 0 0
vt2 0 0
vt2 0 0
vt2 0 0
vt2 0 0
vt2 0 0
vt2 0 0
vt2 0 0
vt2 0 0
vt2 0 0
vt2 0 0
vt2 0 0
vt2 0 0
vt2 0 0
vt2 0 0
vt2 0 0
vt2 0 0
vt2 0 0
vt2 0 0
vt2 0 0
vt2 0 0
vt2 0 0
vt2 0 0
vt2 0 0
vt2 0 0
vt2 0 0
vt2 0 0

vc 1 1 1 1
vc 1 1 1 1
vc 1 1 1 1
vc 1 1 1 1
vc 1 1 1 1
vc 1 1 1 1
vc 1 1 1 1
vc 1 1 1 1
vc 1 1 1 1
vc 1 1 1 1
vc 1 1 1 1
vc 1 1 1 1
vc 1 1 1 1
vc 1 1 1 1
vc 1 1 1 1
vc 1 1 1 1
vc 1 1 1 1
vc 1 1 1 1
vc 1 1 1 1
vc 1 1 1 1
vc 1 1 1 1
vc 1 1 1 1
vc 1 1 1 1
vc 1 1 1 1
vc 1 1 1 1
vc 1 1 1 1
vc 1 1 1 1
vc 1 1 1 1
vc 1 1 1 1
vc 1 1 1 1
vc 1 1 1 1
vc 1 1 1 1
vc 1 1 1 1
vc 1 1 1 1
vc 1 1 1 1
vc 1 1 1 1
vc 1 1 1 1
vc 1 1 1 1
vc 1 1 1 1
vc 1 1 1 1
vc 1 1 1 1
vc 1 1 1 1
vc 1 1 1 1
vc 1 1 1 1
vc 1 1 1 1
vc 1 1 1 1
vc 1 1 1 1
vc 1 1 1 1
vc 1 1 1 1
vc 1 1 1 1
vc 1 1 1 1
vc 1 1 1 1
vc 1 1 1 1
vc 1 1 1 1
vc 1 1 1 1
vc 1 1 1 1
vc 1 1 1 1
vc 1 1 1 1
vc 1 1 1 1
vc 1 1 1 1
vc 1 1 1 1
vc 1 1 1 1
vc 1 1 1 1
vc 1 1 1 1
vc 1 1 1 1
vc 1 1 1 1
vc 1 1 1 1
vc 1 1 1 1
vc 1 1 1 1
vc 1 1 1 1
vc 1 1 1 1
vc 1 1 1 1
vc 1 1 1 1
vc 1 1 1 1
vc 1 1 1 1
vc 1 1 1 1
vc 1 1 1 1
vc 1 1 1 1
vc 1 1 1 1
vc 1 1 1 1
vc 1 1 1 1
vc 1 1 1 1
vc 1 1 1 1
vc 1 1 1 1
vc 1 1 1 1
vc 1 1 1 1
vc 1 1 1 1
vc 1 1 1 1
f 1/1/1 3/3/3 2/2/2
f 2/2/2 4/4/4 1/1/1
f 5/5/5 7/7/7 6/6/6
f 6/6/6 8/8/8 5/5/5
f 9/9/9 11/11/11 10/10/10
f 10/10/10 12/12/12 9/9/9
f 13/13/13 15/15/15 14/14/14
f 13/13/13 14/14/14 16/16/16
f 13/13/13 16/16/16 17/17/17
f 18/18/18 13/13/13 17/17/17
f 18/18/18 17/17/17 19/19/19
f 20/20/20 18/18/18 19/19/19
f 20/20/20 19/19/19 14/14/14
f 20/20/20 14/14/14 15/15/15
f 21/21/21 23/23/23 22/22/22
f 21/21/21 22/22/22 24/24/24
f 25/25/25 21/21/21 24/24/24
f 25/25/25 24/24/24 26/26/26
f 27/27/27 25/25/25 26/26/26
f 27/27/27 22/22/22 23/23/23
f 27/27/27 26/26/26 28/28/28
f 27/27/27 28/28/28 22/22/22
f 29/29/29 31/31/31 30/30/30
f 30/30/30 32/32/32 29/29/29
f 33/33/33 35/35/35 34/34/34
f 34/34/34 36/36/36 33/33/33
f 37/37/37 39/39/39 38/38/38
f 38/38/38 40/40/40 37/37/37
f 41/41/41 43/43/43 42/42/42
f 42/42/42 44/44/44 41/41/41
f 45/45/45 47/47/47 46/46/46
f 46/46/46 48/48/48 45/45/45
f 49/49/49 51/51/51 50/50/50
f 50/50/50 52/52/52 49/49/49
f 53/53/53 55/55/55 54/54/54
f 54/54/54 56/56/56 53/53/53
f 57/57/57 59/59/59 58/58/58
f 57/57/57 58/58/58 60/60/60
f 57/57/57 60/60/60 61/61/61
f 62/62/62 57/57/57 61/61/61
f 62/62/62 61/61/61 63/63/63
f 64/64/64 62/62/62 63/63/63
f 64/64/64 63/63/63 58/58/58
f 64/64/64 58/58/58 59/59/59
f 65/65/65 67/67/67 66/66/66
f 65/65/65 66/66/66 68/68/68
f 69/69/69 65/65/65 68/68/68
f 69/69/69 68/68/68 70/70/70
f 71/71/71 69/69/69 70/70/70
f 71/71/71 66/66/66 67/67/67
f 71/71/71 70/70/70 72/72/72
f 71/71/71 72/72/72 66/66/66
f 73/73/73 75/75/75 74/74/74
f 74/74/74 76/76/76 73/73/73
f 77/77/77 79/79/79 78/78/78
f 78/78/78 80/80/80 77/77/77
f 81/81/81 83/83/83 82/82/82
f 82/82/82 84/84/84 81/81/81
f 85/85/85 87/87/87 86/86/86
f 86/86/86 88/88/88 85/85/85

