g Exported Mesh Combined Mesh 
v 35.80043 32.96503 -81.59711
v 34.94228 32.96503 -82.05431
v 34.94228 32.96503 -81.59711
v 35.80043 32.96503 -82.05431
v 35.80043 32.96503 -81.59711
v 35.80043 35.09863 -82.05431
v 35.80043 32.96503 -82.05431
v 35.80043 35.09863 -81.59711
v 35.80043 32.96503 -82.05431
v 34.94228 35.09863 -82.05431
v 34.94228 32.96503 -82.05431
v 35.80043 35.09863 -82.05431
v 34.94228 32.96503 -82.05431
v 34.94228 35.09863 -81.59711
v 34.94228 32.96503 -81.59711
v 34.94228 35.09863 -82.05431
v 34.94228 32.96503 -81.59711
v 35.80043 35.09863 -81.59711
v 35.80043 32.96503 -81.59711
v 34.94228 35.09863 -81.59711
v 36.66471 32.96503 -81.59711
v 35.80656 32.96503 -82.05431
v 35.80656 32.96503 -81.59711
v 36.66471 32.96503 -82.05431
v 36.66471 32.96503 -82.05431
v 35.80656 35.09863 -82.05431
v 35.80656 32.96503 -82.05431
v 36.66471 35.09863 -82.05431
v 35.80656 32.96503 -82.05431
v 35.80656 35.09863 -81.59711
v 35.80656 32.96503 -81.59711
v 35.80656 35.09863 -82.05431
v 35.80656 32.96503 -81.59711
v 36.66471 35.09863 -81.59711
v 36.66471 32.96503 -81.59711
v 35.80656 35.09863 -81.59711
v 35.80043 35.09863 -81.59711
v 34.94228 35.09863 -82.05431
v 35.80043 35.09863 -82.05431
v 34.94228 35.09863 -81.59711
v 36.66471 35.09863 -81.59711
v 35.80656 35.09863 -82.05431
v 36.66471 35.09863 -82.05431
v 35.80656 35.09863 -81.59711
v 36.66471 32.96503 -81.59711
v 36.66471 35.09863 -82.05431
v 36.66471 32.96503 -82.05431
v 36.66471 35.09863 -81.59711

vn 0 -1 1.192093E-07
vn 0 -1 1.192093E-07
vn 0 -1 1.192093E-07
vn 0 -1 1.192093E-07
vn 1 -1.421085E-14 -1.192093E-07
vn 1 -1.421085E-14 -1.192093E-07
vn 1 -1.421085E-14 -1.192093E-07
vn 1 -1.421085E-14 -1.192093E-07
vn -2.303408E-07 -1.192093E-07 -1
vn -2.303408E-07 -1.192093E-07 -1
vn -2.303408E-07 -1.192093E-07 -1
vn -2.303408E-07 -1.192093E-07 -1
vn -1 1.421085E-14 1.192093E-07
vn -1 1.421085E-14 1.192093E-07
vn -1 1.421085E-14 1.192093E-07
vn -1 1.421085E-14 1.192093E-07
vn 2.303408E-07 1.192093E-07 1
vn 2.303408E-07 1.192093E-07 1
vn 2.303408E-07 1.192093E-07 1
vn 2.303408E-07 1.192093E-07 1
vn 0 -1 1.192093E-07
vn 0 -1 1.192093E-07
vn 0 -1 1.192093E-07
vn 0 -1 1.192093E-07
vn -2.303408E-07 -1.192093E-07 -1
vn -2.303408E-07 -1.192093E-07 -1
vn -2.303408E-07 -1.192093E-07 -1
vn -2.303408E-07 -1.192093E-07 -1
vn -1 1.421085E-14 1.192093E-07
vn -1 1.421085E-14 1.192093E-07
vn -1 1.421085E-14 1.192093E-07
vn -1 1.421085E-14 1.192093E-07
vn 2.303408E-07 1.192093E-07 1
vn 2.303408E-07 1.192093E-07 1
vn 2.303408E-07 1.192093E-07 1
vn 2.303408E-07 1.192093E-07 1
vn 0 1 -1.192093E-07
vn 0 1 -1.192093E-07
vn 0 1 -1.192093E-07
vn 0 1 -1.192093E-07
vn 0 1 -1.192093E-07
vn 0 1 -1.192093E-07
vn 0 1 -1.192093E-07
vn 0 1 -1.192093E-07
vn 1 -1.421085E-14 -1.192093E-07
vn 1 -1.421085E-14 -1.192093E-07
vn 1 -1.421085E-14 -1.192093E-07
vn 1 -1.421085E-14 -1.192093E-07

vt 0.9995 0.5017795
vt 0.0004994869 0.9995005
vt 0.9994998 0.9995005
vt 0.0004997253 0.5017794
vt 0.0004999936 0.0004995167
vt 0.9995003 0.9995005
vt 0.9995003 0.0004995167
vt 0.0004999936 0.9995005
vt 0.5017794 0.0004995167
vt 0.9995005 0.9995005
vt 0.9995005 0.0004995167
vt 0.5017794 0.9995005
vt 0.0004994869 0.0004995167
vt 0.9994998 0.9995005
vt 0.9994998 0.0004995167
vt 0.0004994869 0.9995005
vt 0.0004994869 0.0004995167
vt 0.4982205 0.9995005
vt 0.4982205 0.0004995167
vt 0.0004994869 0.9995005
vt 0.9995005 0.0004996061
vt 0.0004999638 0.4982206
vt 0.9995003 0.4982207
vt 0.0005002022 0.0004995465
vt 0.0004995465 0.0004995167
vt 0.4982206 0.9995005
vt 0.4982206 0.0004995167
vt 0.0004995465 0.9995005
vt 0.0004999638 0.0004995167
vt 0.9995003 0.9995005
vt 0.9995003 0.0004995167
vt 0.0004999638 0.9995005
vt 0.5017793 0.0004995167
vt 0.9995004 0.9995005
vt 0.9995004 0.0004995167
vt 0.5017793 0.9995005
vt 0.0004999936 0.5017795
vt 0.9995005 0.9995005
vt 0.9995003 0.5017794
vt 0.0005002022 0.9995005
vt 0.0004994869 0.0004996061
vt 0.9995 0.4982206
vt 0.9994998 0.0004995465
vt 0.0004996955 0.4982207
vt 0.0004994869 0.0004995167
vt 0.9994998 0.9995005
vt 0.9994998 0.0004995167
vt 0.0004994869 0.9995005

vt1 0 0
vt1 0 0
vt1 0 0
vt1 0 0
vt1 0 0
vt1 0 0
vt1 0 0
vt1 0 0
vt1 0 0
vt1 0 0
vt1 0 0
vt1 0 0
vt1 0 0
vt1 0 0
vt1 0 0
vt1 0 0
vt1 0 0
vt1 0 0
vt1 0 0
vt1 0 0
vt1 0 0
vt1 0 0
vt1 0 0
vt1 0 0
vt1 0 0
vt1 0 0
vt1 0 0
vt1 0 0
vt1 0 0
vt1 0 0
vt1 0 0
vt1 0 0
vt1 0 0
vt1 0 0
vt1 0 0
vt1 0 0
vt1 0 0
vt1 0 0
vt1 0 0
vt1 0 0
vt1 0 0
vt1 0 0
vt1 0 0
vt1 0 0
vt1 0 0
vt1 0 0
vt1 0 0
vt1 0 0

vt2 0 0
vt2 0 0
vt2 0 0
vt2 0 0
vt2 0 0
vt2 0 0
vt2 0 0
vt2 0 0
vt2 0 0
vt2 0 0
vt2 0 0
vt2 0 0
vt2 0 0
vt2 0 0
vt2 0 0
vt2 0 0
vt2 0 0
vt2 0 0
vt2 0 0
vt2 0 0
vt2 0 0
vt2 0 0
vt2 0 0
vt2 0 0
vt2 0 0
vt2 0 0
vt2 0 0
vt2 0 0
vt2 0 0
vt2 0 0
vt2 0 0
vt2 0 0
vt2 0 0
vt2 0 0
vt2 0 0
vt2 0 0
vt2 0 0
vt2 0 0
vt2 0 0
vt2 0 0
vt2 0 0
vt2 0 0
vt2 0 0
vt2 0 0
vt2 0 0
vt2 0 0
vt2 0 0
vt2 0 0

vc 1 1 1 1
vc 1 1 1 1
vc 1 1 1 1
vc 1 1 1 1
vc 1 1 1 1
vc 1 1 1 1
vc 1 1 1 1
vc 1 1 1 1
vc 1 1 1 1
vc 1 1 1 1
vc 1 1 1 1
vc 1 1 1 1
vc 1 1 1 1
vc 1 1 1 1
vc 1 1 1 1
vc 1 1 1 1
vc 1 1 1 1
vc 1 1 1 1
vc 1 1 1 1
vc 1 1 1 1
vc 1 1 1 1
vc 1 1 1 1
vc 1 1 1 1
vc 1 1 1 1
vc 1 1 1 1
vc 1 1 1 1
vc 1 1 1 1
vc 1 1 1 1
vc 1 1 1 1
vc 1 1 1 1
vc 1 1 1 1
vc 1 1 1 1
vc 1 1 1 1
vc 1 1 1 1
vc 1 1 1 1
vc 1 1 1 1
vc 1 1 1 1
vc 1 1 1 1
vc 1 1 1 1
vc 1 1 1 1
vc 1 1 1 1
vc 1 1 1 1
vc 1 1 1 1
vc 1 1 1 1
vc 1 1 1 1
vc 1 1 1 1
vc 1 1 1 1
vc 1 1 1 1
f 45/45/45 47/47/47 46/46/46
f 45/45/45 46/46/46 48/48/48

