g Exported Mesh Combined Mesh 
v 30.72862 13.98365 -78.8441
v 30.05612 13.98365 -78.8391
v 30.05612 13.98365 -78.8441
v 30.72862 13.98365 -78.8391
v 30.05612 13.98365 -78.8441
v 30.05612 12.15224 -78.8391
v 30.05612 12.15224 -78.8441
v 30.05612 13.98365 -78.8391
v 30.05612 12.15224 -78.8441
v 30.72862 12.15224 -78.8391
v 30.72862 12.15224 -78.8441
v 30.05612 12.15224 -78.8391
v 30.72862 12.15224 -78.8441
v 30.72862 13.98365 -78.8391
v 30.72862 13.98365 -78.8441
v 30.72862 12.15224 -78.8391
v 30.05612 12.15224 -78.8441
v 30.72862 12.15224 -78.8441
v 30.72862 13.98365 -78.8441
v 30.05612 13.98365 -78.8441
v 30.05612 12.15224 -78.8391
v 30.72862 13.98365 -78.8391
v 30.72862 12.15224 -78.8391
v 30.05612 13.98365 -78.8391
v 31.42507 13.98365 -78.86721
v 30.75257 13.98365 -78.86221
v 30.75257 13.98365 -78.86721
v 31.42507 13.98365 -78.86221
v 30.75257 13.98365 -78.86721
v 30.75257 12.15224 -78.86221
v 30.75257 12.15224 -78.86721
v 30.75257 13.98365 -78.86221
v 30.75257 12.15224 -78.86721
v 31.42507 12.15224 -78.86221
v 31.42507 12.15224 -78.86721
v 30.75257 12.15224 -78.86221
v 31.42507 12.15224 -78.86721
v 31.42507 13.98365 -78.86221
v 31.42507 13.98365 -78.86721
v 31.42507 12.15224 -78.86221
v 30.75257 12.15224 -78.86721
v 31.42507 12.15224 -78.86721
v 31.42507 13.98365 -78.86721
v 30.75257 13.98365 -78.86721
v 30.75257 12.15224 -78.86221
v 31.42507 13.98365 -78.86221
v 31.42507 12.15224 -78.86221
v 30.75257 13.98365 -78.86221

vn 0 1 2.131628E-14
vn 0 1 2.131628E-14
vn 0 1 2.131628E-14
vn 0 1 2.131628E-14
vn -1 0 0
vn -1 0 0
vn -1 0 0
vn -1 0 0
vn 0 -1 -2.131628E-14
vn 0 -1 -2.131628E-14
vn 0 -1 -2.131628E-14
vn 0 -1 -2.131628E-14
vn 1 0 0
vn 1 0 0
vn 1 0 0
vn 1 0 0
vn 0 2.131628E-14 -1
vn 0 2.131628E-14 -1
vn 0 2.131628E-14 -1
vn 0 2.131628E-14 -1
vn 0 -2.131628E-14 1
vn 0 -2.131628E-14 1
vn 0 -2.131628E-14 1
vn 0 -2.131628E-14 1
vn 0 1 2.131628E-14
vn 0 1 2.131628E-14
vn 0 1 2.131628E-14
vn 0 1 2.131628E-14
vn -1 0 0
vn -1 0 0
vn -1 0 0
vn -1 0 0
vn 0 -1 -2.131628E-14
vn 0 -1 -2.131628E-14
vn 0 -1 -2.131628E-14
vn 0 -1 -2.131628E-14
vn 1 0 0
vn 1 0 0
vn 1 0 0
vn 1 0 0
vn 0 2.131628E-14 -1
vn 0 2.131628E-14 -1
vn 0 2.131628E-14 -1
vn 0 2.131628E-14 -1
vn 0 -2.131628E-14 1
vn 0 -2.131628E-14 1
vn 0 -2.131628E-14 1
vn 0 -2.131628E-14 1

vt 0 0
vt 0 0
vt 0 0
vt 0 0
vt 0 0
vt 0 0
vt 0 0
vt 0 0
vt 0 0
vt 0 0
vt 0 0
vt 0 0
vt 0 0
vt 0 0
vt 0 0
vt 0 0
vt 0 0
vt 0 0
vt 0 0
vt 0 0
vt 0 0
vt 0 0
vt 0 0
vt 0 0
vt 0 0
vt 0 0
vt 0 0
vt 0 0
vt 0 0
vt 0 0
vt 0 0
vt 0 0
vt 0 0
vt 0 0
vt 0 0
vt 0 0
vt 0 0
vt 0 0
vt 0 0
vt 0 0
vt 0 0
vt 0 0
vt 0 0
vt 0 0
vt 0 0
vt 0 0
vt 0 0
vt 0 0

vt1 0 0
vt1 0 0
vt1 0 0
vt1 0 0
vt1 0 0
vt1 0 0
vt1 0 0
vt1 0 0
vt1 0 0
vt1 0 0
vt1 0 0
vt1 0 0
vt1 0 0
vt1 0 0
vt1 0 0
vt1 0 0
vt1 0 0
vt1 0 0
vt1 0 0
vt1 0 0
vt1 0 0
vt1 0 0
vt1 0 0
vt1 0 0
vt1 0 0
vt1 0 0
vt1 0 0
vt1 0 0
vt1 0 0
vt1 0 0
vt1 0 0
vt1 0 0
vt1 0 0
vt1 0 0
vt1 0 0
vt1 0 0
vt1 0 0
vt1 0 0
vt1 0 0
vt1 0 0
vt1 0 0
vt1 0 0
vt1 0 0
vt1 0 0
vt1 0 0
vt1 0 0
vt1 0 0
vt1 0 0

vt2 0 0
vt2 0 0
vt2 0 0
vt2 0 0
vt2 0 0
vt2 0 0
vt2 0 0
vt2 0 0
vt2 0 0
vt2 0 0
vt2 0 0
vt2 0 0
vt2 0 0
vt2 0 0
vt2 0 0
vt2 0 0
vt2 0 0
vt2 0 0
vt2 0 0
vt2 0 0
vt2 0 0
vt2 0 0
vt2 0 0
vt2 0 0
vt2 0 0
vt2 0 0
vt2 0 0
vt2 0 0
vt2 0 0
vt2 0 0
vt2 0 0
vt2 0 0
vt2 0 0
vt2 0 0
vt2 0 0
vt2 0 0
vt2 0 0
vt2 0 0
vt2 0 0
vt2 0 0
vt2 0 0
vt2 0 0
vt2 0 0
vt2 0 0
vt2 0 0
vt2 0 0
vt2 0 0
vt2 0 0

vc 1 1 1 1
vc 1 1 1 1
vc 1 1 1 1
vc 1 1 1 1
vc 1 1 1 1
vc 1 1 1 1
vc 1 1 1 1
vc 1 1 1 1
vc 1 1 1 1
vc 1 1 1 1
vc 1 1 1 1
vc 1 1 1 1
vc 1 1 1 1
vc 1 1 1 1
vc 1 1 1 1
vc 1 1 1 1
vc 1 1 1 1
vc 1 1 1 1
vc 1 1 1 1
vc 1 1 1 1
vc 1 1 1 1
vc 1 1 1 1
vc 1 1 1 1
vc 1 1 1 1
vc 1 1 1 1
vc 1 1 1 1
vc 1 1 1 1
vc 1 1 1 1
vc 1 1 1 1
vc 1 1 1 1
vc 1 1 1 1
vc 1 1 1 1
vc 1 1 1 1
vc 1 1 1 1
vc 1 1 1 1
vc 1 1 1 1
vc 1 1 1 1
vc 1 1 1 1
vc 1 1 1 1
vc 1 1 1 1
vc 1 1 1 1
vc 1 1 1 1
vc 1 1 1 1
vc 1 1 1 1
vc 1 1 1 1
vc 1 1 1 1
vc 1 1 1 1
vc 1 1 1 1
f 1/1/1 3/3/3 2/2/2
f 1/1/1 2/2/2 4/4/4
f 5/5/5 7/7/7 6/6/6
f 5/5/5 6/6/6 8/8/8
f 9/9/9 11/11/11 10/10/10
f 9/9/9 10/10/10 12/12/12
f 13/13/13 15/15/15 14/14/14
f 13/13/13 14/14/14 16/16/16
f 17/17/17 19/19/19 18/18/18
f 20/20/20 19/19/19 17/17/17
f 21/21/21 23/23/23 22/22/22
f 24/24/24 21/21/21 22/22/22
f 25/25/25 27/27/27 26/26/26
f 25/25/25 26/26/26 28/28/28
f 29/29/29 31/31/31 30/30/30
f 29/29/29 30/30/30 32/32/32
f 33/33/33 35/35/35 34/34/34
f 33/33/33 34/34/34 36/36/36
f 37/37/37 39/39/39 38/38/38
f 37/37/37 38/38/38 40/40/40
f 41/41/41 43/43/43 42/42/42
f 44/44/44 43/43/43 41/41/41
f 45/45/45 47/47/47 46/46/46
f 48/48/48 45/45/45 46/46/46

