g Exported Mesh Combined Mesh 
v 41.76371 18.56308 -78.13633
v 43.39831 18.76308 -78.13633
v 43.39831 18.56308 -78.13633
v 41.76371 18.76308 -78.13633
v 43.39831 18.56308 -78.13633
v 43.39831 18.76308 -82.09238
v 43.39831 18.56308 -82.09238
v 43.39831 18.76308 -78.13633
v 43.39831 18.56308 -82.09238
v 41.76366 18.76308 -82.09238
v 41.76366 18.56308 -82.09238
v 43.39831 18.76308 -82.09238
v 41.76366 18.56308 -82.09238
v 41.76371 18.76308 -82.08238
v 41.76371 18.56308 -82.08238
v 41.76366 18.76308 -82.09238
v 41.76371 18.56308 -82.08238
v 43.38831 18.76308 -82.08238
v 43.38831 18.56308 -82.08238
v 41.76371 18.76308 -82.08238
v 43.38831 18.56308 -82.08238
v 43.38831 18.76308 -78.14633
v 43.38831 18.56308 -78.14633
v 43.38831 18.76308 -82.08238
v 43.38831 18.56308 -78.14633
v 41.7637 18.76308 -78.14633
v 41.7637 18.56308 -78.14633
v 43.38831 18.76308 -78.14633
v 41.7637 18.56308 -78.14633
v 41.76371 18.76308 -78.13633
v 41.76371 18.56308 -78.13633
v 41.7637 18.76308 -78.14633
v 43.39831 18.56308 -82.09238
v 41.76366 18.56308 -82.09238
v 41.76371 18.56308 -82.08238
v 43.38831 18.56308 -82.08238
v 43.39831 18.56308 -78.13633
v 43.38831 18.56308 -78.14633
v 41.76371 18.56308 -78.13633
v 41.7637 18.56308 -78.14633
v 43.39831 18.76308 -82.09238
v 41.76371 18.76308 -82.08238
v 41.76366 18.76308 -82.09238
v 43.38831 18.76308 -82.08238
v 43.39831 18.76308 -78.13633
v 43.38831 18.76308 -78.14633
v 41.76371 18.76308 -78.13633
v 41.7637 18.76308 -78.14633
v 41.75809 18.56308 -88.46841
v 43.35467 18.76308 -88.46757
v 43.35467 18.56308 -88.46757
v 41.75809 18.76308 -88.46841
v 43.35467 18.56308 -88.46757
v 43.35467 18.76308 -90.73693
v 43.35467 18.56308 -90.73693
v 43.35467 18.76308 -88.46757
v 43.35467 18.56308 -90.73693
v 37.94848 18.76308 -90.73693
v 37.94848 18.56308 -90.73693
v 43.35467 18.76308 -90.73693
v 37.94848 18.56308 -90.73693
v 37.94848 18.76308 -89.20309
v 37.94848 18.56308 -89.20309
v 37.94848 18.76308 -90.73693
v 37.94848 18.56308 -89.20309
v 37.96848 18.76308 -89.20309
v 37.96848 18.56308 -89.20309
v 37.94848 18.76308 -89.20309
v 37.96848 18.56308 -89.20309
v 37.96848 18.76308 -90.71693
v 37.96848 18.56308 -90.71693
v 37.96848 18.76308 -89.20309
v 37.96848 18.56308 -90.71693
v 43.33467 18.76308 -90.71693
v 43.33467 18.56308 -90.71693
v 37.96848 18.76308 -90.71693
v 43.33467 18.56308 -90.71693
v 43.33467 18.76308 -88.48683
v 43.33467 18.56308 -88.48683
v 43.33467 18.76308 -90.71693
v 43.33467 18.56308 -88.48683
v 41.75983 18.76308 -88.48834
v 41.75983 18.56308 -88.48834
v 43.33467 18.76308 -88.48683
v 41.75983 18.56308 -88.48834
v 41.75809 18.76308 -88.46841
v 41.75809 18.56308 -88.46841
v 41.75983 18.76308 -88.48834
v 41.75983 18.56308 -88.48834
v 41.75809 18.56308 -88.46841
v 43.35467 18.56308 -88.46757
v 43.33467 18.56308 -88.48683
v 43.35467 18.56308 -90.73693
v 43.33467 18.56308 -90.71693
v 37.94848 18.56308 -90.73693
v 37.96848 18.56308 -90.71693
v 37.94848 18.56308 -89.20309
v 37.96848 18.56308 -89.20309
v 41.75983 18.76308 -88.48834
v 43.35467 18.76308 -88.46757
v 41.75809 18.76308 -88.46841
v 43.33467 18.76308 -88.48683
v 43.35467 18.76308 -90.73693
v 43.33467 18.76308 -90.71693
v 37.94848 18.76308 -90.73693
v 37.96848 18.76308 -90.71693
v 37.94848 18.76308 -89.20309
v 37.96848 18.76308 -89.20309

vn -2.800456E-07 1.192093E-07 1
vn -2.800456E-07 1.192093E-07 1
vn -2.800456E-07 1.192093E-07 1
vn -2.800456E-07 1.192093E-07 1
vn 1 2.758795E-14 2.314245E-07
vn 1 2.758795E-14 2.314245E-07
vn 1 2.758794E-14 2.314245E-07
vn 1 2.758794E-14 2.314245E-07
vn -1.026805E-06 -1.192093E-07 -1
vn -1.026805E-06 -1.192093E-07 -1
vn -1.026805E-06 -1.192093E-07 -1
vn -1.026805E-06 -1.192093E-07 -1
vn -0.9999889 5.621472E-10 0.004715633
vn -0.9999889 5.621472E-10 0.004715633
vn -0.9999889 5.621472E-10 0.004715633
vn -0.9999889 5.621472E-10 0.004715633
vn -3.75693E-07 1.192093E-07 1
vn -3.75693E-07 1.192093E-07 1
vn -3.75693E-07 1.192093E-07 1
vn -3.75693E-07 1.192093E-07 1
vn -1 0 0
vn -1 0 0
vn -1 0 0
vn -1 0 0
vn -4.696151E-07 -1.192093E-07 -1
vn -4.696151E-07 -1.192093E-07 -1
vn -4.696151E-07 -1.192093E-07 -1
vn -4.696151E-07 -1.192093E-07 -1
vn -1 2.001041E-11 0.0001678595
vn -1 2.001041E-11 0.0001678595
vn -1 2.001041E-11 0.0001678595
vn -1 2.001041E-11 0.0001678595
vn 0 -1 1.192093E-07
vn 0 -1 1.192093E-07
vn 0 -1 1.192093E-07
vn 0 -1 1.192093E-07
vn 0 -1 1.192093E-07
vn 0 -1 1.192093E-07
vn 0 -1 1.192093E-07
vn 0 -1 1.192093E-07
vn 0 1 -1.192093E-07
vn 0 1 -1.192093E-07
vn 0 1 -1.192093E-07
vn 0 1 -1.192093E-07
vn 0 1 -1.192093E-07
vn 0 1 -1.192093E-07
vn 0 1 -1.192093E-07
vn 0 1 -1.192093E-07
vn -0.0005322392 1.192093E-07 0.9999999
vn -0.0005322392 1.192093E-07 0.9999999
vn -0.0005322392 1.192093E-07 0.9999999
vn -0.0005322392 1.192093E-07 0.9999999
vn 1 -2.244313E-13 -1.882666E-06
vn 1 -2.244313E-13 -1.882666E-06
vn 1 -2.244313E-13 -1.882666E-06
vn 1 -2.244313E-13 -1.882666E-06
vn 0 -1.192093E-07 -1
vn 0 -1.192093E-07 -1
vn 0 -1.192093E-07 -1
vn 0 -1.192093E-07 -1
vn -1 1.897451E-13 1.591697E-06
vn -1 1.897451E-13 1.591697E-06
vn -1 1.897451E-13 1.591697E-06
vn -1 1.897451E-13 1.591697E-06
vn 9.536743E-06 1.192093E-07 1
vn 9.536743E-06 1.192093E-07 1
vn 9.536744E-06 1.192093E-07 1
vn 9.536744E-06 1.192093E-07 1
vn 1 -2.042677E-13 -1.713522E-06
vn 1 -2.042677E-13 -1.713522E-06
vn 1 -2.042676E-13 -1.713521E-06
vn 1 -2.042676E-13 -1.713521E-06
vn 0 1.192093E-07 1
vn 0 1.192093E-07 1
vn 0 1.192093E-07 1
vn 0 1.192093E-07 1
vn -1 1.95757E-13 1.642129E-06
vn -1 1.95757E-13 1.642129E-06
vn -1 1.95757E-13 1.642128E-06
vn -1 1.95757E-13 1.642128E-06
vn 0.0009559297 -1.192092E-07 -0.9999996
vn 0.0009559297 -1.192092E-07 -0.9999996
vn 0.0009559297 -1.192092E-07 -0.9999996
vn 0.0009559297 -1.192092E-07 -0.9999996
vn -0.9961952 -1.03891E-08 -0.08715009
vn -0.9961952 -1.03891E-08 -0.08715009
vn -0.9961952 -1.03891E-08 -0.08715008
vn -0.9961952 -1.03891E-08 -0.08715008
vn 0 -1 1.192093E-07
vn 0 -1 1.192093E-07
vn 0 -1 1.192093E-07
vn 0 -1 1.192093E-07
vn 0 -1 1.192093E-07
vn 0 -1 1.192093E-07
vn 0 -1 1.192093E-07
vn 0 -1 1.192093E-07
vn 0 -1 1.192093E-07
vn 0 -1 1.192093E-07
vn 0 1 -1.192093E-07
vn 0 1 -1.192093E-07
vn 0 1 -1.192093E-07
vn 0 1 -1.192093E-07
vn 0 1 -1.192093E-07
vn 0 1 -1.192093E-07
vn 0 1 -1.192093E-07
vn 0 1 -1.192093E-07
vn 0 1 -1.192093E-07
vn 0 1 -1.192093E-07

vt 0 0
vt 0 0
vt 0 0
vt 0 0
vt 0 0
vt 0 0
vt 0 0
vt 0 0
vt 0 0
vt 0 0
vt 0 0
vt 0 0
vt 0 0
vt 0 0
vt 0 0
vt 0 0
vt 0 0
vt 0 0
vt 0 0
vt 0 0
vt 0 0
vt 0 0
vt 0 0
vt 0 0
vt 0 0
vt 0 0
vt 0 0
vt 0 0
vt 0 0
vt 0 0
vt 0 0
vt 0 0
vt 0 0
vt 0 0
vt 0 0
vt 0 0
vt 0 0
vt 0 0
vt 0 0
vt 0 0
vt 0 0
vt 0 0
vt 0 0
vt 0 0
vt 0 0
vt 0 0
vt 0 0
vt 0 0
vt 0 0
vt 0 0
vt 0 0
vt 0 0
vt 0 0
vt 0 0
vt 0 0
vt 0 0
vt 0 0
vt 0 0
vt 0 0
vt 0 0
vt 0 0
vt 0 0
vt 0 0
vt 0 0
vt 0 0
vt 0 0
vt 0 0
vt 0 0
vt 0 0
vt 0 0
vt 0 0
vt 0 0
vt 0 0
vt 0 0
vt 0 0
vt 0 0
vt 0 0
vt 0 0
vt 0 0
vt 0 0
vt 0 0
vt 0 0
vt 0 0
vt 0 0
vt 0 0
vt 0 0
vt 0 0
vt 0 0
vt 0 0
vt 0 0
vt 0 0
vt 0 0
vt 0 0
vt 0 0
vt 0 0
vt 0 0
vt 0 0
vt 0 0
vt 0 0
vt 0 0
vt 0 0
vt 0 0
vt 0 0
vt 0 0
vt 0 0
vt 0 0
vt 0 0
vt 0 0

vt1 0 0
vt1 0 0
vt1 0 0
vt1 0 0
vt1 0 0
vt1 0 0
vt1 0 0
vt1 0 0
vt1 0 0
vt1 0 0
vt1 0 0
vt1 0 0
vt1 0 0
vt1 0 0
vt1 0 0
vt1 0 0
vt1 0 0
vt1 0 0
vt1 0 0
vt1 0 0
vt1 0 0
vt1 0 0
vt1 0 0
vt1 0 0
vt1 0 0
vt1 0 0
vt1 0 0
vt1 0 0
vt1 0 0
vt1 0 0
vt1 0 0
vt1 0 0
vt1 0 0
vt1 0 0
vt1 0 0
vt1 0 0
vt1 0 0
vt1 0 0
vt1 0 0
vt1 0 0
vt1 0 0
vt1 0 0
vt1 0 0
vt1 0 0
vt1 0 0
vt1 0 0
vt1 0 0
vt1 0 0
vt1 0 0
vt1 0 0
vt1 0 0
vt1 0 0
vt1 0 0
vt1 0 0
vt1 0 0
vt1 0 0
vt1 0 0
vt1 0 0
vt1 0 0
vt1 0 0
vt1 0 0
vt1 0 0
vt1 0 0
vt1 0 0
vt1 0 0
vt1 0 0
vt1 0 0
vt1 0 0
vt1 0 0
vt1 0 0
vt1 0 0
vt1 0 0
vt1 0 0
vt1 0 0
vt1 0 0
vt1 0 0
vt1 0 0
vt1 0 0
vt1 0 0
vt1 0 0
vt1 0 0
vt1 0 0
vt1 0 0
vt1 0 0
vt1 0 0
vt1 0 0
vt1 0 0
vt1 0 0
vt1 0 0
vt1 0 0
vt1 0 0
vt1 0 0
vt1 0 0
vt1 0 0
vt1 0 0
vt1 0 0
vt1 0 0
vt1 0 0
vt1 0 0
vt1 0 0
vt1 0 0
vt1 0 0
vt1 0 0
vt1 0 0
vt1 0 0
vt1 0 0
vt1 0 0
vt1 0 0

vt2 0 0
vt2 0 0
vt2 0 0
vt2 0 0
vt2 0 0
vt2 0 0
vt2 0 0
vt2 0 0
vt2 0 0
vt2 0 0
vt2 0 0
vt2 0 0
vt2 0 0
vt2 0 0
vt2 0 0
vt2 0 0
vt2 0 0
vt2 0 0
vt2 0 0
vt2 0 0
vt2 0 0
vt2 0 0
vt2 0 0
vt2 0 0
vt2 0 0
vt2 0 0
vt2 0 0
vt2 0 0
vt2 0 0
vt2 0 0
vt2 0 0
vt2 0 0
vt2 0 0
vt2 0 0
vt2 0 0
vt2 0 0
vt2 0 0
vt2 0 0
vt2 0 0
vt2 0 0
vt2 0 0
vt2 0 0
vt2 0 0
vt2 0 0
vt2 0 0
vt2 0 0
vt2 0 0
vt2 0 0
vt2 0 0
vt2 0 0
vt2 0 0
vt2 0 0
vt2 0 0
vt2 0 0
vt2 0 0
vt2 0 0
vt2 0 0
vt2 0 0
vt2 0 0
vt2 0 0
vt2 0 0
vt2 0 0
vt2 0 0
vt2 0 0
vt2 0 0
vt2 0 0
vt2 0 0
vt2 0 0
vt2 0 0
vt2 0 0
vt2 0 0
vt2 0 0
vt2 0 0
vt2 0 0
vt2 0 0
vt2 0 0
vt2 0 0
vt2 0 0
vt2 0 0
vt2 0 0
vt2 0 0
vt2 0 0
vt2 0 0
vt2 0 0
vt2 0 0
vt2 0 0
vt2 0 0
vt2 0 0
vt2 0 0
vt2 0 0
vt2 0 0
vt2 0 0
vt2 0 0
vt2 0 0
vt2 0 0
vt2 0 0
vt2 0 0
vt2 0 0
vt2 0 0
vt2 0 0
vt2 0 0
vt2 0 0
vt2 0 0
vt2 0 0
vt2 0 0
vt2 0 0
vt2 0 0
vt2 0 0

vc 1 1 1 1
vc 1 1 1 1
vc 1 1 1 1
vc 1 1 1 1
vc 1 1 1 1
vc 1 1 1 1
vc 1 1 1 1
vc 1 1 1 1
vc 1 1 1 1
vc 1 1 1 1
vc 1 1 1 1
vc 1 1 1 1
vc 1 1 1 1
vc 1 1 1 1
vc 1 1 1 1
vc 1 1 1 1
vc 1 1 1 1
vc 1 1 1 1
vc 1 1 1 1
vc 1 1 1 1
vc 1 1 1 1
vc 1 1 1 1
vc 1 1 1 1
vc 1 1 1 1
vc 1 1 1 1
vc 1 1 1 1
vc 1 1 1 1
vc 1 1 1 1
vc 1 1 1 1
vc 1 1 1 1
vc 1 1 1 1
vc 1 1 1 1
vc 1 1 1 1
vc 1 1 1 1
vc 1 1 1 1
vc 1 1 1 1
vc 1 1 1 1
vc 1 1 1 1
vc 1 1 1 1
vc 1 1 1 1
vc 1 1 1 1
vc 1 1 1 1
vc 1 1 1 1
vc 1 1 1 1
vc 1 1 1 1
vc 1 1 1 1
vc 1 1 1 1
vc 1 1 1 1
vc 1 1 1 1
vc 1 1 1 1
vc 1 1 1 1
vc 1 1 1 1
vc 1 1 1 1
vc 1 1 1 1
vc 1 1 1 1
vc 1 1 1 1
vc 1 1 1 1
vc 1 1 1 1
vc 1 1 1 1
vc 1 1 1 1
vc 1 1 1 1
vc 1 1 1 1
vc 1 1 1 1
vc 1 1 1 1
vc 1 1 1 1
vc 1 1 1 1
vc 1 1 1 1
vc 1 1 1 1
vc 1 1 1 1
vc 1 1 1 1
vc 1 1 1 1
vc 1 1 1 1
vc 1 1 1 1
vc 1 1 1 1
vc 1 1 1 1
vc 1 1 1 1
vc 1 1 1 1
vc 1 1 1 1
vc 1 1 1 1
vc 1 1 1 1
vc 1 1 1 1
vc 1 1 1 1
vc 1 1 1 1
vc 1 1 1 1
vc 1 1 1 1
vc 1 1 1 1
vc 1 1 1 1
vc 1 1 1 1
vc 1 1 1 1
vc 1 1 1 1
vc 1 1 1 1
vc 1 1 1 1
vc 1 1 1 1
vc 1 1 1 1
vc 1 1 1 1
vc 1 1 1 1
vc 1 1 1 1
vc 1 1 1 1
vc 1 1 1 1
vc 1 1 1 1
vc 1 1 1 1
vc 1 1 1 1
vc 1 1 1 1
vc 1 1 1 1
vc 1 1 1 1
vc 1 1 1 1
vc 1 1 1 1
vc 1 1 1 1
f 1/1/1 3/3/3 2/2/2
f 1/1/1 2/2/2 4/4/4
f 5/5/5 7/7/7 6/6/6
f 5/5/5 6/6/6 8/8/8
f 9/9/9 11/11/11 10/10/10
f 9/9/9 10/10/10 12/12/12
f 13/13/13 15/15/15 14/14/14
f 13/13/13 14/14/14 16/16/16
f 17/17/17 19/19/19 18/18/18
f 17/17/17 18/18/18 20/20/20
f 21/21/21 23/23/23 22/22/22
f 21/21/21 22/22/22 24/24/24
f 25/25/25 27/27/27 26/26/26
f 25/25/25 26/26/26 28/28/28
f 29/29/29 31/31/31 30/30/30
f 29/29/29 30/30/30 32/32/32
f 33/33/33 35/35/35 34/34/34
f 33/33/33 36/36/36 35/35/35
f 37/37/37 36/36/36 33/33/33
f 37/37/37 38/38/38 36/36/36
f 39/39/39 38/38/38 37/37/37
f 39/39/39 40/40/40 38/38/38
f 41/41/41 43/43/43 42/42/42
f 41/41/41 42/42/42 44/44/44
f 45/45/45 41/41/41 44/44/44
f 45/45/45 44/44/44 46/46/46
f 47/47/47 45/45/45 46/46/46
f 47/47/47 46/46/46 48/48/48
f 49/49/49 51/51/51 50/50/50
f 49/49/49 50/50/50 52/52/52
f 53/53/53 55/55/55 54/54/54
f 53/53/53 54/54/54 56/56/56
f 57/57/57 59/59/59 58/58/58
f 57/57/57 58/58/58 60/60/60
f 61/61/61 63/63/63 62/62/62
f 61/61/61 62/62/62 64/64/64
f 65/65/65 67/67/67 66/66/66
f 65/65/65 66/66/66 68/68/68
f 69/69/69 71/71/71 70/70/70
f 69/69/69 70/70/70 72/72/72
f 73/73/73 75/75/75 74/74/74
f 73/73/73 74/74/74 76/76/76
f 77/77/77 79/79/79 78/78/78
f 77/77/77 78/78/78 80/80/80
f 81/81/81 83/83/83 82/82/82
f 81/81/81 82/82/82 84/84/84
f 85/85/85 87/87/87 86/86/86
f 85/85/85 86/86/86 88/88/88
f 89/89/89 91/91/91 90/90/90
f 92/92/92 91/91/91 89/89/89
f 92/92/92 93/93/93 91/91/91
f 94/94/94 93/93/93 92/92/92
f 94/94/94 95/95/95 93/93/93
f 96/96/96 95/95/95 94/94/94
f 96/96/96 97/97/97 95/95/95
f 98/98/98 97/97/97 96/96/96
f 99/99/99 101/101/101 100/100/100
f 102/102/102 99/99/99 100/100/100
f 102/102/102 100/100/100 103/103/103
f 104/104/104 102/102/102 103/103/103
f 104/104/104 103/103/103 105/105/105
f 106/106/106 104/104/104 105/105/105
f 106/106/106 105/105/105 107/107/107
f 108/108/108 106/106/106 107/107/107

