g Exported Mesh Combined Mesh 
v 59.74549 -0.1360239 -60.05918
v 27.67184 -0.03616171 -60.06442
v 27.67184 -0.1360244 -60.05918
v 59.74549 -0.03616125 -60.06442
v 27.67184 -0.1360244 -60.05918
v 27.67184 0.0109346 -59.16687
v 27.67184 -0.08892805 -59.16162
v 27.67184 -0.03616171 -60.06442
v 27.70621 0.02654316 -58.8694
v 27.70621 -0.07331949 -58.86416
v 27.80408 0.04087712 -58.59623
v 27.80408 -0.05898554 -58.59099
v 27.95764 0.05352582 -58.35517
v 27.95764 -0.04633683 -58.34993
v 28.15903 0.06407858 -58.15406
v 28.15903 -0.03578407 -58.14882
v 28.15903 -0.03578407 -58.14882
v 28.40042 0.07212473 -58.00072
v 28.40042 -0.02773792 -57.99548
v 28.15903 0.06407858 -58.15406
v 28.67397 0.07725359 -57.90297
v 28.67397 -0.02260906 -57.89773
v 28.97184 0.07905446 -57.86865
v 28.97184 -0.02080819 -57.86341
v 59.74549 0.07905491 -57.86865
v 59.74549 -0.02080774 -57.86341
v 59.74549 -0.02080774 -57.86341
v 59.74549 -0.03616125 -60.06442
v 59.74549 -0.1360239 -60.05918
v 59.74549 0.07905491 -57.86865
v 28.97184 -0.02080819 -57.86341
v 59.74549 -0.02080774 -57.86341
v 59.74549 -0.1360239 -60.05918
v 27.67184 -0.1360244 -60.05918
v 28.67397 -0.02260906 -57.89773
v 28.40042 -0.02773792 -57.99548
v 28.15903 -0.03578407 -58.14882
v 27.95764 -0.04633683 -58.34993
v 27.80408 -0.05898554 -58.59099
v 27.70621 -0.07331949 -58.86416
v 27.67184 -0.08892805 -59.16162
v 27.67184 -0.03616171 -60.06442
v 59.74549 -0.03616125 -60.06442
v 59.74549 0.07905491 -57.86865
v 28.97184 0.07905446 -57.86865
v 28.67397 0.07725359 -57.90297
v 28.40042 0.07212473 -58.00072
v 28.15903 0.06407858 -58.15406
v 27.95764 0.05352582 -58.35517
v 27.80408 0.04087712 -58.59623
v 27.70621 0.02654316 -58.8694
v 27.67184 0.0109346 -59.16687

vn -4.387794E-08 -0.05239953 -0.9986262
vn -4.387794E-08 -0.05239953 -0.9986262
vn -4.387794E-08 -0.05239953 -0.9986262
vn -4.387794E-08 -0.05239953 -0.9986262
vn -1 2.547694E-08 -4.922937E-08
vn -0.9992678 0.002004839 0.03820754
vn -0.997068 0.004009653 0.07641512
vn -1 2.547694E-08 -4.922937E-08
vn -0.9818211 0.009945926 0.1895482
vn -0.9644306 0.01385113 0.2639732
vn -0.9139851 0.02126101 0.4051902
vn -0.881207 0.02477088 0.4720811
vn -0.8024661 0.0312667 0.5958779
vn -0.756675 0.03425837 0.6528931
vn -0.653789 0.03964953 0.7556374
vn -0.596694 0.04204901 0.8013664
vn -0.596694 0.04204901 0.8013664
vn -0.4727266 0.04617496 0.8799986
vn -0.4057452 0.04789246 0.9127306
vn -0.653789 0.03964953 0.7556374
vn -0.2643372 0.0505357 0.9631054
vn -0.1898114 0.05144694 0.9804718
vn -0.07652301 0.05224588 0.995698
vn -0.03826149 0.05236116 0.997895
vn 4.387794E-08 0.05239953 0.9986262
vn 4.387794E-08 0.05239953 0.9986262
vn 1 -2.547694E-08 4.922937E-08
vn 1 -2.547694E-08 4.922937E-08
vn 1 -2.547694E-08 4.922937E-08
vn 1 -2.547694E-08 4.922937E-08
vn 1.690529E-08 -0.9986262 0.05239987
vn 1.690529E-08 -0.9986262 0.05239987
vn 1.690529E-08 -0.9986262 0.05239987
vn 1.690529E-08 -0.9986262 0.05239987
vn 1.690529E-08 -0.9986262 0.05239987
vn 1.690529E-08 -0.9986262 0.05239987
vn 1.690529E-08 -0.9986262 0.05239987
vn 1.690529E-08 -0.9986262 0.05239987
vn 1.690529E-08 -0.9986262 0.05239987
vn 1.690529E-08 -0.9986262 0.05239987
vn 1.690529E-08 -0.9986262 0.05239987
vn -1.690529E-08 0.9986262 -0.05239987
vn -1.690529E-08 0.9986262 -0.05239987
vn -1.690529E-08 0.9986262 -0.05239987
vn -1.690529E-08 0.9986262 -0.05239987
vn -1.690529E-08 0.9986262 -0.05239987
vn -1.690529E-08 0.9986262 -0.05239987
vn -1.690529E-08 0.9986262 -0.05239987
vn -1.690529E-08 0.9986262 -0.05239987
vn -1.690529E-08 0.9986262 -0.05239987
vn -1.690529E-08 0.9986262 -0.05239987
vn -1.690529E-08 0.9986262 -0.05239987

vt -24.47502 0.0004995167
vt 25.47502 0.9995005
vt 25.47502 0.0004995167
vt -24.47502 0.9995005
vt -0.6892868 0.0004995167
vt 0.2829871 0.9995005
vt 0.2829871 0.0004995167
vt -0.6892868 0.9995005
vt 0.6052159 0.9995005
vt 0.6052159 0.0004995167
vt 0.9011316 0.9995005
vt 0.9011316 0.0004995167
vt 1.162256 0.9995005
vt 1.162256 0.0004995167
vt 1.380111 0.9995005
vt 1.380111 0.0004995167
vt -23.71629 0.0004995167
vt -23.34037 0.9995005
vt -23.34037 0.0004995167
vt -23.71629 0.9995005
vt -22.91435 0.9995005
vt -22.91435 0.0004995167
vt -22.45046 0.9995005
vt -22.45046 0.0004995167
vt 25.47502 0.9995005
vt 25.47502 0.0004995167
vt -0.6892868 0.0004995167
vt 1.689279 0.9995005
vt 1.689279 0.0004995167
vt -0.6892868 0.9995005
vt 23.45046 -0.689279
vt -24.47502 -0.6892868
vt -24.47502 1.689279
vt 25.47502 1.689287
vt 23.91435 -0.6521012
vt 24.34037 -0.5462188
vt 24.71629 -0.3801112
vt 25.02993 -0.162256
vt 25.26907 0.09886837
vt 25.4215 0.3947841
vt 25.47502 0.7170129
vt -24.47502 1.689287
vt 25.47502 1.689279
vt 25.47502 -0.6892868
vt -22.45046 -0.689279
vt -22.91435 -0.6521012
vt -23.34037 -0.5462188
vt -23.71629 -0.3801112
vt -24.02993 -0.162256
vt -24.26907 0.09886837
vt -24.4215 0.3947841
vt -24.47502 0.7170129

vt1 0 0
vt1 0 0
vt1 0 0
vt1 0 0
vt1 0 0
vt1 0 0
vt1 0 0
vt1 0 0
vt1 0 0
vt1 0 0
vt1 0 0
vt1 0 0
vt1 0 0
vt1 0 0
vt1 0 0
vt1 0 0
vt1 0 0
vt1 0 0
vt1 0 0
vt1 0 0
vt1 0 0
vt1 0 0
vt1 0 0
vt1 0 0
vt1 0 0
vt1 0 0
vt1 0 0
vt1 0 0
vt1 0 0
vt1 0 0
vt1 0 0
vt1 0 0
vt1 0 0
vt1 0 0
vt1 0 0
vt1 0 0
vt1 0 0
vt1 0 0
vt1 0 0
vt1 0 0
vt1 0 0
vt1 0 0
vt1 0 0
vt1 0 0
vt1 0 0
vt1 0 0
vt1 0 0
vt1 0 0
vt1 0 0
vt1 0 0
vt1 0 0
vt1 0 0

vt2 0 0
vt2 0 0
vt2 0 0
vt2 0 0
vt2 0 0
vt2 0 0
vt2 0 0
vt2 0 0
vt2 0 0
vt2 0 0
vt2 0 0
vt2 0 0
vt2 0 0
vt2 0 0
vt2 0 0
vt2 0 0
vt2 0 0
vt2 0 0
vt2 0 0
vt2 0 0
vt2 0 0
vt2 0 0
vt2 0 0
vt2 0 0
vt2 0 0
vt2 0 0
vt2 0 0
vt2 0 0
vt2 0 0
vt2 0 0
vt2 0 0
vt2 0 0
vt2 0 0
vt2 0 0
vt2 0 0
vt2 0 0
vt2 0 0
vt2 0 0
vt2 0 0
vt2 0 0
vt2 0 0
vt2 0 0
vt2 0 0
vt2 0 0
vt2 0 0
vt2 0 0
vt2 0 0
vt2 0 0
vt2 0 0
vt2 0 0
vt2 0 0
vt2 0 0

vc 1 1 1 1
vc 1 1 1 1
vc 1 1 1 1
vc 1 1 1 1
vc 1 1 1 1
vc 1 1 1 1
vc 1 1 1 1
vc 1 1 1 1
vc 1 1 1 1
vc 1 1 1 1
vc 1 1 1 1
vc 1 1 1 1
vc 1 1 1 1
vc 1 1 1 1
vc 1 1 1 1
vc 1 1 1 1
vc 1 1 1 1
vc 1 1 1 1
vc 1 1 1 1
vc 1 1 1 1
vc 1 1 1 1
vc 1 1 1 1
vc 1 1 1 1
vc 1 1 1 1
vc 1 1 1 1
vc 1 1 1 1
vc 1 1 1 1
vc 1 1 1 1
vc 1 1 1 1
vc 1 1 1 1
vc 1 1 1 1
vc 1 1 1 1
vc 1 1 1 1
vc 1 1 1 1
vc 1 1 1 1
vc 1 1 1 1
vc 1 1 1 1
vc 1 1 1 1
vc 1 1 1 1
vc 1 1 1 1
vc 1 1 1 1
vc 1 1 1 1
vc 1 1 1 1
vc 1 1 1 1
vc 1 1 1 1
vc 1 1 1 1
vc 1 1 1 1
vc 1 1 1 1
vc 1 1 1 1
vc 1 1 1 1
vc 1 1 1 1
vc 1 1 1 1
f 1/1/1 3/3/3 2/2/2
f 1/1/1 2/2/2 4/4/4
f 5/5/5 7/7/7 6/6/6
f 5/5/5 6/6/6 8/8/8
f 7/7/7 9/9/9 6/6/6
f 7/7/7 10/10/10 9/9/9
f 10/10/10 11/11/11 9/9/9
f 10/10/10 12/12/12 11/11/11
f 12/12/12 13/13/13 11/11/11
f 12/12/12 14/14/14 13/13/13
f 14/14/14 15/15/15 13/13/13
f 14/14/14 16/16/16 15/15/15
f 17/17/17 19/19/19 18/18/18
f 17/17/17 18/18/18 20/20/20
f 19/19/19 21/21/21 18/18/18
f 19/19/19 22/22/22 21/21/21
f 22/22/22 23/23/23 21/21/21
f 22/22/22 24/24/24 23/23/23
f 24/24/24 25/25/25 23/23/23
f 24/24/24 26/26/26 25/25/25
f 27/27/27 29/29/29 28/28/28
f 27/27/27 28/28/28 30/30/30
f 31/31/31 33/33/33 32/32/32
f 33/33/33 31/31/31 34/34/34
f 34/34/34 31/31/31 35/35/35
f 34/34/34 35/35/35 36/36/36
f 34/34/34 36/36/36 37/37/37
f 34/34/34 37/37/37 38/38/38
f 34/34/34 38/38/38 39/39/39
f 34/34/34 39/39/39 40/40/40
f 34/34/34 40/40/40 41/41/41
f 42/42/42 44/44/44 43/43/43
f 44/44/44 42/42/42 45/45/45
f 45/45/45 42/42/42 46/46/46
f 46/46/46 42/42/42 47/47/47
f 47/47/47 42/42/42 48/48/48
f 48/48/48 42/42/42 49/49/49
f 49/49/49 42/42/42 50/50/50
f 50/50/50 42/42/42 51/51/51
f 51/51/51 42/42/42 52/52/52

