g Exported Mesh Combined Mesh 
v 40.89655 33.04544 -78.844
v 41.55654 33.80744 -78.844
v 41.55654 33.04544 -78.844
v 40.89655 33.80744 -78.844
v 41.55654 33.04544 -78.844
v 41.55654 33.80744 -82.72498
v 41.55654 33.04544 -82.72498
v 41.55654 33.80744 -78.844
v 41.55654 33.04544 -82.72498
v 40.89654 33.80744 -82.72498
v 40.89654 33.04544 -82.72498
v 41.55654 33.80744 -82.72498
v 40.89654 33.04544 -82.72498
v 40.89654 33.80744 -78.84399
v 40.89654 33.04544 -78.84399
v 40.89654 33.80744 -82.72498
v 38.90224 35.05922 -81.81788
v 38.90224 35.82122 -78.86311
v 38.90224 35.05922 -78.86311
v 38.90224 35.82122 -81.81788
v 38.90224 35.05922 -78.86311
v 41.53642 35.82122 -78.86311
v 41.53642 35.05922 -78.86311
v 38.90224 35.82122 -78.86311
v 41.53642 35.05922 -78.86311
v 41.53642 35.82122 -82.68867
v 41.53642 35.05922 -82.68867
v 41.53642 35.82122 -78.86311
v 40.87642 35.82122 -82.68867
v 41.53642 35.82122 -82.68867
v 41.53642 35.82122 -78.86311
v 40.87643 35.82122 -79.5231
v 38.90224 35.82122 -78.86311
v 39.56223 35.82122 -79.5231
v 38.90224 35.82122 -81.81788
v 39.56224 35.82122 -81.81788
v 41.53642 35.05922 -82.68867
v 40.87642 35.82122 -82.68867
v 40.87642 35.05922 -82.68867
v 41.53642 35.82122 -82.68867
v 39.56224 35.05922 -81.81788
v 38.90224 35.82122 -81.81788
v 38.90224 35.05922 -81.81788
v 39.56224 35.82122 -81.81788
v 40.87642 35.05922 -82.68867
v 40.87643 35.82122 -79.5231
v 40.87643 35.05922 -79.5231
v 40.87642 35.82122 -82.68867
v 40.87643 35.05922 -79.5231
v 39.56223 35.82122 -79.5231
v 39.56223 35.05922 -79.5231
v 40.87643 35.82122 -79.5231
v 39.56223 35.05922 -79.5231
v 39.56224 35.82122 -81.81788
v 39.56224 35.05922 -81.81788
v 39.56223 35.82122 -79.5231
v 41.53642 35.05922 -78.86311
v 41.53642 35.05922 -82.68867
v 40.87643 35.05922 -79.5231
v 38.90224 35.05922 -78.86311
v 39.56223 35.05922 -79.5231
v 38.90224 35.05922 -81.81788
v 39.56224 35.05922 -81.81788
v 40.87642 35.05922 -82.68867
v 39.56331 33.04544 -81.83184
v 38.90332 33.80744 -81.83184
v 38.90332 33.04544 -81.83184
v 39.56331 33.80744 -81.83184
v 38.90332 33.04544 -81.83184
v 38.90332 33.80744 -78.82406
v 38.90332 33.04544 -78.82406
v 38.90332 33.80744 -81.83184
v 38.90332 33.04544 -78.82406
v 39.56332 33.80744 -78.82406
v 39.56332 33.04544 -78.82406
v 38.90332 33.80744 -78.82406
v 39.56332 33.04544 -78.82406
v 39.56331 33.80744 -81.83186
v 39.56331 33.04544 -81.83186
v 39.56332 33.80744 -78.82406

vn 0 1.192093E-07 1
vn 0 1.192093E-07 1
vn 0 1.192093E-07 1
vn 0 1.192093E-07 1
vn 1 0 0
vn 1 0 0
vn 1 0 0
vn 1 0 0
vn 0 -1.192093E-07 -1
vn 0 -1.192093E-07 -1
vn 0 -1.192093E-07 -1
vn 0 -1.192093E-07 -1
vn -1 1.593556E-13 1.336772E-06
vn -1 1.593556E-13 1.336772E-06
vn -1 1.593556E-13 1.336772E-06
vn -1 1.593556E-13 1.336772E-06
vn -1 0 0
vn -1 0 0
vn -1 0 0
vn -1 0 0
vn 0 1.192093E-07 1
vn 0 1.192093E-07 1
vn 0 1.192093E-07 1
vn 0 1.192093E-07 1
vn 1 0 0
vn 1 0 0
vn 1 0 0
vn 1 0 0
vn 0 1 -1.192093E-07
vn 0 1 -1.192093E-07
vn 0 1 -1.192093E-07
vn 0 1 -1.192093E-07
vn 0 1 -1.192093E-07
vn 0 1 -1.192093E-07
vn 0 1 -1.192093E-07
vn 0 1 -1.192093E-07
vn 0 -1.192093E-07 -1
vn 0 -1.192093E-07 -1
vn 0 -1.192093E-07 -1
vn 0 -1.192093E-07 -1
vn 0 -1.192093E-07 -1
vn 0 -1.192093E-07 -1
vn 0 -1.192093E-07 -1
vn 0 -1.192093E-07 -1
vn -1 1.953699E-13 1.638882E-06
vn -1 1.953699E-13 1.638882E-06
vn -1 1.953699E-13 1.638882E-06
vn -1 1.953699E-13 1.638882E-06
vn 1.335238E-06 -1.192093E-07 -1
vn 1.335238E-06 -1.192093E-07 -1
vn 1.335238E-06 -1.192093E-07 -1
vn 1.335238E-06 -1.192093E-07 -1
vn 1 2.695062E-13 2.260782E-06
vn 1 2.695062E-13 2.260782E-06
vn 1 2.695062E-13 2.260782E-06
vn 1 2.695062E-13 2.260782E-06
vn 0 -1 1.192093E-07
vn 0 -1 1.192093E-07
vn 0 -1 1.192093E-07
vn 0 -1 1.192093E-07
vn 0 -1 1.192093E-07
vn 0 -1 1.192093E-07
vn 0 -1 1.192093E-07
vn 0 -1 1.192093E-07
vn 6.133886E-07 -1.192093E-07 -1
vn 6.133886E-07 -1.192093E-07 -1
vn 6.133886E-07 -1.192093E-07 -1
vn 6.133886E-07 -1.192093E-07 -1
vn -1 -3.009531E-14 -2.524579E-07
vn -1 -3.009531E-14 -2.524579E-07
vn -1 -3.009531E-14 -2.524579E-07
vn -1 -3.009531E-14 -2.524579E-07
vn -1.509958E-07 1.192093E-07 1
vn -1.509958E-07 1.192093E-07 1
vn -1.509958E-07 1.192093E-07 1
vn -1.509958E-07 1.192093E-07 1
vn 1 -1.785465E-13 -1.497756E-06
vn 1 -1.785465E-13 -1.497756E-06
vn 1 -1.785465E-13 -1.497756E-06
vn 1 -1.785465E-13 -1.497756E-06

vt 3.014717 0.0004995167
vt 4.603522 0.9995005
vt 4.603522 0.0004995167
vt 3.014717 0.9995005
vt -2.104988 0.0004995167
vt 6.778893 0.9995005
vt 6.778893 0.0004995167
vt -2.104988 0.9995005
vt -3.603525 0.0004995167
vt -2.014701 0.9995005
vt -2.014701 0.0004995167
vt -3.603525 0.9995005
vt -5.778893 0.0004995167
vt 3.105014 0.9995005
vt 3.105014 0.0004995167
vt -5.778893 0.9995005
vt -2.349938 0.0004995167
vt 4.413801 0.9995005
vt 4.413801 0.0004995167
vt -2.349938 0.9995005
vt -1.737768 0.0004995167
vt 4.603522 0.9995005
vt 4.603522 0.0004995167
vt -1.737768 0.9995005
vt -3.413803 0.0004995167
vt 5.343247 0.9995005
vt 5.343247 0.0004995167
vt -3.413803 0.9995005
vt 3.014701 5.343247
vt 4.603524 5.343247
vt 4.603522 -3.413803
vt 3.014712 -1.903008
vt -1.737768 -3.413801
vt -0.1489571 -1.903004
vt -1.737767 3.349938
vt -0.1489432 3.349938
vt -3.603524 0.0004995167
vt -2.014701 0.9995005
vt -2.014701 0.0004995167
vt -3.603524 0.9995005
vt 1.148943 0.0004995167
vt 2.737767 0.9995005
vt 2.737767 0.0004995167
vt 1.148943 0.9995005
vt -4.343247 0.0004995167
vt 2.903008 0.9995005
vt 2.903008 0.0004995167
vt -4.343247 0.9995005
vt -2.014712 0.0004995167
vt 1.148957 0.9995005
vt 1.148957 0.0004995167
vt -2.014712 0.9995005
vt -1.903004 0.0004995167
vt 3.349938 0.9995005
vt 3.349938 0.0004995167
vt -1.903004 0.9995005
vt -3.603522 -3.413803
vt -3.603524 5.343247
vt -2.014712 -1.903008
vt 2.737768 -3.413801
vt 1.148957 -1.903004
vt 2.737767 3.349938
vt 1.148943 3.349938
vt -2.014701 5.343247
vt 3.014717 0.0004995167
vt 4.603522 0.9995005
vt 4.603522 0.0004995167
vt 3.014717 0.9995005
vt -0.1061833 0.0004995167
vt 6.778893 0.9995005
vt 6.778893 0.0004995167
vt -0.1061833 0.9995005
vt -3.603525 0.0004995167
vt -2.014701 0.9995005
vt -2.014701 0.0004995167
vt -3.603525 0.9995005
vt -5.778893 0.0004995167
vt 1.106209 0.9995005
vt 1.106209 0.0004995167
vt -5.778893 0.9995005

vt1 0 0
vt1 0 0
vt1 0 0
vt1 0 0
vt1 0 0
vt1 0 0
vt1 0 0
vt1 0 0
vt1 0 0
vt1 0 0
vt1 0 0
vt1 0 0
vt1 0 0
vt1 0 0
vt1 0 0
vt1 0 0
vt1 0 0
vt1 0 0
vt1 0 0
vt1 0 0
vt1 0 0
vt1 0 0
vt1 0 0
vt1 0 0
vt1 0 0
vt1 0 0
vt1 0 0
vt1 0 0
vt1 0 0
vt1 0 0
vt1 0 0
vt1 0 0
vt1 0 0
vt1 0 0
vt1 0 0
vt1 0 0
vt1 0 0
vt1 0 0
vt1 0 0
vt1 0 0
vt1 0 0
vt1 0 0
vt1 0 0
vt1 0 0
vt1 0 0
vt1 0 0
vt1 0 0
vt1 0 0
vt1 0 0
vt1 0 0
vt1 0 0
vt1 0 0
vt1 0 0
vt1 0 0
vt1 0 0
vt1 0 0
vt1 0 0
vt1 0 0
vt1 0 0
vt1 0 0
vt1 0 0
vt1 0 0
vt1 0 0
vt1 0 0
vt1 0 0
vt1 0 0
vt1 0 0
vt1 0 0
vt1 0 0
vt1 0 0
vt1 0 0
vt1 0 0
vt1 0 0
vt1 0 0
vt1 0 0
vt1 0 0
vt1 0 0
vt1 0 0
vt1 0 0
vt1 0 0

vt2 0 0
vt2 0 0
vt2 0 0
vt2 0 0
vt2 0 0
vt2 0 0
vt2 0 0
vt2 0 0
vt2 0 0
vt2 0 0
vt2 0 0
vt2 0 0
vt2 0 0
vt2 0 0
vt2 0 0
vt2 0 0
vt2 0 0
vt2 0 0
vt2 0 0
vt2 0 0
vt2 0 0
vt2 0 0
vt2 0 0
vt2 0 0
vt2 0 0
vt2 0 0
vt2 0 0
vt2 0 0
vt2 0 0
vt2 0 0
vt2 0 0
vt2 0 0
vt2 0 0
vt2 0 0
vt2 0 0
vt2 0 0
vt2 0 0
vt2 0 0
vt2 0 0
vt2 0 0
vt2 0 0
vt2 0 0
vt2 0 0
vt2 0 0
vt2 0 0
vt2 0 0
vt2 0 0
vt2 0 0
vt2 0 0
vt2 0 0
vt2 0 0
vt2 0 0
vt2 0 0
vt2 0 0
vt2 0 0
vt2 0 0
vt2 0 0
vt2 0 0
vt2 0 0
vt2 0 0
vt2 0 0
vt2 0 0
vt2 0 0
vt2 0 0
vt2 0 0
vt2 0 0
vt2 0 0
vt2 0 0
vt2 0 0
vt2 0 0
vt2 0 0
vt2 0 0
vt2 0 0
vt2 0 0
vt2 0 0
vt2 0 0
vt2 0 0
vt2 0 0
vt2 0 0
vt2 0 0

vc 1 1 1 1
vc 1 1 1 1
vc 1 1 1 1
vc 1 1 1 1
vc 1 1 1 1
vc 1 1 1 1
vc 1 1 1 1
vc 1 1 1 1
vc 1 1 1 1
vc 1 1 1 1
vc 1 1 1 1
vc 1 1 1 1
vc 1 1 1 1
vc 1 1 1 1
vc 1 1 1 1
vc 1 1 1 1
vc 1 1 1 1
vc 1 1 1 1
vc 1 1 1 1
vc 1 1 1 1
vc 1 1 1 1
vc 1 1 1 1
vc 1 1 1 1
vc 1 1 1 1
vc 1 1 1 1
vc 1 1 1 1
vc 1 1 1 1
vc 1 1 1 1
vc 1 1 1 1
vc 1 1 1 1
vc 1 1 1 1
vc 1 1 1 1
vc 1 1 1 1
vc 1 1 1 1
vc 1 1 1 1
vc 1 1 1 1
vc 1 1 1 1
vc 1 1 1 1
vc 1 1 1 1
vc 1 1 1 1
vc 1 1 1 1
vc 1 1 1 1
vc 1 1 1 1
vc 1 1 1 1
vc 1 1 1 1
vc 1 1 1 1
vc 1 1 1 1
vc 1 1 1 1
vc 1 1 1 1
vc 1 1 1 1
vc 1 1 1 1
vc 1 1 1 1
vc 1 1 1 1
vc 1 1 1 1
vc 1 1 1 1
vc 1 1 1 1
vc 1 1 1 1
vc 1 1 1 1
vc 1 1 1 1
vc 1 1 1 1
vc 1 1 1 1
vc 1 1 1 1
vc 1 1 1 1
vc 1 1 1 1
vc 1 1 1 1
vc 1 1 1 1
vc 1 1 1 1
vc 1 1 1 1
vc 1 1 1 1
vc 1 1 1 1
vc 1 1 1 1
vc 1 1 1 1
vc 1 1 1 1
vc 1 1 1 1
vc 1 1 1 1
vc 1 1 1 1
vc 1 1 1 1
vc 1 1 1 1
vc 1 1 1 1
vc 1 1 1 1
f 1/1/1 3/3/3 2/2/2
f 1/1/1 2/2/2 4/4/4
f 5/5/5 7/7/7 6/6/6
f 5/5/5 6/6/6 8/8/8
f 17/17/17 19/19/19 18/18/18
f 17/17/17 18/18/18 20/20/20
f 21/21/21 23/23/23 22/22/22
f 21/21/21 22/22/22 24/24/24
f 25/25/25 27/27/27 26/26/26
f 25/25/25 26/26/26 28/28/28
f 29/29/29 31/31/31 30/30/30
f 31/31/31 29/29/29 32/32/32
f 32/32/32 33/33/33 31/31/31
f 33/33/33 32/32/32 34/34/34
f 33/33/33 34/34/34 35/35/35
f 35/35/35 34/34/34 36/36/36
f 65/65/65 67/67/67 66/66/66
f 65/65/65 66/66/66 68/68/68
f 69/69/69 71/71/71 70/70/70
f 69/69/69 70/70/70 72/72/72

