g Exported Mesh Combined Mesh 
v 32.11874 33.06194 -83.75552
v 27.89955 33.07718 -83.75552
v 27.89955 33.06194 -83.75552
v 32.11874 33.07718 -83.75552
v 27.89955 33.06194 -83.75552
v 27.89955 33.07718 -78.13075
v 27.89955 33.06194 -78.13075
v 27.89955 33.07718 -83.75552
v 27.89955 33.06194 -78.13075
v 29.84391 33.07718 -78.13075
v 29.84391 33.06194 -78.13075
v 27.89955 33.07718 -78.13075
v 29.84391 33.06194 -78.13075
v 29.84392 33.07718 -78.8755
v 29.84392 33.06194 -78.8755
v 29.84391 33.07718 -78.13075
v 29.84392 33.06194 -78.8755
v 31.45508 33.07718 -78.8755
v 31.45508 33.06194 -78.8755
v 29.84392 33.07718 -78.8755
v 31.45508 33.06194 -78.8755
v 31.53606 33.07718 -82.18803
v 31.53606 33.06194 -82.18803
v 31.45508 33.07718 -78.8755
v 31.53606 33.06194 -82.18803
v 32.11594 33.07718 -82.18803
v 32.11594 33.06194 -82.18803
v 31.53606 33.07718 -82.18803
v 32.11594 33.06194 -82.18803
v 32.11874 33.07718 -83.75552
v 32.11874 33.06194 -83.75552
v 32.11594 33.07718 -82.18803
v 32.11594 33.06194 -82.18803
v 32.11874 33.06194 -83.75552
v 27.89955 33.06194 -83.75552
v 31.53606 33.06194 -82.18803
v 27.89955 33.06194 -78.13075
v 29.84392 33.06194 -78.8755
v 29.84391 33.06194 -78.13075
v 31.45508 33.06194 -78.8755
v 32.11594 33.07718 -82.18803
v 27.89955 33.07718 -83.75552
v 32.11874 33.07718 -83.75552
v 31.53606 33.07718 -82.18803
v 27.89955 33.07718 -78.13075
v 29.84392 33.07718 -78.8755
v 29.84391 33.07718 -78.13075
v 31.45508 33.07718 -78.8755
v 38.85365 33.06194 -82.11082
v 34.64895 33.07718 -82.11082
v 34.64895 33.06194 -82.11082
v 38.85365 33.07718 -82.11082
v 34.64895 33.06194 -82.11082
v 34.64895 33.07718 -78.92275
v 34.64895 33.06194 -78.92275
v 34.64895 33.07718 -82.11082
v 34.64895 33.06194 -78.92275
v 38.85365 33.07718 -78.92275
v 38.85365 33.06194 -78.92275
v 34.64895 33.07718 -78.92275
v 38.85365 33.06194 -78.92275
v 38.85365 33.07718 -82.11082
v 38.85365 33.06194 -82.11082
v 38.85365 33.07718 -78.92275
v 38.85365 33.06194 -78.92275
v 38.85365 33.06194 -82.11082
v 34.64895 33.06194 -82.11082
v 34.64895 33.06194 -78.92275
v 38.85365 33.07718 -78.92275
v 34.64895 33.07718 -82.11082
v 38.85365 33.07718 -82.11082
v 34.64895 33.07718 -78.92275
v 41.65007 33.06194 -90.98489
v 38.01357 33.07718 -90.98488
v 38.01357 33.06194 -90.98488
v 41.65007 33.07718 -90.98489
v 38.01357 33.06194 -90.98488
v 38.01357 33.07718 -86.0524
v 38.01357 33.06194 -86.0524
v 38.01357 33.07718 -90.98488
v 38.01357 33.06194 -86.0524
v 41.65007 33.07718 -86.0524
v 41.65007 33.06194 -86.0524
v 38.01357 33.07718 -86.0524
v 41.65007 33.06194 -86.0524
v 41.65007 33.07718 -90.98489
v 41.65007 33.06194 -90.98489
v 41.65007 33.07718 -86.0524
v 41.65007 33.06194 -86.0524
v 41.65007 33.06194 -90.98489
v 38.01357 33.06194 -90.98488
v 38.01357 33.06194 -86.0524
v 41.65007 33.07718 -86.0524
v 38.01357 33.07718 -90.98488
v 41.65007 33.07718 -90.98489
v 38.01357 33.07718 -86.0524
v 32.11874 33.06194 -83.75552
v 27.89955 33.07718 -83.75552
v 27.89955 33.06194 -83.75552
v 32.11874 33.07718 -83.75552
v 27.89955 33.06194 -83.75552
v 27.89955 33.07718 -78.13075
v 27.89955 33.06194 -78.13075
v 27.89955 33.07718 -83.75552
v 27.89955 33.06194 -78.13075
v 29.84391 33.07718 -78.13075
v 29.84391 33.06194 -78.13075
v 27.89955 33.07718 -78.13075
v 29.84391 33.06194 -78.13075
v 29.84392 33.07718 -78.8755
v 29.84392 33.06194 -78.8755
v 29.84391 33.07718 -78.13075
v 29.84392 33.06194 -78.8755
v 31.45508 33.07718 -78.8755
v 31.45508 33.06194 -78.8755
v 29.84392 33.07718 -78.8755
v 31.45508 33.06194 -78.8755
v 31.53606 33.07718 -82.18803
v 31.53606 33.06194 -82.18803
v 31.45508 33.07718 -78.8755
v 31.53606 33.06194 -82.18803
v 32.11594 33.07718 -82.18803
v 32.11594 33.06194 -82.18803
v 31.53606 33.07718 -82.18803
v 32.11594 33.06194 -82.18803
v 32.11874 33.07718 -83.75552
v 32.11874 33.06194 -83.75552
v 32.11594 33.07718 -82.18803
v 32.11594 33.06194 -82.18803
v 32.11874 33.06194 -83.75552
v 27.89955 33.06194 -83.75552
v 31.53606 33.06194 -82.18803
v 27.89955 33.06194 -78.13075
v 29.84392 33.06194 -78.8755
v 29.84391 33.06194 -78.13075
v 31.45508 33.06194 -78.8755
v 32.11594 33.07718 -82.18803
v 27.89955 33.07718 -83.75552
v 32.11874 33.07718 -83.75552
v 31.53606 33.07718 -82.18803
v 27.89955 33.07718 -78.13075
v 29.84392 33.07718 -78.8755
v 29.84391 33.07718 -78.13075
v 31.45508 33.07718 -78.8755
v 38.85365 33.06194 -82.11082
v 34.64895 33.07718 -82.11082
v 34.64895 33.06194 -82.11082
v 38.85365 33.07718 -82.11082
v 34.64895 33.06194 -82.11082
v 34.64895 33.07718 -78.92275
v 34.64895 33.06194 -78.92275
v 34.64895 33.07718 -82.11082
v 34.64895 33.06194 -78.92275
v 38.85365 33.07718 -78.92275
v 38.85365 33.06194 -78.92275
v 34.64895 33.07718 -78.92275
v 38.85365 33.06194 -78.92275
v 38.85365 33.07718 -82.11082
v 38.85365 33.06194 -82.11082
v 38.85365 33.07718 -78.92275
v 38.85365 33.06194 -78.92275
v 38.85365 33.06194 -82.11082
v 34.64895 33.06194 -82.11082
v 34.64895 33.06194 -78.92275
v 38.85365 33.07718 -78.92275
v 34.64895 33.07718 -82.11082
v 38.85365 33.07718 -82.11082
v 34.64895 33.07718 -78.92275
v 41.65007 33.06194 -90.98489
v 38.01357 33.07718 -90.98488
v 38.01357 33.06194 -90.98488
v 41.65007 33.07718 -90.98489
v 38.01357 33.06194 -90.98488
v 38.01357 33.07718 -86.0524
v 38.01357 33.06194 -86.0524
v 38.01357 33.07718 -90.98488
v 38.01357 33.06194 -86.0524
v 41.65007 33.07718 -86.0524
v 41.65007 33.06194 -86.0524
v 38.01357 33.07718 -86.0524
v 41.65007 33.06194 -86.0524
v 41.65007 33.07718 -90.98489
v 41.65007 33.06194 -90.98489
v 41.65007 33.07718 -86.0524
v 41.65007 33.06194 -86.0524
v 41.65007 33.06194 -90.98489
v 38.01357 33.06194 -90.98488
v 38.01357 33.06194 -86.0524
v 41.65007 33.07718 -86.0524
v 38.01357 33.07718 -90.98488
v 41.65007 33.07718 -90.98489
v 38.01357 33.07718 -86.0524

vn 1.084957E-07 -1.192093E-07 -1
vn 1.084957E-07 -1.192093E-07 -1
vn 1.084957E-07 -1.192093E-07 -1
vn 1.084957E-07 -1.192093E-07 -1
vn -1 0 0
vn -1 0 0
vn -1 0 0
vn -1 0 0
vn 0 1.192093E-07 1
vn 0 1.192093E-07 1
vn 0 1.192093E-07 1
vn 0 1.192093E-07 1
vn 1 8.517938E-13 7.145365E-06
vn 1 8.517938E-13 7.145365E-06
vn 1 8.517937E-13 7.145364E-06
vn 1 8.517937E-13 7.145364E-06
vn -1.70472E-06 1.192093E-07 1
vn -1.70472E-06 1.192093E-07 1
vn -1.704721E-06 1.192093E-07 1
vn -1.704721E-06 1.192093E-07 1
vn 0.9997014 2.91325E-09 0.02443812
vn 0.9997014 2.91325E-09 0.02443812
vn 0.9997014 2.91325E-09 0.02443811
vn 0.9997014 2.91325E-09 0.02443811
vn 5.131171E-06 1.192093E-07 1
vn 5.131171E-06 1.192093E-07 1
vn 5.131171E-06 1.192093E-07 1
vn 5.131171E-06 1.192093E-07 1
vn 0.9999985 2.133943E-10 0.001790082
vn 0.9999985 2.133943E-10 0.001790082
vn 0.9999985 2.133944E-10 0.001790082
vn 0.9999985 2.133944E-10 0.001790082
vn 0 -1 1.192093E-07
vn 0 -1 1.192093E-07
vn 0 -1 1.192093E-07
vn 0 -1 1.192093E-07
vn 0 -1 1.192093E-07
vn 0 -1 1.192093E-07
vn 0 -1 1.192093E-07
vn 0 -1 1.192093E-07
vn 0 1 -1.192093E-07
vn 0 1 -1.192093E-07
vn 0 1 -1.192093E-07
vn 0 1 -1.192093E-07
vn 0 1 -1.192093E-07
vn 0 1 -1.192093E-07
vn 0 1 -1.192093E-07
vn 0 1 -1.192093E-07
vn -1.124986E-06 -1.192093E-07 -1
vn -1.124986E-06 -1.192093E-07 -1
vn -1.124986E-06 -1.192093E-07 -1
vn -1.124986E-06 -1.192093E-07 -1
vn -1 0 0
vn -1 0 0
vn -1 0 0
vn -1 0 0
vn 0 1.192093E-07 1
vn 0 1.192093E-07 1
vn 0 1.192093E-07 1
vn 0 1.192093E-07 1
vn 1 0 0
vn 1 0 0
vn 1 0 0
vn 1 0 0
vn 0 -1 1.192093E-07
vn 0 -1 1.192093E-07
vn 0 -1 1.192093E-07
vn 0 -1 1.192093E-07
vn 0 1 -1.192093E-07
vn 0 1 -1.192093E-07
vn 0 1 -1.192093E-07
vn 0 1 -1.192093E-07
vn -1.300764E-06 -1.192093E-07 -1
vn -1.300764E-06 -1.192093E-07 -1
vn -1.300764E-06 -1.192093E-07 -1
vn -1.300764E-06 -1.192093E-07 -1
vn -1 0 0
vn -1 0 0
vn -1 0 0
vn -1 0 0
vn 0 1.192093E-07 1
vn 0 1.192093E-07 1
vn 0 1.192093E-07 1
vn 0 1.192093E-07 1
vn 1 0 0
vn 1 0 0
vn 1 0 0
vn 1 0 0
vn 0 -1 1.192093E-07
vn 0 -1 1.192093E-07
vn 0 -1 1.192093E-07
vn 0 -1 1.192093E-07
vn 0 1 -1.192093E-07
vn 0 1 -1.192093E-07
vn 0 1 -1.192093E-07
vn 0 1 -1.192093E-07
vn 1.084957E-07 -1.192093E-07 -1
vn 1.084957E-07 -1.192093E-07 -1
vn 1.084957E-07 -1.192093E-07 -1
vn 1.084957E-07 -1.192093E-07 -1
vn -1 0 0
vn -1 0 0
vn -1 0 0
vn -1 0 0
vn 0 1.192093E-07 1
vn 0 1.192093E-07 1
vn 0 1.192093E-07 1
vn 0 1.192093E-07 1
vn 1 8.517938E-13 7.145365E-06
vn 1 8.517938E-13 7.145365E-06
vn 1 8.517937E-13 7.145364E-06
vn 1 8.517937E-13 7.145364E-06
vn -1.70472E-06 1.192093E-07 1
vn -1.70472E-06 1.192093E-07 1
vn -1.704721E-06 1.192093E-07 1
vn -1.704721E-06 1.192093E-07 1
vn 0.9997014 2.91325E-09 0.02443812
vn 0.9997014 2.91325E-09 0.02443812
vn 0.9997014 2.91325E-09 0.02443811
vn 0.9997014 2.91325E-09 0.02443811
vn 5.131171E-06 1.192093E-07 1
vn 5.131171E-06 1.192093E-07 1
vn 5.131171E-06 1.192093E-07 1
vn 5.131171E-06 1.192093E-07 1
vn 0.9999985 2.133943E-10 0.001790082
vn 0.9999985 2.133943E-10 0.001790082
vn 0.9999985 2.133944E-10 0.001790082
vn 0.9999985 2.133944E-10 0.001790082
vn 0 -1 1.192093E-07
vn 0 -1 1.192093E-07
vn 0 -1 1.192093E-07
vn 0 -1 1.192093E-07
vn 0 -1 1.192093E-07
vn 0 -1 1.192093E-07
vn 0 -1 1.192093E-07
vn 0 -1 1.192093E-07
vn 0 1 -1.192093E-07
vn 0 1 -1.192093E-07
vn 0 1 -1.192093E-07
vn 0 1 -1.192093E-07
vn 0 1 -1.192093E-07
vn 0 1 -1.192093E-07
vn 0 1 -1.192093E-07
vn 0 1 -1.192093E-07
vn -1.124986E-06 -1.192093E-07 -1
vn -1.124986E-06 -1.192093E-07 -1
vn -1.124986E-06 -1.192093E-07 -1
vn -1.124986E-06 -1.192093E-07 -1
vn -1 0 0
vn -1 0 0
vn -1 0 0
vn -1 0 0
vn 0 1.192093E-07 1
vn 0 1.192093E-07 1
vn 0 1.192093E-07 1
vn 0 1.192093E-07 1
vn 1 0 0
vn 1 0 0
vn 1 0 0
vn 1 0 0
vn 0 -1 1.192093E-07
vn 0 -1 1.192093E-07
vn 0 -1 1.192093E-07
vn 0 -1 1.192093E-07
vn 0 1 -1.192093E-07
vn 0 1 -1.192093E-07
vn 0 1 -1.192093E-07
vn 0 1 -1.192093E-07
vn -1.300764E-06 -1.192093E-07 -1
vn -1.300764E-06 -1.192093E-07 -1
vn -1.300764E-06 -1.192093E-07 -1
vn -1.300764E-06 -1.192093E-07 -1
vn -1 0 0
vn -1 0 0
vn -1 0 0
vn -1 0 0
vn 0 1.192093E-07 1
vn 0 1.192093E-07 1
vn 0 1.192093E-07 1
vn 0 1.192093E-07 1
vn 1 0 0
vn 1 0 0
vn 1 0 0
vn 1 0 0
vn 0 -1 1.192093E-07
vn 0 -1 1.192093E-07
vn 0 -1 1.192093E-07
vn 0 -1 1.192093E-07
vn 0 1 -1.192093E-07
vn 0 1 -1.192093E-07
vn 0 1 -1.192093E-07
vn 0 1 -1.192093E-07

vt 1.693353 1.457434
vt -0.6229137 1.457434
vt -0.6229137 1.457434
vt 1.693353 1.457434
vt -0.6229137 1.457434
vt -0.6229144 -0.6229142
vt -0.6229144 -0.6229142
vt -0.6229137 1.457434
vt -0.6229144 -0.6229142
vt 0.4445069 -0.6229144
vt 0.4445069 -0.6229144
vt -0.6229144 -0.6229142
vt 0.4445069 -0.6229144
vt 0.4445099 -0.3474652
vt 0.4445099 -0.3474652
vt 0.4445069 -0.6229144
vt 0.4445099 -0.3474652
vt 1.329012 -0.3474663
vt 1.329012 -0.3474663
vt 0.4445099 -0.3474652
vt 1.329012 -0.3474663
vt 1.373467 0.8776889
vt 1.373467 0.8776889
vt 1.329012 -0.3474663
vt 1.373467 0.8776889
vt 1.691812 0.87769
vt 1.691812 0.87769
vt 1.373467 0.8776889
vt 1.691812 0.87769
vt 1.693353 1.457434
vt 1.693353 1.457434
vt 1.691812 0.87769
vt 1.691812 0.87769
vt 1.693353 1.457434
vt -0.6229137 1.457434
vt 1.373467 0.8776889
vt -0.6229144 -0.6229142
vt 0.4445099 -0.3474652
vt 0.4445069 -0.6229144
vt 1.329012 -0.3474663
vt 1.691812 0.87769
vt -0.6229137 1.457434
vt 1.693353 1.457434
vt 1.373467 0.8776889
vt -0.6229144 -0.6229142
vt 0.4445099 -0.3474652
vt 0.4445069 -0.6229144
vt 1.329012 -0.3474663
vt 1.622914 0.4943875
vt -0.6853971 0.4943861
vt -0.6853971 0.4943861
vt 1.622914 0.4943875
vt -0.6853971 0.4943861
vt -0.6853976 -0.6847368
vt -0.6853976 -0.6847368
vt -0.6853971 0.4943861
vt -0.6853976 -0.6847368
vt 1.622914 -0.6847373
vt 1.622914 -0.6847373
vt -0.6853976 -0.6847368
vt 1.622914 -0.6847373
vt 1.622914 0.4943875
vt 1.622914 0.4943875
vt 1.622914 -0.6847373
vt 1.622914 -0.6847373
vt 1.622914 0.4943875
vt -0.6853971 0.4943861
vt -0.6853976 -0.6847368
vt 1.622914 -0.6847373
vt -0.6853971 0.4943861
vt 1.622914 0.4943875
vt -0.6853976 -0.6847368
vt 1.622914 0.304561
vt -0.3734655 0.3045596
vt -0.3734655 0.3045596
vt 1.622914 0.304561
vt -0.3734655 0.3045596
vt -0.3734661 -1.519742
vt -0.3734661 -1.519742
vt -0.3734655 0.3045596
vt -0.3734661 -1.519742
vt 1.622913 -1.519743
vt 1.622913 -1.519743
vt -0.3734661 -1.519742
vt 1.622913 -1.519743
vt 1.622914 0.304561
vt 1.622914 0.304561
vt 1.622913 -1.519743
vt 1.622913 -1.519743
vt 1.622914 0.304561
vt -0.3734655 0.3045596
vt -0.3734661 -1.519742
vt 1.622913 -1.519743
vt -0.3734655 0.3045596
vt 1.622914 0.304561
vt -0.3734661 -1.519742
vt 1.693353 1.457434
vt -0.6229137 1.457434
vt -0.6229137 1.457434
vt 1.693353 1.457434
vt -0.6229137 1.457434
vt -0.6229144 -0.6229142
vt -0.6229144 -0.6229142
vt -0.6229137 1.457434
vt -0.6229144 -0.6229142
vt 0.4445069 -0.6229144
vt 0.4445069 -0.6229144
vt -0.6229144 -0.6229142
vt 0.4445069 -0.6229144
vt 0.4445099 -0.3474652
vt 0.4445099 -0.3474652
vt 0.4445069 -0.6229144
vt 0.4445099 -0.3474652
vt 1.329012 -0.3474663
vt 1.329012 -0.3474663
vt 0.4445099 -0.3474652
vt 1.329012 -0.3474663
vt 1.373467 0.8776889
vt 1.373467 0.8776889
vt 1.329012 -0.3474663
vt 1.373467 0.8776889
vt 1.691812 0.87769
vt 1.691812 0.87769
vt 1.373467 0.8776889
vt 1.691812 0.87769
vt 1.693353 1.457434
vt 1.693353 1.457434
vt 1.691812 0.87769
vt 1.691812 0.87769
vt 1.693353 1.457434
vt -0.6229137 1.457434
vt 1.373467 0.8776889
vt -0.6229144 -0.6229142
vt 0.4445099 -0.3474652
vt 0.4445069 -0.6229144
vt 1.329012 -0.3474663
vt 1.691812 0.87769
vt -0.6229137 1.457434
vt 1.693353 1.457434
vt 1.373467 0.8776889
vt -0.6229144 -0.6229142
vt 0.4445099 -0.3474652
vt 0.4445069 -0.6229144
vt 1.329012 -0.3474663
vt 1.622914 0.4943875
vt -0.6853971 0.4943861
vt -0.6853971 0.4943861
vt 1.622914 0.4943875
vt -0.6853971 0.4943861
vt -0.6853976 -0.6847368
vt -0.6853976 -0.6847368
vt -0.6853971 0.4943861
vt -0.6853976 -0.6847368
vt 1.622914 -0.6847373
vt 1.622914 -0.6847373
vt -0.6853976 -0.6847368
vt 1.622914 -0.6847373
vt 1.622914 0.4943875
vt 1.622914 0.4943875
vt 1.622914 -0.6847373
vt 1.622914 -0.6847373
vt 1.622914 0.4943875
vt -0.6853971 0.4943861
vt -0.6853976 -0.6847368
vt 1.622914 -0.6847373
vt -0.6853971 0.4943861
vt 1.622914 0.4943875
vt -0.6853976 -0.6847368
vt 1.622914 0.304561
vt -0.3734655 0.3045596
vt -0.3734655 0.3045596
vt 1.622914 0.304561
vt -0.3734655 0.3045596
vt -0.3734661 -1.519742
vt -0.3734661 -1.519742
vt -0.3734655 0.3045596
vt -0.3734661 -1.519742
vt 1.622913 -1.519743
vt 1.622913 -1.519743
vt -0.3734661 -1.519742
vt 1.622913 -1.519743
vt 1.622914 0.304561
vt 1.622914 0.304561
vt 1.622913 -1.519743
vt 1.622913 -1.519743
vt 1.622914 0.304561
vt -0.3734655 0.3045596
vt -0.3734661 -1.519742
vt 1.622913 -1.519743
vt -0.3734655 0.3045596
vt 1.622914 0.304561
vt -0.3734661 -1.519742

vt1 0 0
vt1 0 0
vt1 0 0
vt1 0 0
vt1 0 0
vt1 0 0
vt1 0 0
vt1 0 0
vt1 0 0
vt1 0 0
vt1 0 0
vt1 0 0
vt1 0 0
vt1 0 0
vt1 0 0
vt1 0 0
vt1 0 0
vt1 0 0
vt1 0 0
vt1 0 0
vt1 0 0
vt1 0 0
vt1 0 0
vt1 0 0
vt1 0 0
vt1 0 0
vt1 0 0
vt1 0 0
vt1 0 0
vt1 0 0
vt1 0 0
vt1 0 0
vt1 0 0
vt1 0 0
vt1 0 0
vt1 0 0
vt1 0 0
vt1 0 0
vt1 0 0
vt1 0 0
vt1 0 0
vt1 0 0
vt1 0 0
vt1 0 0
vt1 0 0
vt1 0 0
vt1 0 0
vt1 0 0
vt1 0 0
vt1 0 0
vt1 0 0
vt1 0 0
vt1 0 0
vt1 0 0
vt1 0 0
vt1 0 0
vt1 0 0
vt1 0 0
vt1 0 0
vt1 0 0
vt1 0 0
vt1 0 0
vt1 0 0
vt1 0 0
vt1 0 0
vt1 0 0
vt1 0 0
vt1 0 0
vt1 0 0
vt1 0 0
vt1 0 0
vt1 0 0
vt1 0 0
vt1 0 0
vt1 0 0
vt1 0 0
vt1 0 0
vt1 0 0
vt1 0 0
vt1 0 0
vt1 0 0
vt1 0 0
vt1 0 0
vt1 0 0
vt1 0 0
vt1 0 0
vt1 0 0
vt1 0 0
vt1 0 0
vt1 0 0
vt1 0 0
vt1 0 0
vt1 0 0
vt1 0 0
vt1 0 0
vt1 0 0
vt1 0 0
vt1 0 0
vt1 0 0
vt1 0 0
vt1 0 0
vt1 0 0
vt1 0 0
vt1 0 0
vt1 0 0
vt1 0 0
vt1 0 0
vt1 0 0
vt1 0 0
vt1 0 0
vt1 0 0
vt1 0 0
vt1 0 0
vt1 0 0
vt1 0 0
vt1 0 0
vt1 0 0
vt1 0 0
vt1 0 0
vt1 0 0
vt1 0 0
vt1 0 0
vt1 0 0
vt1 0 0
vt1 0 0
vt1 0 0
vt1 0 0
vt1 0 0
vt1 0 0
vt1 0 0
vt1 0 0
vt1 0 0
vt1 0 0
vt1 0 0
vt1 0 0
vt1 0 0
vt1 0 0
vt1 0 0
vt1 0 0
vt1 0 0
vt1 0 0
vt1 0 0
vt1 0 0
vt1 0 0
vt1 0 0
vt1 0 0
vt1 0 0
vt1 0 0
vt1 0 0
vt1 0 0
vt1 0 0
vt1 0 0
vt1 0 0
vt1 0 0
vt1 0 0
vt1 0 0
vt1 0 0
vt1 0 0
vt1 0 0
vt1 0 0
vt1 0 0
vt1 0 0
vt1 0 0
vt1 0 0
vt1 0 0
vt1 0 0
vt1 0 0
vt1 0 0
vt1 0 0
vt1 0 0
vt1 0 0
vt1 0 0
vt1 0 0
vt1 0 0
vt1 0 0
vt1 0 0
vt1 0 0
vt1 0 0
vt1 0 0
vt1 0 0
vt1 0 0
vt1 0 0
vt1 0 0
vt1 0 0
vt1 0 0
vt1 0 0
vt1 0 0
vt1 0 0
vt1 0 0
vt1 0 0
vt1 0 0
vt1 0 0

vt2 0 0
vt2 0 0
vt2 0 0
vt2 0 0
vt2 0 0
vt2 0 0
vt2 0 0
vt2 0 0
vt2 0 0
vt2 0 0
vt2 0 0
vt2 0 0
vt2 0 0
vt2 0 0
vt2 0 0
vt2 0 0
vt2 0 0
vt2 0 0
vt2 0 0
vt2 0 0
vt2 0 0
vt2 0 0
vt2 0 0
vt2 0 0
vt2 0 0
vt2 0 0
vt2 0 0
vt2 0 0
vt2 0 0
vt2 0 0
vt2 0 0
vt2 0 0
vt2 0 0
vt2 0 0
vt2 0 0
vt2 0 0
vt2 0 0
vt2 0 0
vt2 0 0
vt2 0 0
vt2 0 0
vt2 0 0
vt2 0 0
vt2 0 0
vt2 0 0
vt2 0 0
vt2 0 0
vt2 0 0
vt2 0 0
vt2 0 0
vt2 0 0
vt2 0 0
vt2 0 0
vt2 0 0
vt2 0 0
vt2 0 0
vt2 0 0
vt2 0 0
vt2 0 0
vt2 0 0
vt2 0 0
vt2 0 0
vt2 0 0
vt2 0 0
vt2 0 0
vt2 0 0
vt2 0 0
vt2 0 0
vt2 0 0
vt2 0 0
vt2 0 0
vt2 0 0
vt2 0 0
vt2 0 0
vt2 0 0
vt2 0 0
vt2 0 0
vt2 0 0
vt2 0 0
vt2 0 0
vt2 0 0
vt2 0 0
vt2 0 0
vt2 0 0
vt2 0 0
vt2 0 0
vt2 0 0
vt2 0 0
vt2 0 0
vt2 0 0
vt2 0 0
vt2 0 0
vt2 0 0
vt2 0 0
vt2 0 0
vt2 0 0
vt2 0 0
vt2 0 0
vt2 0 0
vt2 0 0
vt2 0 0
vt2 0 0
vt2 0 0
vt2 0 0
vt2 0 0
vt2 0 0
vt2 0 0
vt2 0 0
vt2 0 0
vt2 0 0
vt2 0 0
vt2 0 0
vt2 0 0
vt2 0 0
vt2 0 0
vt2 0 0
vt2 0 0
vt2 0 0
vt2 0 0
vt2 0 0
vt2 0 0
vt2 0 0
vt2 0 0
vt2 0 0
vt2 0 0
vt2 0 0
vt2 0 0
vt2 0 0
vt2 0 0
vt2 0 0
vt2 0 0
vt2 0 0
vt2 0 0
vt2 0 0
vt2 0 0
vt2 0 0
vt2 0 0
vt2 0 0
vt2 0 0
vt2 0 0
vt2 0 0
vt2 0 0
vt2 0 0
vt2 0 0
vt2 0 0
vt2 0 0
vt2 0 0
vt2 0 0
vt2 0 0
vt2 0 0
vt2 0 0
vt2 0 0
vt2 0 0
vt2 0 0
vt2 0 0
vt2 0 0
vt2 0 0
vt2 0 0
vt2 0 0
vt2 0 0
vt2 0 0
vt2 0 0
vt2 0 0
vt2 0 0
vt2 0 0
vt2 0 0
vt2 0 0
vt2 0 0
vt2 0 0
vt2 0 0
vt2 0 0
vt2 0 0
vt2 0 0
vt2 0 0
vt2 0 0
vt2 0 0
vt2 0 0
vt2 0 0
vt2 0 0
vt2 0 0
vt2 0 0
vt2 0 0
vt2 0 0
vt2 0 0
vt2 0 0
vt2 0 0
vt2 0 0
vt2 0 0
vt2 0 0
vt2 0 0
vt2 0 0
vt2 0 0

vc 1 1 1 1
vc 1 1 1 1
vc 1 1 1 1
vc 1 1 1 1
vc 1 1 1 1
vc 1 1 1 1
vc 1 1 1 1
vc 1 1 1 1
vc 1 1 1 1
vc 1 1 1 1
vc 1 1 1 1
vc 1 1 1 1
vc 1 1 1 1
vc 1 1 1 1
vc 1 1 1 1
vc 1 1 1 1
vc 1 1 1 1
vc 1 1 1 1
vc 1 1 1 1
vc 1 1 1 1
vc 1 1 1 1
vc 1 1 1 1
vc 1 1 1 1
vc 1 1 1 1
vc 1 1 1 1
vc 1 1 1 1
vc 1 1 1 1
vc 1 1 1 1
vc 1 1 1 1
vc 1 1 1 1
vc 1 1 1 1
vc 1 1 1 1
vc 1 1 1 1
vc 1 1 1 1
vc 1 1 1 1
vc 1 1 1 1
vc 1 1 1 1
vc 1 1 1 1
vc 1 1 1 1
vc 1 1 1 1
vc 1 1 1 1
vc 1 1 1 1
vc 1 1 1 1
vc 1 1 1 1
vc 1 1 1 1
vc 1 1 1 1
vc 1 1 1 1
vc 1 1 1 1
vc 1 1 1 1
vc 1 1 1 1
vc 1 1 1 1
vc 1 1 1 1
vc 1 1 1 1
vc 1 1 1 1
vc 1 1 1 1
vc 1 1 1 1
vc 1 1 1 1
vc 1 1 1 1
vc 1 1 1 1
vc 1 1 1 1
vc 1 1 1 1
vc 1 1 1 1
vc 1 1 1 1
vc 1 1 1 1
vc 1 1 1 1
vc 1 1 1 1
vc 1 1 1 1
vc 1 1 1 1
vc 1 1 1 1
vc 1 1 1 1
vc 1 1 1 1
vc 1 1 1 1
vc 1 1 1 1
vc 1 1 1 1
vc 1 1 1 1
vc 1 1 1 1
vc 1 1 1 1
vc 1 1 1 1
vc 1 1 1 1
vc 1 1 1 1
vc 1 1 1 1
vc 1 1 1 1
vc 1 1 1 1
vc 1 1 1 1
vc 1 1 1 1
vc 1 1 1 1
vc 1 1 1 1
vc 1 1 1 1
vc 1 1 1 1
vc 1 1 1 1
vc 1 1 1 1
vc 1 1 1 1
vc 1 1 1 1
vc 1 1 1 1
vc 1 1 1 1
vc 1 1 1 1
vc 1 1 1 1
vc 1 1 1 1
vc 1 1 1 1
vc 1 1 1 1
vc 1 1 1 1
vc 1 1 1 1
vc 1 1 1 1
vc 1 1 1 1
vc 1 1 1 1
vc 1 1 1 1
vc 1 1 1 1
vc 1 1 1 1
vc 1 1 1 1
vc 1 1 1 1
vc 1 1 1 1
vc 1 1 1 1
vc 1 1 1 1
vc 1 1 1 1
vc 1 1 1 1
vc 1 1 1 1
vc 1 1 1 1
vc 1 1 1 1
vc 1 1 1 1
vc 1 1 1 1
vc 1 1 1 1
vc 1 1 1 1
vc 1 1 1 1
vc 1 1 1 1
vc 1 1 1 1
vc 1 1 1 1
vc 1 1 1 1
vc 1 1 1 1
vc 1 1 1 1
vc 1 1 1 1
vc 1 1 1 1
vc 1 1 1 1
vc 1 1 1 1
vc 1 1 1 1
vc 1 1 1 1
vc 1 1 1 1
vc 1 1 1 1
vc 1 1 1 1
vc 1 1 1 1
vc 1 1 1 1
vc 1 1 1 1
vc 1 1 1 1
vc 1 1 1 1
vc 1 1 1 1
vc 1 1 1 1
vc 1 1 1 1
vc 1 1 1 1
vc 1 1 1 1
vc 1 1 1 1
vc 1 1 1 1
vc 1 1 1 1
vc 1 1 1 1
vc 1 1 1 1
vc 1 1 1 1
vc 1 1 1 1
vc 1 1 1 1
vc 1 1 1 1
vc 1 1 1 1
vc 1 1 1 1
vc 1 1 1 1
vc 1 1 1 1
vc 1 1 1 1
vc 1 1 1 1
vc 1 1 1 1
vc 1 1 1 1
vc 1 1 1 1
vc 1 1 1 1
vc 1 1 1 1
vc 1 1 1 1
vc 1 1 1 1
vc 1 1 1 1
vc 1 1 1 1
vc 1 1 1 1
vc 1 1 1 1
vc 1 1 1 1
vc 1 1 1 1
vc 1 1 1 1
vc 1 1 1 1
vc 1 1 1 1
vc 1 1 1 1
vc 1 1 1 1
vc 1 1 1 1
vc 1 1 1 1
vc 1 1 1 1
vc 1 1 1 1
vc 1 1 1 1
vc 1 1 1 1
vc 1 1 1 1
vc 1 1 1 1
vc 1 1 1 1
vc 1 1 1 1
vc 1 1 1 1
f 1/1/1 3/3/3 2/2/2
f 1/1/1 2/2/2 4/4/4
f 5/5/5 7/7/7 6/6/6
f 5/5/5 6/6/6 8/8/8
f 9/9/9 11/11/11 10/10/10
f 9/9/9 10/10/10 12/12/12
f 13/13/13 15/15/15 14/14/14
f 13/13/13 14/14/14 16/16/16
f 17/17/17 19/19/19 18/18/18
f 17/17/17 18/18/18 20/20/20
f 21/21/21 23/23/23 22/22/22
f 21/21/21 22/22/22 24/24/24
f 25/25/25 27/27/27 26/26/26
f 25/25/25 26/26/26 28/28/28
f 29/29/29 31/31/31 30/30/30
f 29/29/29 30/30/30 32/32/32
f 33/33/33 35/35/35 34/34/34
f 36/36/36 35/35/35 33/33/33
f 36/36/36 37/37/37 35/35/35
f 36/36/36 38/38/38 37/37/37
f 37/37/37 38/38/38 39/39/39
f 40/40/40 38/38/38 36/36/36
f 41/41/41 43/43/43 42/42/42
f 44/44/44 41/41/41 42/42/42
f 44/44/44 42/42/42 45/45/45
f 44/44/44 45/45/45 46/46/46
f 45/45/45 47/47/47 46/46/46
f 48/48/48 44/44/44 46/46/46
f 49/49/49 51/51/51 50/50/50
f 49/49/49 50/50/50 52/52/52
f 53/53/53 55/55/55 54/54/54
f 53/53/53 54/54/54 56/56/56
f 57/57/57 59/59/59 58/58/58
f 57/57/57 58/58/58 60/60/60
f 61/61/61 63/63/63 62/62/62
f 61/61/61 62/62/62 64/64/64
f 65/65/65 67/67/67 66/66/66
f 68/68/68 67/67/67 65/65/65
f 69/69/69 71/71/71 70/70/70
f 72/72/72 69/69/69 70/70/70
f 73/73/73 75/75/75 74/74/74
f 73/73/73 74/74/74 76/76/76
f 77/77/77 79/79/79 78/78/78
f 77/77/77 78/78/78 80/80/80
f 81/81/81 83/83/83 82/82/82
f 81/81/81 82/82/82 84/84/84
f 85/85/85 87/87/87 86/86/86
f 85/85/85 86/86/86 88/88/88
f 89/89/89 91/91/91 90/90/90
f 89/89/89 92/92/92 91/91/91
f 93/93/93 95/95/95 94/94/94
f 93/93/93 94/94/94 96/96/96
f 97/97/97 99/99/99 98/98/98
f 97/97/97 98/98/98 100/100/100
f 101/101/101 103/103/103 102/102/102
f 101/101/101 102/102/102 104/104/104
f 105/105/105 107/107/107 106/106/106
f 105/105/105 106/106/106 108/108/108
f 109/109/109 111/111/111 110/110/110
f 109/109/109 110/110/110 112/112/112
f 113/113/113 115/115/115 114/114/114
f 113/113/113 114/114/114 116/116/116
f 117/117/117 119/119/119 118/118/118
f 117/117/117 118/118/118 120/120/120
f 121/121/121 123/123/123 122/122/122
f 121/121/121 122/122/122 124/124/124
f 125/125/125 127/127/127 126/126/126
f 125/125/125 126/126/126 128/128/128
f 129/129/129 131/131/131 130/130/130
f 132/132/132 131/131/131 129/129/129
f 132/132/132 133/133/133 131/131/131
f 132/132/132 134/134/134 133/133/133
f 133/133/133 134/134/134 135/135/135
f 136/136/136 134/134/134 132/132/132
f 137/137/137 139/139/139 138/138/138
f 140/140/140 137/137/137 138/138/138
f 140/140/140 138/138/138 141/141/141
f 140/140/140 141/141/141 142/142/142
f 141/141/141 143/143/143 142/142/142
f 144/144/144 140/140/140 142/142/142
f 145/145/145 147/147/147 146/146/146
f 145/145/145 146/146/146 148/148/148
f 149/149/149 151/151/151 150/150/150
f 149/149/149 150/150/150 152/152/152
f 153/153/153 155/155/155 154/154/154
f 153/153/153 154/154/154 156/156/156
f 157/157/157 159/159/159 158/158/158
f 157/157/157 158/158/158 160/160/160
f 161/161/161 163/163/163 162/162/162
f 164/164/164 163/163/163 161/161/161
f 165/165/165 167/167/167 166/166/166
f 168/168/168 165/165/165 166/166/166
f 169/169/169 171/171/171 170/170/170
f 169/169/169 170/170/170 172/172/172
f 173/173/173 175/175/175 174/174/174
f 173/173/173 174/174/174 176/176/176
f 177/177/177 179/179/179 178/178/178
f 177/177/177 178/178/178 180/180/180
f 181/181/181 183/183/183 182/182/182
f 181/181/181 182/182/182 184/184/184
f 185/185/185 187/187/187 186/186/186
f 185/185/185 188/188/188 187/187/187
f 189/189/189 191/191/191 190/190/190
f 189/189/189 190/190/190 192/192/192

