g Exported Mesh Combined Mesh 
v 41.54404 35.05749 -78.85989
v 41.51864 35.05749 -80.18063
v 41.54404 35.05749 -80.18063
v 41.51864 35.05749 -78.85989
v 41.54404 35.05749 -80.18063
v 41.51864 33.80744 -80.18063
v 41.54404 33.80744 -80.18063
v 41.51864 35.05749 -80.18063
v 41.54404 33.80744 -80.18063
v 41.51864 33.80744 -78.85989
v 41.54404 33.80744 -78.85989
v 41.51864 33.80744 -80.18063
v 41.54404 33.80744 -78.85989
v 41.51864 35.05749 -78.85989
v 41.54404 35.05749 -78.85989
v 41.51864 33.80744 -78.85989
v 41.54404 33.80744 -80.18063
v 41.54404 33.80744 -78.85989
v 41.54404 35.05749 -78.85989
v 41.54404 35.05749 -80.18063
v 41.51864 33.80744 -80.18063
v 41.51864 35.05749 -78.85989
v 41.51864 33.80744 -78.85989
v 41.51864 35.05749 -80.18063
v 40.52055 35.05749 -78.83939
v 41.53265 35.05749 -78.86479
v 41.53265 35.05749 -78.83939
v 40.52055 35.05749 -78.86479
v 41.53265 35.05749 -78.83939
v 41.53265 33.80744 -78.86479
v 41.53265 33.80744 -78.83939
v 41.53265 35.05749 -78.86479
v 41.53265 33.80744 -78.83939
v 40.52055 33.80744 -78.86479
v 40.52055 33.80744 -78.83939
v 41.53265 33.80744 -78.86479
v 40.52055 33.80744 -78.83939
v 40.52055 35.05749 -78.86479
v 40.52055 35.05749 -78.83939
v 40.52055 33.80744 -78.86479
v 41.53265 33.80744 -78.83939
v 40.52055 33.80744 -78.83939
v 40.52055 35.05749 -78.83939
v 41.53265 35.05749 -78.83939
v 41.53265 33.80744 -78.86479
v 40.52055 35.05749 -78.86479
v 40.52055 33.80744 -78.86479
v 41.53265 35.05749 -78.86479
v 38.91389 35.05749 -78.83939
v 39.61084 35.05749 -78.86479
v 39.61084 35.05749 -78.83939
v 38.91389 35.05749 -78.86479
v 39.61084 35.05749 -78.83939
v 39.61084 33.80744 -78.86479
v 39.61084 33.80744 -78.83939
v 39.61084 35.05749 -78.86479
v 39.61084 33.80744 -78.83939
v 38.91389 33.80744 -78.86479
v 38.91389 33.80744 -78.83939
v 39.61084 33.80744 -78.86479
v 38.91389 33.80744 -78.83939
v 38.91389 35.05749 -78.86479
v 38.91389 35.05749 -78.83939
v 38.91389 33.80744 -78.86479
v 39.61084 33.80744 -78.83939
v 38.91389 33.80744 -78.83939
v 38.91389 35.05749 -78.83939
v 39.61084 35.05749 -78.83939
v 39.61084 33.80744 -78.86479
v 38.91389 35.05749 -78.86479
v 38.91389 33.80744 -78.86479
v 39.61084 35.05749 -78.86479
v 38.93197 35.05749 -78.85989
v 38.90657 35.05749 -81.83823
v 38.93197 35.05749 -81.83823
v 38.90657 35.05749 -78.85989
v 38.93197 35.05749 -81.83823
v 38.90657 33.80744 -81.83823
v 38.93197 33.80744 -81.83823
v 38.90657 35.05749 -81.83823
v 38.93197 33.80744 -81.83823
v 38.90657 33.80744 -78.85989
v 38.93197 33.80744 -78.85989
v 38.90657 33.80744 -81.83823
v 38.93197 33.80744 -78.85989
v 38.90657 35.05749 -78.85989
v 38.93197 35.05749 -78.85989
v 38.90657 33.80744 -78.85989
v 38.93197 33.80744 -81.83823
v 38.93197 33.80744 -78.85989
v 38.93197 35.05749 -78.85989
v 38.93197 35.05749 -81.83823
v 38.90657 33.80744 -81.83823
v 38.90657 35.05749 -78.85989
v 38.90657 33.80744 -78.85989
v 38.90657 35.05749 -81.83823

vn -1.192093E-07 1 -8.940697E-08
vn -1.192093E-07 1 -8.940697E-08
vn -1.192093E-07 1 -8.940697E-08
vn -1.192093E-07 1 -8.940697E-08
vn 1.490116E-07 -1.192093E-07 -1
vn 1.490116E-07 -1.192093E-07 -1
vn 1.490116E-07 -1.192093E-07 -1
vn 1.490116E-07 -1.192093E-07 -1
vn 1.192093E-07 -1 8.940697E-08
vn 1.192093E-07 -1 8.940697E-08
vn 1.192093E-07 -1 8.940697E-08
vn 1.192093E-07 -1 8.940697E-08
vn -1.490116E-07 1.192093E-07 1
vn -1.490116E-07 1.192093E-07 1
vn -1.490116E-07 1.192093E-07 1
vn -1.490116E-07 1.192093E-07 1
vn 1 1.490116E-07 1.192093E-07
vn 1 1.490116E-07 1.192093E-07
vn 1 1.490116E-07 1.192093E-07
vn 1 1.490116E-07 1.192093E-07
vn -1 -1.490116E-07 -1.192093E-07
vn -1 -1.490116E-07 -1.192093E-07
vn -1 -1.490116E-07 -1.192093E-07
vn -1 -1.490116E-07 -1.192093E-07
vn 6.726504E-14 1 -2.384186E-07
vn 6.726504E-14 1 -2.384186E-07
vn 6.726504E-14 1 -2.384186E-07
vn 6.726504E-14 1 -2.384186E-07
vn 1 8.289746E-14 5.642599E-07
vn 1 8.289746E-14 5.642599E-07
vn 1 8.289746E-14 5.642599E-07
vn 1 8.289746E-14 5.642599E-07
vn -6.726504E-14 -1 2.384186E-07
vn -6.726504E-14 -1 2.384186E-07
vn -6.726504E-14 -1 2.384186E-07
vn -6.726504E-14 -1 2.384186E-07
vn -1 -8.289746E-14 -5.642599E-07
vn -1 -8.289746E-14 -5.642599E-07
vn -1 -8.289746E-14 -5.642599E-07
vn -1 -8.289746E-14 -5.642599E-07
vn -1.099928E-06 2.980233E-07 1
vn -1.099928E-06 2.980233E-07 1
vn -1.099928E-06 2.980233E-07 1
vn -1.099928E-06 2.980233E-07 1
vn 1.101357E-06 -2.980233E-07 -1
vn 1.101357E-06 -2.980233E-07 -1
vn 1.101357E-06 -2.980233E-07 -1
vn 1.101357E-06 -2.980233E-07 -1
vn 6.726504E-14 1 -2.384186E-07
vn 6.726504E-14 1 -2.384186E-07
vn 6.726504E-14 1 -2.384186E-07
vn 6.726504E-14 1 -2.384186E-07
vn 1 8.289746E-14 5.642599E-07
vn 1 8.289746E-14 5.642599E-07
vn 1 8.289746E-14 5.642599E-07
vn 1 8.289746E-14 5.642599E-07
vn -6.726504E-14 -1 2.384186E-07
vn -6.726504E-14 -1 2.384186E-07
vn -6.726504E-14 -1 2.384186E-07
vn -6.726504E-14 -1 2.384186E-07
vn -1 -8.289746E-14 -5.642599E-07
vn -1 -8.289746E-14 -5.642599E-07
vn -1 -8.289746E-14 -5.642599E-07
vn -1 -8.289746E-14 -5.642599E-07
vn -1.597294E-06 2.980233E-07 1
vn -1.597294E-06 2.980233E-07 1
vn -1.597294E-06 2.980233E-07 1
vn -1.597294E-06 2.980233E-07 1
vn 1.597368E-06 -2.980233E-07 -1
vn 1.597368E-06 -2.980233E-07 -1
vn 1.597368E-06 -2.980233E-07 -1
vn 1.597368E-06 -2.980233E-07 -1
vn -1.192093E-07 1 -8.940697E-08
vn -1.192093E-07 1 -8.940697E-08
vn -1.192093E-07 1 -8.940697E-08
vn -1.192093E-07 1 -8.940697E-08
vn 1.490116E-07 -1.192093E-07 -1
vn 1.490116E-07 -1.192093E-07 -1
vn 1.490116E-07 -1.192093E-07 -1
vn 1.490116E-07 -1.192093E-07 -1
vn 1.192093E-07 -1 8.940697E-08
vn 1.192093E-07 -1 8.940697E-08
vn 1.192093E-07 -1 8.940697E-08
vn 1.192093E-07 -1 8.940697E-08
vn -1.490116E-07 1.192093E-07 1
vn -1.490116E-07 1.192093E-07 1
vn -1.490116E-07 1.192093E-07 1
vn -1.490116E-07 1.192093E-07 1
vn 1 1.490116E-07 1.192093E-07
vn 1 1.490116E-07 1.192093E-07
vn 1 1.490116E-07 1.192093E-07
vn 1 1.490116E-07 1.192093E-07
vn -1 -1.490116E-07 -1.192093E-07
vn -1 -1.490116E-07 -1.192093E-07
vn -1 -1.490116E-07 -1.192093E-07
vn -1 -1.490116E-07 -1.192093E-07

vt 2.932791 2.932789
vt -0.3942813 2.93279
vt -0.3942813 2.93279
vt 2.932791 2.932789
vt -0.3942813 2.93279
vt -0.394282 -1.93279
vt -0.394282 -1.93279
vt -0.3942813 2.93279
vt -0.394282 -1.93279
vt 2.93279 -1.932791
vt 2.93279 -1.932791
vt -0.394282 -1.93279
vt 2.93279 -1.932791
vt 2.932791 2.932789
vt 2.932791 2.932789
vt 2.93279 -1.932791
vt -0.394282 -1.93279
vt 2.93279 -1.932791
vt 2.932791 2.932789
vt -0.3942813 2.93279
vt -0.394282 -1.93279
vt 2.932791 2.932789
vt 2.93279 -1.932791
vt -0.3942813 2.93279
vt 0.5865348 2.93279
vt -1.963013 2.932791
vt -1.963013 2.932791
vt 0.5865348 2.93279
vt -1.963013 2.932791
vt -1.963014 -1.932789
vt -1.963014 -1.932789
vt -1.963013 2.932791
vt -1.963014 -1.932789
vt 0.5865341 -1.93279
vt 0.5865341 -1.93279
vt -1.963014 -1.932789
vt 0.5865341 -1.93279
vt 0.5865348 2.93279
vt 0.5865348 2.93279
vt 0.5865341 -1.93279
vt -1.963014 -1.932789
vt 0.5865341 -1.93279
vt 0.5865348 2.93279
vt -1.963013 2.932791
vt -1.963014 -1.932789
vt 0.5865348 2.93279
vt 0.5865341 -1.93279
vt -1.963013 2.932791
vt 0.5865348 2.93279
vt -1.169134 2.932791
vt -1.169134 2.932791
vt 0.5865348 2.93279
vt -1.169134 2.932791
vt -1.169135 -1.932789
vt -1.169135 -1.932789
vt -1.169134 2.932791
vt -1.169135 -1.932789
vt 0.5865341 -1.93279
vt 0.5865341 -1.93279
vt -1.169135 -1.932789
vt 0.5865341 -1.93279
vt 0.5865348 2.93279
vt 0.5865348 2.93279
vt 0.5865341 -1.93279
vt -1.169135 -1.932789
vt 0.5865341 -1.93279
vt 0.5865348 2.93279
vt -1.169134 2.932791
vt -1.169135 -1.932789
vt 0.5865348 2.93279
vt 0.5865341 -1.93279
vt -1.169134 2.932791
vt 2.932791 2.932789
vt -4.56991 2.932792
vt -4.56991 2.932792
vt 2.932791 2.932789
vt -4.56991 2.932792
vt -4.569911 -1.932788
vt -4.569911 -1.932788
vt -4.56991 2.932792
vt -4.569911 -1.932788
vt 2.93279 -1.932791
vt 2.93279 -1.932791
vt -4.569911 -1.932788
vt 2.93279 -1.932791
vt 2.932791 2.932789
vt 2.932791 2.932789
vt 2.93279 -1.932791
vt -4.569911 -1.932788
vt 2.93279 -1.932791
vt 2.932791 2.932789
vt -4.56991 2.932792
vt -4.569911 -1.932788
vt 2.932791 2.932789
vt 2.93279 -1.932791
vt -4.56991 2.932792

vt1 0 0
vt1 0 0
vt1 0 0
vt1 0 0
vt1 0 0
vt1 0 0
vt1 0 0
vt1 0 0
vt1 0 0
vt1 0 0
vt1 0 0
vt1 0 0
vt1 0 0
vt1 0 0
vt1 0 0
vt1 0 0
vt1 0 0
vt1 0 0
vt1 0 0
vt1 0 0
vt1 0 0
vt1 0 0
vt1 0 0
vt1 0 0
vt1 0 0
vt1 0 0
vt1 0 0
vt1 0 0
vt1 0 0
vt1 0 0
vt1 0 0
vt1 0 0
vt1 0 0
vt1 0 0
vt1 0 0
vt1 0 0
vt1 0 0
vt1 0 0
vt1 0 0
vt1 0 0
vt1 0 0
vt1 0 0
vt1 0 0
vt1 0 0
vt1 0 0
vt1 0 0
vt1 0 0
vt1 0 0
vt1 0 0
vt1 0 0
vt1 0 0
vt1 0 0
vt1 0 0
vt1 0 0
vt1 0 0
vt1 0 0
vt1 0 0
vt1 0 0
vt1 0 0
vt1 0 0
vt1 0 0
vt1 0 0
vt1 0 0
vt1 0 0
vt1 0 0
vt1 0 0
vt1 0 0
vt1 0 0
vt1 0 0
vt1 0 0
vt1 0 0
vt1 0 0
vt1 0 0
vt1 0 0
vt1 0 0
vt1 0 0
vt1 0 0
vt1 0 0
vt1 0 0
vt1 0 0
vt1 0 0
vt1 0 0
vt1 0 0
vt1 0 0
vt1 0 0
vt1 0 0
vt1 0 0
vt1 0 0
vt1 0 0
vt1 0 0
vt1 0 0
vt1 0 0
vt1 0 0
vt1 0 0
vt1 0 0
vt1 0 0

vt2 0 0
vt2 0 0
vt2 0 0
vt2 0 0
vt2 0 0
vt2 0 0
vt2 0 0
vt2 0 0
vt2 0 0
vt2 0 0
vt2 0 0
vt2 0 0
vt2 0 0
vt2 0 0
vt2 0 0
vt2 0 0
vt2 0 0
vt2 0 0
vt2 0 0
vt2 0 0
vt2 0 0
vt2 0 0
vt2 0 0
vt2 0 0
vt2 0 0
vt2 0 0
vt2 0 0
vt2 0 0
vt2 0 0
vt2 0 0
vt2 0 0
vt2 0 0
vt2 0 0
vt2 0 0
vt2 0 0
vt2 0 0
vt2 0 0
vt2 0 0
vt2 0 0
vt2 0 0
vt2 0 0
vt2 0 0
vt2 0 0
vt2 0 0
vt2 0 0
vt2 0 0
vt2 0 0
vt2 0 0
vt2 0 0
vt2 0 0
vt2 0 0
vt2 0 0
vt2 0 0
vt2 0 0
vt2 0 0
vt2 0 0
vt2 0 0
vt2 0 0
vt2 0 0
vt2 0 0
vt2 0 0
vt2 0 0
vt2 0 0
vt2 0 0
vt2 0 0
vt2 0 0
vt2 0 0
vt2 0 0
vt2 0 0
vt2 0 0
vt2 0 0
vt2 0 0
vt2 0 0
vt2 0 0
vt2 0 0
vt2 0 0
vt2 0 0
vt2 0 0
vt2 0 0
vt2 0 0
vt2 0 0
vt2 0 0
vt2 0 0
vt2 0 0
vt2 0 0
vt2 0 0
vt2 0 0
vt2 0 0
vt2 0 0
vt2 0 0
vt2 0 0
vt2 0 0
vt2 0 0
vt2 0 0
vt2 0 0
vt2 0 0

vc 1 1 1 1
vc 1 1 1 1
vc 1 1 1 1
vc 1 1 1 1
vc 1 1 1 1
vc 1 1 1 1
vc 1 1 1 1
vc 1 1 1 1
vc 1 1 1 1
vc 1 1 1 1
vc 1 1 1 1
vc 1 1 1 1
vc 1 1 1 1
vc 1 1 1 1
vc 1 1 1 1
vc 1 1 1 1
vc 1 1 1 1
vc 1 1 1 1
vc 1 1 1 1
vc 1 1 1 1
vc 1 1 1 1
vc 1 1 1 1
vc 1 1 1 1
vc 1 1 1 1
vc 1 1 1 1
vc 1 1 1 1
vc 1 1 1 1
vc 1 1 1 1
vc 1 1 1 1
vc 1 1 1 1
vc 1 1 1 1
vc 1 1 1 1
vc 1 1 1 1
vc 1 1 1 1
vc 1 1 1 1
vc 1 1 1 1
vc 1 1 1 1
vc 1 1 1 1
vc 1 1 1 1
vc 1 1 1 1
vc 1 1 1 1
vc 1 1 1 1
vc 1 1 1 1
vc 1 1 1 1
vc 1 1 1 1
vc 1 1 1 1
vc 1 1 1 1
vc 1 1 1 1
vc 1 1 1 1
vc 1 1 1 1
vc 1 1 1 1
vc 1 1 1 1
vc 1 1 1 1
vc 1 1 1 1
vc 1 1 1 1
vc 1 1 1 1
vc 1 1 1 1
vc 1 1 1 1
vc 1 1 1 1
vc 1 1 1 1
vc 1 1 1 1
vc 1 1 1 1
vc 1 1 1 1
vc 1 1 1 1
vc 1 1 1 1
vc 1 1 1 1
vc 1 1 1 1
vc 1 1 1 1
vc 1 1 1 1
vc 1 1 1 1
vc 1 1 1 1
vc 1 1 1 1
vc 1 1 1 1
vc 1 1 1 1
vc 1 1 1 1
vc 1 1 1 1
vc 1 1 1 1
vc 1 1 1 1
vc 1 1 1 1
vc 1 1 1 1
vc 1 1 1 1
vc 1 1 1 1
vc 1 1 1 1
vc 1 1 1 1
vc 1 1 1 1
vc 1 1 1 1
vc 1 1 1 1
vc 1 1 1 1
vc 1 1 1 1
vc 1 1 1 1
vc 1 1 1 1
vc 1 1 1 1
vc 1 1 1 1
vc 1 1 1 1
vc 1 1 1 1
vc 1 1 1 1
f 1/1/1 3/3/3 2/2/2
f 1/1/1 2/2/2 4/4/4
f 5/5/5 7/7/7 6/6/6
f 5/5/5 6/6/6 8/8/8
f 9/9/9 11/11/11 10/10/10
f 9/9/9 10/10/10 12/12/12
f 13/13/13 15/15/15 14/14/14
f 13/13/13 14/14/14 16/16/16
f 17/17/17 19/19/19 18/18/18
f 17/17/17 20/20/20 19/19/19
f 21/21/21 23/23/23 22/22/22
f 21/21/21 22/22/22 24/24/24
f 25/25/25 27/27/27 26/26/26
f 25/25/25 26/26/26 28/28/28
f 29/29/29 31/31/31 30/30/30
f 29/29/29 30/30/30 32/32/32
f 33/33/33 35/35/35 34/34/34
f 33/33/33 34/34/34 36/36/36
f 37/37/37 39/39/39 38/38/38
f 37/37/37 38/38/38 40/40/40
f 41/41/41 43/43/43 42/42/42
f 44/44/44 43/43/43 41/41/41
f 45/45/45 47/47/47 46/46/46
f 48/48/48 45/45/45 46/46/46
f 49/49/49 51/51/51 50/50/50
f 49/49/49 50/50/50 52/52/52
f 53/53/53 55/55/55 54/54/54
f 53/53/53 54/54/54 56/56/56
f 57/57/57 59/59/59 58/58/58
f 57/57/57 58/58/58 60/60/60
f 61/61/61 63/63/63 62/62/62
f 61/61/61 62/62/62 64/64/64
f 65/65/65 67/67/67 66/66/66
f 68/68/68 67/67/67 65/65/65
f 69/69/69 71/71/71 70/70/70
f 72/72/72 69/69/69 70/70/70
f 73/73/73 75/75/75 74/74/74
f 73/73/73 74/74/74 76/76/76
f 77/77/77 79/79/79 78/78/78
f 77/77/77 78/78/78 80/80/80
f 81/81/81 83/83/83 82/82/82
f 81/81/81 82/82/82 84/84/84
f 85/85/85 87/87/87 86/86/86
f 85/85/85 86/86/86 88/88/88
f 89/89/89 91/91/91 90/90/90
f 89/89/89 92/92/92 91/91/91
f 93/93/93 95/95/95 94/94/94
f 93/93/93 94/94/94 96/96/96

