g Exported Mesh Combined Mesh 
v 31.9033 28.74785 -87.16373
v 31.90852 28.34711 -86.36951
v 31.9033 28.34711 -87.16373
v 31.90852 28.74785 -86.36951

vn -0.9999784 5.694267E-09 0.006570764
vn -0.9999784 5.694267E-09 0.006570764
vn -0.9999784 5.694267E-09 0.006570764
vn -0.9999784 5.694267E-09 0.006570764

vt 0.01517075 0.9967256
vt 0.9848294 0.003274232
vt 0.009867966 0.004600734
vt 0.9901323 0.9953992

vt1 0 0
vt1 0 0
vt1 0 0
vt1 0 0

vt2 0 0
vt2 0 0
vt2 0 0
vt2 0 0

vc 1 1 1 1
vc 1 1 1 1
vc 1 1 1 1
vc 1 1 1 1
f 1/1/1 3/3/3 2/2/2
f 2/2/2 4/4/4 1/1/1

